G75*
%MOIN*%
%OFA0B0*%
%FSLAX25Y25*%
%IPPOS*%
%LPD*%
%AMOC8*
5,1,8,0,0,1.08239X$1,22.5*
%
%ADD10C,0.01000*%
%ADD11R,0.06299X0.07087*%
%ADD12R,0.07874X0.01969*%
%ADD13C,0.06024*%
%ADD14R,0.05906X0.05906*%
%ADD15OC8,0.15748*%
%ADD16R,0.15748X0.15748*%
%ADD17C,0.07677*%
%ADD18R,0.07098X0.06299*%
%ADD19R,0.06299X0.07098*%
%ADD20R,0.07874X0.07874*%
%ADD21R,0.14567X0.04528*%
%ADD22C,0.00000*%
%ADD23C,0.03562*%
%ADD24C,0.03200*%
%ADD25C,0.02400*%
%ADD26C,0.03200*%
%ADD27C,0.05600*%
%ADD28C,0.01600*%
%ADD29C,0.09449*%
D10*
X0019234Y0003118D02*
X0019234Y0180283D01*
X0196399Y0180283D01*
X0196399Y0003118D01*
X0019234Y0003118D01*
X0022634Y0006518D02*
X0022634Y0176883D01*
X0032675Y0176883D01*
X0030015Y0175782D01*
X0027870Y0173637D01*
X0026709Y0170835D01*
X0026709Y0167802D01*
X0027870Y0164999D01*
X0029879Y0162990D01*
X0029576Y0162687D01*
X0028676Y0160515D01*
X0028676Y0158163D01*
X0029576Y0155990D01*
X0031228Y0154339D01*
X0029576Y0152687D01*
X0028676Y0150515D01*
X0028676Y0148163D01*
X0029576Y0145990D01*
X0031228Y0144339D01*
X0029576Y0142687D01*
X0028676Y0140515D01*
X0028676Y0138163D01*
X0029576Y0135990D01*
X0031239Y0134327D01*
X0033412Y0133427D01*
X0035764Y0133427D01*
X0037937Y0134327D01*
X0039600Y0135990D01*
X0040500Y0138163D01*
X0040500Y0140515D01*
X0039600Y0142687D01*
X0037949Y0144339D01*
X0039600Y0145990D01*
X0040500Y0148163D01*
X0040500Y0150515D01*
X0039600Y0152687D01*
X0037949Y0154339D01*
X0039600Y0155990D01*
X0040500Y0158163D01*
X0040500Y0160515D01*
X0039600Y0162687D01*
X0039043Y0163245D01*
X0040798Y0164999D01*
X0041958Y0167802D01*
X0041958Y0170835D01*
X0040798Y0173637D01*
X0038653Y0175782D01*
X0035993Y0176883D01*
X0045391Y0176883D01*
X0044951Y0176444D01*
X0044434Y0175194D01*
X0044434Y0162538D01*
X0043865Y0161970D01*
X0043153Y0160249D01*
X0043153Y0158387D01*
X0043865Y0156666D01*
X0045182Y0155350D01*
X0046903Y0154637D01*
X0048765Y0154637D01*
X0050485Y0155350D01*
X0051802Y0156666D01*
X0052515Y0158387D01*
X0052515Y0160249D01*
X0051802Y0161970D01*
X0051234Y0162538D01*
X0051234Y0172818D01*
X0087672Y0172818D01*
X0086809Y0170735D01*
X0086809Y0167702D01*
X0087970Y0164899D01*
X0089800Y0163069D01*
X0089419Y0162687D01*
X0088519Y0160515D01*
X0088519Y0158163D01*
X0089419Y0155990D01*
X0091082Y0154327D01*
X0093255Y0153427D01*
X0095607Y0153427D01*
X0097779Y0154327D01*
X0099442Y0155990D01*
X0100343Y0158163D01*
X0100343Y0160515D01*
X0099442Y0162687D01*
X0099064Y0163066D01*
X0100898Y0164899D01*
X0102058Y0167702D01*
X0102058Y0170735D01*
X0101195Y0172818D01*
X0147634Y0172818D01*
X0147634Y0157819D01*
X0147589Y0157680D01*
X0147634Y0157147D01*
X0147634Y0156613D01*
X0147690Y0156478D01*
X0147702Y0156332D01*
X0147947Y0155857D01*
X0148151Y0155363D01*
X0148255Y0155260D01*
X0148321Y0155130D01*
X0148730Y0154785D01*
X0149108Y0154407D01*
X0149243Y0154351D01*
X0149354Y0154257D01*
X0149863Y0154094D01*
X0150224Y0153944D01*
X0150224Y0150848D01*
X0150666Y0149782D01*
X0151482Y0148966D01*
X0152548Y0148524D01*
X0161575Y0148524D01*
X0162641Y0148966D01*
X0163457Y0149782D01*
X0163898Y0150848D01*
X0163898Y0159875D01*
X0163457Y0160941D01*
X0162641Y0161757D01*
X0161575Y0162198D01*
X0154434Y0162198D01*
X0154434Y0173687D01*
X0154450Y0173729D01*
X0154434Y0174362D01*
X0154434Y0174994D01*
X0154417Y0175036D01*
X0154415Y0175081D01*
X0154158Y0175660D01*
X0153916Y0176244D01*
X0153884Y0176276D01*
X0153866Y0176317D01*
X0153407Y0176753D01*
X0153277Y0176883D01*
X0187007Y0176883D01*
X0184206Y0175723D01*
X0182062Y0173579D01*
X0180901Y0170776D01*
X0180901Y0167743D01*
X0182062Y0164941D01*
X0184206Y0162796D01*
X0187009Y0161635D01*
X0190042Y0161635D01*
X0192844Y0162796D01*
X0192999Y0162951D01*
X0192999Y0015805D01*
X0192844Y0015960D01*
X0190042Y0017120D01*
X0187009Y0017120D01*
X0184206Y0015960D01*
X0182062Y0013815D01*
X0180901Y0011013D01*
X0180901Y0007979D01*
X0181506Y0006518D01*
X0105231Y0006518D01*
X0106822Y0007177D01*
X0108088Y0008443D01*
X0108773Y0010097D01*
X0108773Y0011887D01*
X0108088Y0013541D01*
X0107673Y0013956D01*
X0107673Y0021905D01*
X0107156Y0023154D01*
X0104166Y0026144D01*
X0103209Y0027100D01*
X0101960Y0027618D01*
X0100117Y0027618D01*
X0100343Y0028163D01*
X0100343Y0030515D01*
X0099442Y0032687D01*
X0097791Y0034339D01*
X0099442Y0035990D01*
X0100343Y0038163D01*
X0100343Y0040515D01*
X0099442Y0042687D01*
X0097791Y0044339D01*
X0099442Y0045990D01*
X0099483Y0046088D01*
X0100580Y0046088D01*
X0100580Y0045762D01*
X0101021Y0044696D01*
X0101837Y0043880D01*
X0102903Y0043439D01*
X0111155Y0043439D01*
X0112221Y0043880D01*
X0113037Y0044696D01*
X0113313Y0045363D01*
X0114008Y0045075D01*
X0115798Y0045075D01*
X0117452Y0045760D01*
X0118718Y0047026D01*
X0118821Y0047274D01*
X0118875Y0047251D01*
X0127903Y0047251D01*
X0128969Y0047693D01*
X0129784Y0048508D01*
X0130226Y0049574D01*
X0130226Y0049931D01*
X0130543Y0049799D01*
X0132334Y0049799D01*
X0133988Y0050484D01*
X0135253Y0051750D01*
X0135939Y0053404D01*
X0135939Y0055194D01*
X0135253Y0056848D01*
X0133988Y0058114D01*
X0132779Y0058615D01*
X0132962Y0058690D01*
X0133778Y0059506D01*
X0134219Y0060572D01*
X0134219Y0062452D01*
X0141566Y0062452D01*
X0141775Y0061945D01*
X0142591Y0061130D01*
X0143657Y0060688D01*
X0159378Y0060688D01*
X0160444Y0061130D01*
X0161259Y0061945D01*
X0161701Y0063011D01*
X0161701Y0068693D01*
X0161259Y0069758D01*
X0160444Y0070574D01*
X0159773Y0070852D01*
X0160444Y0071130D01*
X0161259Y0071945D01*
X0161701Y0073011D01*
X0161701Y0075218D01*
X0162610Y0075218D01*
X0163860Y0075736D01*
X0166461Y0078337D01*
X0167265Y0078337D01*
X0168985Y0079050D01*
X0170302Y0080366D01*
X0171015Y0082087D01*
X0171015Y0083949D01*
X0170302Y0085670D01*
X0168985Y0086987D01*
X0167265Y0087699D01*
X0165403Y0087699D01*
X0163682Y0086987D01*
X0162365Y0085670D01*
X0161661Y0083970D01*
X0161661Y0088693D01*
X0161220Y0089758D01*
X0160404Y0090574D01*
X0159714Y0090860D01*
X0160365Y0091130D01*
X0161181Y0091945D01*
X0161622Y0093011D01*
X0161622Y0096198D01*
X0161716Y0096292D01*
X0162234Y0097542D01*
X0162234Y0100998D01*
X0162802Y0101566D01*
X0163515Y0103287D01*
X0163515Y0105149D01*
X0162802Y0106870D01*
X0161485Y0108187D01*
X0159765Y0108899D01*
X0157903Y0108899D01*
X0156182Y0108187D01*
X0154865Y0106870D01*
X0154153Y0105149D01*
X0154153Y0103287D01*
X0154865Y0101566D01*
X0155416Y0101016D01*
X0153414Y0101016D01*
X0153504Y0101232D01*
X0153504Y0108685D01*
X0153404Y0108925D01*
X0162163Y0108925D01*
X0163229Y0109367D01*
X0164044Y0110182D01*
X0164486Y0111248D01*
X0164486Y0120276D01*
X0164044Y0121342D01*
X0163229Y0122158D01*
X0162163Y0122599D01*
X0153135Y0122599D01*
X0152069Y0122158D01*
X0151842Y0121931D01*
X0151180Y0122205D01*
X0151043Y0122205D01*
X0156667Y0130102D01*
X0161875Y0130102D01*
X0162941Y0130544D01*
X0163757Y0131360D01*
X0164198Y0132426D01*
X0164198Y0141453D01*
X0163757Y0142519D01*
X0162941Y0143335D01*
X0161875Y0143776D01*
X0152848Y0143776D01*
X0151782Y0143335D01*
X0150966Y0142519D01*
X0150524Y0141453D01*
X0150524Y0133199D01*
X0145716Y0126447D01*
X0141869Y0126447D01*
X0141869Y0126774D01*
X0141427Y0127840D01*
X0140612Y0128655D01*
X0139546Y0129097D01*
X0131295Y0129097D01*
X0131295Y0129385D01*
X0130778Y0130635D01*
X0129821Y0131591D01*
X0127262Y0134150D01*
X0127055Y0134236D01*
X0127055Y0134797D01*
X0126614Y0135863D01*
X0125798Y0136679D01*
X0124732Y0137120D01*
X0117673Y0137120D01*
X0116607Y0136679D01*
X0115791Y0135863D01*
X0115494Y0135145D01*
X0115196Y0135863D01*
X0114381Y0136679D01*
X0113315Y0137120D01*
X0106255Y0137120D01*
X0105190Y0136679D01*
X0104374Y0135863D01*
X0103932Y0134797D01*
X0103932Y0127738D01*
X0104374Y0126672D01*
X0105190Y0125856D01*
X0106255Y0125415D01*
X0113315Y0125415D01*
X0114381Y0125856D01*
X0115196Y0126672D01*
X0115494Y0127390D01*
X0115791Y0126672D01*
X0116607Y0125856D01*
X0117673Y0125415D01*
X0123395Y0125415D01*
X0123395Y0123877D01*
X0123617Y0123341D01*
X0117673Y0123341D01*
X0116607Y0122899D01*
X0115791Y0122084D01*
X0115494Y0121366D01*
X0115196Y0122084D01*
X0114381Y0122899D01*
X0113315Y0123341D01*
X0106255Y0123341D01*
X0105190Y0122899D01*
X0104374Y0122084D01*
X0103932Y0121018D01*
X0103932Y0120888D01*
X0101904Y0120888D01*
X0100654Y0120371D01*
X0100343Y0120059D01*
X0100343Y0120515D01*
X0099442Y0122687D01*
X0097791Y0124339D01*
X0099442Y0125990D01*
X0100343Y0128163D01*
X0100343Y0130515D01*
X0099442Y0132687D01*
X0097791Y0134339D01*
X0099442Y0135990D01*
X0100343Y0138163D01*
X0100343Y0140515D01*
X0099442Y0142687D01*
X0097779Y0144350D01*
X0095607Y0145250D01*
X0093255Y0145250D01*
X0091082Y0144350D01*
X0089419Y0142687D01*
X0088519Y0140515D01*
X0088519Y0138163D01*
X0089419Y0135990D01*
X0091070Y0134339D01*
X0089419Y0132687D01*
X0088519Y0130515D01*
X0088519Y0128163D01*
X0089419Y0125990D01*
X0091070Y0124339D01*
X0089419Y0122687D01*
X0088519Y0120515D01*
X0088519Y0118163D01*
X0089419Y0115990D01*
X0091070Y0114339D01*
X0089419Y0112687D01*
X0088519Y0110515D01*
X0088519Y0108163D01*
X0089419Y0105990D01*
X0091070Y0104339D01*
X0089419Y0102687D01*
X0088519Y0100515D01*
X0088519Y0098163D01*
X0089419Y0095990D01*
X0091070Y0094339D01*
X0089419Y0092687D01*
X0088519Y0090515D01*
X0088519Y0088163D01*
X0089419Y0085990D01*
X0091070Y0084339D01*
X0089419Y0082687D01*
X0088519Y0080515D01*
X0088519Y0078163D01*
X0089419Y0075990D01*
X0091070Y0074339D01*
X0089419Y0072687D01*
X0088519Y0070515D01*
X0088519Y0068163D01*
X0088613Y0067935D01*
X0086784Y0067935D01*
X0085132Y0069587D01*
X0085132Y0074254D01*
X0084690Y0075320D01*
X0083875Y0076136D01*
X0082809Y0076577D01*
X0074557Y0076577D01*
X0073491Y0076136D01*
X0072675Y0075320D01*
X0072233Y0074254D01*
X0072233Y0066801D01*
X0072675Y0065735D01*
X0073481Y0064929D01*
X0072675Y0064123D01*
X0072233Y0063057D01*
X0072233Y0055604D01*
X0072675Y0054538D01*
X0073491Y0053723D01*
X0073666Y0053650D01*
X0073002Y0052045D01*
X0067705Y0052045D01*
X0067705Y0052326D02*
X0066805Y0054498D01*
X0065153Y0056150D01*
X0066805Y0057801D01*
X0067705Y0059974D01*
X0067705Y0062326D01*
X0066805Y0064498D01*
X0065153Y0066150D01*
X0066805Y0067801D01*
X0067705Y0069974D01*
X0067705Y0072326D01*
X0066805Y0074498D01*
X0065153Y0076150D01*
X0066805Y0077801D01*
X0067705Y0079974D01*
X0067705Y0082326D01*
X0066805Y0084498D01*
X0065142Y0086161D01*
X0063347Y0086905D01*
X0066016Y0089574D01*
X0066640Y0091081D01*
X0066640Y0093967D01*
X0067104Y0095087D01*
X0067104Y0096877D01*
X0066419Y0098531D01*
X0065153Y0099797D01*
X0063499Y0100482D01*
X0061709Y0100482D01*
X0060055Y0099797D01*
X0058789Y0098531D01*
X0058104Y0096877D01*
X0058104Y0095087D01*
X0058440Y0094275D01*
X0058440Y0093595D01*
X0051906Y0087061D01*
X0050617Y0087061D01*
X0048444Y0086161D01*
X0047825Y0085542D01*
X0047649Y0085967D01*
X0046383Y0087233D01*
X0044729Y0087918D01*
X0042939Y0087918D01*
X0041285Y0087233D01*
X0040019Y0085967D01*
X0039334Y0084313D01*
X0039334Y0082953D01*
X0037949Y0084339D01*
X0039600Y0085990D01*
X0040500Y0088163D01*
X0040500Y0090515D01*
X0039600Y0092687D01*
X0037949Y0094339D01*
X0039600Y0095990D01*
X0040500Y0098163D01*
X0040500Y0100515D01*
X0039600Y0102687D01*
X0037949Y0104339D01*
X0039600Y0105990D01*
X0040500Y0108163D01*
X0040500Y0110515D01*
X0039600Y0112687D01*
X0037949Y0114339D01*
X0039600Y0115990D01*
X0040500Y0118163D01*
X0040500Y0120515D01*
X0039600Y0122687D01*
X0037937Y0124350D01*
X0035764Y0125250D01*
X0033412Y0125250D01*
X0031239Y0124350D01*
X0029576Y0122687D01*
X0028676Y0120515D01*
X0028676Y0118163D01*
X0029576Y0115990D01*
X0031228Y0114339D01*
X0029576Y0112687D01*
X0028676Y0110515D01*
X0028676Y0108163D01*
X0029576Y0105990D01*
X0031228Y0104339D01*
X0029576Y0102687D01*
X0028676Y0100515D01*
X0028676Y0098163D01*
X0029576Y0095990D01*
X0031228Y0094339D01*
X0029576Y0092687D01*
X0028676Y0090515D01*
X0028676Y0088163D01*
X0029576Y0085990D01*
X0031228Y0084339D01*
X0029576Y0082687D01*
X0028676Y0080515D01*
X0028676Y0078163D01*
X0029576Y0075990D01*
X0031228Y0074339D01*
X0029576Y0072687D01*
X0028676Y0070515D01*
X0028676Y0068163D01*
X0029576Y0065990D01*
X0031228Y0064339D01*
X0029576Y0062687D01*
X0028676Y0060515D01*
X0028676Y0058163D01*
X0029576Y0055990D01*
X0031228Y0054339D01*
X0029576Y0052687D01*
X0028676Y0050515D01*
X0028676Y0048163D01*
X0029576Y0045990D01*
X0031228Y0044339D01*
X0029576Y0042687D01*
X0028676Y0040515D01*
X0028676Y0038163D01*
X0029576Y0035990D01*
X0031228Y0034339D01*
X0029576Y0032687D01*
X0028676Y0030515D01*
X0028676Y0028163D01*
X0029576Y0025990D01*
X0031228Y0024339D01*
X0029576Y0022687D01*
X0028676Y0020515D01*
X0028676Y0018163D01*
X0029576Y0015990D01*
X0029811Y0015755D01*
X0027870Y0013815D01*
X0026709Y0011013D01*
X0026709Y0007979D01*
X0027315Y0006518D01*
X0022634Y0006518D01*
X0022634Y0006518D01*
X0022634Y0007112D02*
X0027069Y0007112D01*
X0026709Y0008111D02*
X0022634Y0008111D01*
X0022634Y0009109D02*
X0026709Y0009109D01*
X0026709Y0010108D02*
X0022634Y0010108D01*
X0022634Y0011106D02*
X0026748Y0011106D01*
X0027162Y0012105D02*
X0022634Y0012105D01*
X0022634Y0013103D02*
X0027575Y0013103D01*
X0028157Y0014102D02*
X0022634Y0014102D01*
X0022634Y0015100D02*
X0029156Y0015100D01*
X0029531Y0016099D02*
X0022634Y0016099D01*
X0022634Y0017097D02*
X0029118Y0017097D01*
X0028704Y0018096D02*
X0022634Y0018096D01*
X0022634Y0019094D02*
X0028676Y0019094D01*
X0028676Y0020093D02*
X0022634Y0020093D01*
X0022634Y0021091D02*
X0028915Y0021091D01*
X0029329Y0022090D02*
X0022634Y0022090D01*
X0022634Y0023088D02*
X0029977Y0023088D01*
X0030976Y0024087D02*
X0022634Y0024087D01*
X0022634Y0025085D02*
X0030481Y0025085D01*
X0029537Y0026084D02*
X0022634Y0026084D01*
X0022634Y0027082D02*
X0029124Y0027082D01*
X0028710Y0028081D02*
X0022634Y0028081D01*
X0022634Y0029079D02*
X0028676Y0029079D01*
X0028676Y0030078D02*
X0022634Y0030078D01*
X0022634Y0031076D02*
X0028909Y0031076D01*
X0029323Y0032075D02*
X0022634Y0032075D01*
X0022634Y0033073D02*
X0029962Y0033073D01*
X0030961Y0034072D02*
X0022634Y0034072D01*
X0022634Y0035070D02*
X0030496Y0035070D01*
X0029544Y0036069D02*
X0022634Y0036069D01*
X0022634Y0037067D02*
X0029130Y0037067D01*
X0028716Y0038066D02*
X0022634Y0038066D01*
X0022634Y0039065D02*
X0028676Y0039065D01*
X0028676Y0040063D02*
X0022634Y0040063D01*
X0022634Y0041062D02*
X0028903Y0041062D01*
X0029317Y0042060D02*
X0022634Y0042060D01*
X0022634Y0043059D02*
X0029948Y0043059D01*
X0030946Y0044057D02*
X0022634Y0044057D01*
X0022634Y0045056D02*
X0030511Y0045056D01*
X0029550Y0046054D02*
X0022634Y0046054D01*
X0022634Y0047053D02*
X0029136Y0047053D01*
X0028723Y0048051D02*
X0022634Y0048051D01*
X0022634Y0049050D02*
X0028676Y0049050D01*
X0028676Y0050048D02*
X0022634Y0050048D01*
X0022634Y0051047D02*
X0028897Y0051047D01*
X0029310Y0052045D02*
X0022634Y0052045D01*
X0022634Y0053044D02*
X0029933Y0053044D01*
X0030931Y0054042D02*
X0022634Y0054042D01*
X0022634Y0055041D02*
X0030525Y0055041D01*
X0029556Y0056039D02*
X0022634Y0056039D01*
X0022634Y0057038D02*
X0029142Y0057038D01*
X0028729Y0058036D02*
X0022634Y0058036D01*
X0022634Y0059035D02*
X0028676Y0059035D01*
X0028676Y0060033D02*
X0022634Y0060033D01*
X0022634Y0061032D02*
X0028891Y0061032D01*
X0029304Y0062030D02*
X0022634Y0062030D01*
X0022634Y0063029D02*
X0029918Y0063029D01*
X0030916Y0064027D02*
X0022634Y0064027D01*
X0022634Y0065026D02*
X0030540Y0065026D01*
X0029562Y0066024D02*
X0022634Y0066024D01*
X0022634Y0067023D02*
X0029148Y0067023D01*
X0028735Y0068021D02*
X0022634Y0068021D01*
X0022634Y0069020D02*
X0028676Y0069020D01*
X0028676Y0070018D02*
X0022634Y0070018D01*
X0022634Y0071017D02*
X0028884Y0071017D01*
X0029298Y0072015D02*
X0022634Y0072015D01*
X0022634Y0073014D02*
X0029903Y0073014D01*
X0030901Y0074012D02*
X0022634Y0074012D01*
X0022634Y0075011D02*
X0030555Y0075011D01*
X0029568Y0076009D02*
X0022634Y0076009D01*
X0022634Y0077008D02*
X0029155Y0077008D01*
X0028741Y0078006D02*
X0022634Y0078006D01*
X0022634Y0079005D02*
X0028676Y0079005D01*
X0028676Y0080003D02*
X0022634Y0080003D01*
X0022634Y0081002D02*
X0028878Y0081002D01*
X0029292Y0082001D02*
X0022634Y0082001D01*
X0022634Y0082999D02*
X0029888Y0082999D01*
X0030887Y0083998D02*
X0022634Y0083998D01*
X0022634Y0084996D02*
X0030570Y0084996D01*
X0029574Y0085995D02*
X0022634Y0085995D01*
X0022634Y0086993D02*
X0029161Y0086993D01*
X0028747Y0087992D02*
X0022634Y0087992D01*
X0022634Y0088990D02*
X0028676Y0088990D01*
X0028676Y0089989D02*
X0022634Y0089989D01*
X0022634Y0090987D02*
X0028872Y0090987D01*
X0029286Y0091986D02*
X0022634Y0091986D01*
X0022634Y0092984D02*
X0029873Y0092984D01*
X0030872Y0093983D02*
X0022634Y0093983D01*
X0022634Y0094981D02*
X0030585Y0094981D01*
X0029587Y0095980D02*
X0022634Y0095980D01*
X0022634Y0096978D02*
X0029167Y0096978D01*
X0028753Y0097977D02*
X0022634Y0097977D01*
X0022634Y0098975D02*
X0028676Y0098975D01*
X0028676Y0099974D02*
X0022634Y0099974D01*
X0022634Y0100972D02*
X0028866Y0100972D01*
X0029280Y0101971D02*
X0022634Y0101971D01*
X0022634Y0102969D02*
X0029858Y0102969D01*
X0030857Y0103968D02*
X0022634Y0103968D01*
X0022634Y0104966D02*
X0030600Y0104966D01*
X0029601Y0105965D02*
X0022634Y0105965D01*
X0022634Y0106963D02*
X0029173Y0106963D01*
X0028760Y0107962D02*
X0022634Y0107962D01*
X0022634Y0108960D02*
X0028676Y0108960D01*
X0028676Y0109959D02*
X0022634Y0109959D01*
X0022634Y0110957D02*
X0028860Y0110957D01*
X0029273Y0111956D02*
X0022634Y0111956D01*
X0022634Y0112954D02*
X0029843Y0112954D01*
X0030842Y0113953D02*
X0022634Y0113953D01*
X0022634Y0114951D02*
X0030615Y0114951D01*
X0029616Y0115950D02*
X0022634Y0115950D01*
X0022634Y0116948D02*
X0029179Y0116948D01*
X0028766Y0117947D02*
X0022634Y0117947D01*
X0022634Y0118945D02*
X0028676Y0118945D01*
X0028676Y0119944D02*
X0022634Y0119944D01*
X0022634Y0120942D02*
X0028854Y0120942D01*
X0029267Y0121941D02*
X0022634Y0121941D01*
X0022634Y0122939D02*
X0029829Y0122939D01*
X0030827Y0123938D02*
X0022634Y0123938D01*
X0022634Y0124936D02*
X0032654Y0124936D01*
X0036522Y0124936D02*
X0090472Y0124936D01*
X0090670Y0123938D02*
X0038349Y0123938D01*
X0039348Y0122939D02*
X0089671Y0122939D01*
X0089110Y0121941D02*
X0039909Y0121941D01*
X0040323Y0120942D02*
X0088696Y0120942D01*
X0088519Y0119944D02*
X0040500Y0119944D01*
X0040500Y0118945D02*
X0088519Y0118945D01*
X0088608Y0117947D02*
X0040411Y0117947D01*
X0039997Y0116948D02*
X0089022Y0116948D01*
X0089459Y0115950D02*
X0039560Y0115950D01*
X0038562Y0114951D02*
X0090457Y0114951D01*
X0090684Y0113953D02*
X0038334Y0113953D01*
X0039333Y0112954D02*
X0089686Y0112954D01*
X0089116Y0111956D02*
X0039903Y0111956D01*
X0040317Y0110957D02*
X0088702Y0110957D01*
X0088519Y0109959D02*
X0040500Y0109959D01*
X0040500Y0108960D02*
X0088519Y0108960D01*
X0088602Y0107962D02*
X0040417Y0107962D01*
X0040003Y0106963D02*
X0089016Y0106963D01*
X0089444Y0105965D02*
X0039575Y0105965D01*
X0038576Y0104966D02*
X0090442Y0104966D01*
X0090699Y0103968D02*
X0038320Y0103968D01*
X0039318Y0102969D02*
X0089701Y0102969D01*
X0089122Y0101971D02*
X0039897Y0101971D01*
X0040310Y0100972D02*
X0088708Y0100972D01*
X0088519Y0099974D02*
X0064726Y0099974D01*
X0065975Y0098975D02*
X0088519Y0098975D01*
X0088596Y0097977D02*
X0066648Y0097977D01*
X0067062Y0096978D02*
X0089010Y0096978D01*
X0089429Y0095980D02*
X0067104Y0095980D01*
X0067060Y0094981D02*
X0090428Y0094981D01*
X0090714Y0093983D02*
X0066647Y0093983D01*
X0066640Y0092984D02*
X0089716Y0092984D01*
X0089128Y0091986D02*
X0066640Y0091986D01*
X0066601Y0090987D02*
X0088715Y0090987D01*
X0088519Y0089989D02*
X0066188Y0089989D01*
X0065432Y0088990D02*
X0088519Y0088990D01*
X0088590Y0087992D02*
X0064433Y0087992D01*
X0063435Y0086993D02*
X0089003Y0086993D01*
X0089417Y0085995D02*
X0065309Y0085995D01*
X0066307Y0084996D02*
X0090413Y0084996D01*
X0090729Y0083998D02*
X0067012Y0083998D01*
X0067426Y0082999D02*
X0089731Y0082999D01*
X0089134Y0082001D02*
X0067705Y0082001D01*
X0067705Y0081002D02*
X0088721Y0081002D01*
X0088519Y0080003D02*
X0067705Y0080003D01*
X0067303Y0079005D02*
X0088519Y0079005D01*
X0088584Y0078006D02*
X0066890Y0078006D01*
X0066012Y0077008D02*
X0088997Y0077008D01*
X0089411Y0076009D02*
X0084001Y0076009D01*
X0084818Y0075011D02*
X0090398Y0075011D01*
X0090744Y0074012D02*
X0085132Y0074012D01*
X0085132Y0073014D02*
X0089745Y0073014D01*
X0089141Y0072015D02*
X0085132Y0072015D01*
X0085132Y0071017D02*
X0088727Y0071017D01*
X0088519Y0070018D02*
X0085132Y0070018D01*
X0085699Y0069020D02*
X0088519Y0069020D01*
X0088577Y0068021D02*
X0086698Y0068021D01*
X0085376Y0064535D02*
X0103179Y0064535D01*
X0107029Y0060685D01*
X0116464Y0051135D02*
X0114903Y0049575D01*
X0116464Y0051135D02*
X0123389Y0051135D01*
X0123389Y0056175D02*
X0129563Y0056175D01*
X0131439Y0054299D01*
X0135589Y0056039D02*
X0148875Y0056039D01*
X0148884Y0056061D02*
X0148452Y0055020D01*
X0140135Y0055020D01*
X0139069Y0054578D01*
X0138253Y0053762D01*
X0137812Y0052697D01*
X0137812Y0049574D01*
X0137864Y0049448D01*
X0136825Y0049018D01*
X0136008Y0048200D01*
X0135602Y0047794D01*
X0134696Y0048169D01*
X0132906Y0048169D01*
X0131252Y0047484D01*
X0129986Y0046218D01*
X0129301Y0044564D01*
X0129301Y0044535D01*
X0129011Y0044535D01*
X0128969Y0044578D01*
X0127903Y0045020D01*
X0118875Y0045020D01*
X0117809Y0044578D01*
X0116993Y0043762D01*
X0116552Y0042697D01*
X0116552Y0039574D01*
X0116568Y0039535D01*
X0116535Y0039535D01*
X0115518Y0039114D01*
X0114795Y0039114D01*
X0113141Y0038429D01*
X0111876Y0037163D01*
X0111191Y0035509D01*
X0111191Y0033719D01*
X0111876Y0032065D01*
X0113141Y0030799D01*
X0114795Y0030114D01*
X0116586Y0030114D01*
X0118240Y0030799D01*
X0119505Y0032065D01*
X0119583Y0032251D01*
X0127903Y0032251D01*
X0128969Y0032693D01*
X0129754Y0033478D01*
X0130858Y0032374D01*
X0131632Y0032054D01*
X0131269Y0031179D01*
X0131269Y0029388D01*
X0131954Y0027734D01*
X0133220Y0026469D01*
X0134874Y0025783D01*
X0136664Y0025783D01*
X0138318Y0026469D01*
X0139404Y0027554D01*
X0140135Y0027251D01*
X0149163Y0027251D01*
X0150229Y0027693D01*
X0150271Y0027735D01*
X0150393Y0027735D01*
X0150393Y0022114D01*
X0150834Y0021048D01*
X0151650Y0020232D01*
X0152716Y0019791D01*
X0160169Y0019791D01*
X0161235Y0020232D01*
X0162041Y0021039D01*
X0162847Y0020232D01*
X0163913Y0019791D01*
X0169680Y0019791D01*
X0169680Y0018174D01*
X0170481Y0016240D01*
X0171962Y0014759D01*
X0173896Y0013958D01*
X0175989Y0013958D01*
X0177923Y0014759D01*
X0179404Y0016240D01*
X0180205Y0018174D01*
X0180205Y0020267D01*
X0179404Y0022201D01*
X0178091Y0023514D01*
X0178172Y0023514D01*
X0179826Y0024199D01*
X0181092Y0025465D01*
X0181777Y0027119D01*
X0181777Y0028909D01*
X0181092Y0030563D01*
X0179826Y0031829D01*
X0178172Y0032514D01*
X0176382Y0032514D01*
X0174728Y0031829D01*
X0173565Y0030666D01*
X0173247Y0031432D01*
X0172432Y0032248D01*
X0171366Y0032689D01*
X0167206Y0032689D01*
X0167197Y0033332D01*
X0167197Y0033847D01*
X0167789Y0034093D01*
X0168605Y0034908D01*
X0169046Y0035974D01*
X0169046Y0044215D01*
X0168605Y0045281D01*
X0168026Y0045859D01*
X0168605Y0046438D01*
X0169046Y0047504D01*
X0169046Y0055745D01*
X0168605Y0056810D01*
X0167789Y0057626D01*
X0166723Y0058068D01*
X0159270Y0058068D01*
X0158205Y0057626D01*
X0157389Y0056810D01*
X0157335Y0056681D01*
X0157195Y0056660D01*
X0156755Y0056396D01*
X0156347Y0056227D01*
X0155247Y0057327D01*
X0153594Y0058012D01*
X0151803Y0058012D01*
X0150149Y0057327D01*
X0148884Y0056061D01*
X0148461Y0055041D02*
X0135939Y0055041D01*
X0135939Y0054042D02*
X0138533Y0054042D01*
X0137956Y0053044D02*
X0135789Y0053044D01*
X0135376Y0052045D02*
X0137812Y0052045D01*
X0137812Y0051047D02*
X0134550Y0051047D01*
X0132935Y0050048D02*
X0137812Y0050048D01*
X0136902Y0049050D02*
X0130009Y0049050D01*
X0129327Y0048051D02*
X0132620Y0048051D01*
X0130820Y0047053D02*
X0118729Y0047053D01*
X0117746Y0046054D02*
X0129918Y0046054D01*
X0129504Y0045056D02*
X0113186Y0045056D01*
X0112398Y0044057D02*
X0117288Y0044057D01*
X0116702Y0043059D02*
X0099071Y0043059D01*
X0099702Y0042060D02*
X0116552Y0042060D01*
X0116552Y0041062D02*
X0100116Y0041062D01*
X0100343Y0040063D02*
X0116552Y0040063D01*
X0114676Y0039065D02*
X0100343Y0039065D01*
X0100302Y0038066D02*
X0112778Y0038066D01*
X0111836Y0037067D02*
X0099889Y0037067D01*
X0099475Y0036069D02*
X0111422Y0036069D01*
X0111191Y0035070D02*
X0098523Y0035070D01*
X0098058Y0034072D02*
X0111191Y0034072D01*
X0111458Y0033073D02*
X0099056Y0033073D01*
X0099696Y0032075D02*
X0111872Y0032075D01*
X0112864Y0031076D02*
X0100110Y0031076D01*
X0100343Y0030078D02*
X0131269Y0030078D01*
X0131269Y0031076D02*
X0118517Y0031076D01*
X0118875Y0030020D02*
X0117809Y0029578D01*
X0116993Y0028762D01*
X0116552Y0027697D01*
X0116552Y0024574D01*
X0116993Y0023508D01*
X0117809Y0022693D01*
X0118344Y0022471D01*
X0117563Y0021690D01*
X0117121Y0020624D01*
X0117121Y0012384D01*
X0117563Y0011318D01*
X0118379Y0010502D01*
X0119444Y0010061D01*
X0126897Y0010061D01*
X0127963Y0010502D01*
X0128779Y0011318D01*
X0129220Y0012384D01*
X0129220Y0012404D01*
X0130850Y0012404D01*
X0132858Y0010396D01*
X0134011Y0009242D01*
X0135518Y0008618D01*
X0147092Y0008618D01*
X0147473Y0008461D01*
X0149263Y0008461D01*
X0150917Y0009146D01*
X0152183Y0010412D01*
X0152868Y0012066D01*
X0152868Y0013856D01*
X0152183Y0015510D01*
X0150917Y0016776D01*
X0149263Y0017461D01*
X0148413Y0017461D01*
X0148709Y0018174D01*
X0148709Y0020267D01*
X0147908Y0022201D01*
X0146427Y0023682D01*
X0144493Y0024483D01*
X0142400Y0024483D01*
X0140466Y0023682D01*
X0138985Y0022201D01*
X0138184Y0020267D01*
X0138184Y0018174D01*
X0138746Y0016818D01*
X0138032Y0016818D01*
X0134870Y0019980D01*
X0133364Y0020604D01*
X0129220Y0020604D01*
X0129220Y0020624D01*
X0128779Y0021690D01*
X0128125Y0022343D01*
X0128969Y0022693D01*
X0129784Y0023508D01*
X0130226Y0024574D01*
X0130226Y0027697D01*
X0129784Y0028762D01*
X0128969Y0029578D01*
X0127903Y0030020D01*
X0118875Y0030020D01*
X0117310Y0029079D02*
X0100343Y0029079D01*
X0100309Y0028081D02*
X0116711Y0028081D01*
X0116552Y0027082D02*
X0103227Y0027082D01*
X0104166Y0026144D02*
X0104166Y0026144D01*
X0104226Y0026084D02*
X0116552Y0026084D01*
X0116552Y0025085D02*
X0105225Y0025085D01*
X0106223Y0024087D02*
X0116754Y0024087D01*
X0117414Y0023088D02*
X0107183Y0023088D01*
X0107597Y0022090D02*
X0117963Y0022090D01*
X0117315Y0021091D02*
X0107673Y0021091D01*
X0107673Y0020093D02*
X0117121Y0020093D01*
X0117121Y0019094D02*
X0107673Y0019094D01*
X0107673Y0018096D02*
X0117121Y0018096D01*
X0117121Y0017097D02*
X0107673Y0017097D01*
X0107673Y0016099D02*
X0117121Y0016099D01*
X0117121Y0015100D02*
X0107673Y0015100D01*
X0107673Y0014102D02*
X0117121Y0014102D01*
X0117121Y0013103D02*
X0108270Y0013103D01*
X0108683Y0012105D02*
X0117237Y0012105D01*
X0117774Y0011106D02*
X0108773Y0011106D01*
X0108773Y0010108D02*
X0119331Y0010108D01*
X0127011Y0010108D02*
X0133146Y0010108D01*
X0132147Y0011106D02*
X0128567Y0011106D01*
X0129105Y0012105D02*
X0131149Y0012105D01*
X0134333Y0009109D02*
X0108364Y0009109D01*
X0107756Y0008111D02*
X0180901Y0008111D01*
X0180901Y0009109D02*
X0150829Y0009109D01*
X0151879Y0010108D02*
X0180901Y0010108D01*
X0180940Y0011106D02*
X0152470Y0011106D01*
X0152868Y0012105D02*
X0181353Y0012105D01*
X0181767Y0013103D02*
X0152868Y0013103D01*
X0152766Y0014102D02*
X0173549Y0014102D01*
X0171621Y0015100D02*
X0152352Y0015100D01*
X0151594Y0016099D02*
X0170622Y0016099D01*
X0170126Y0017097D02*
X0150140Y0017097D01*
X0148676Y0018096D02*
X0169713Y0018096D01*
X0169680Y0019094D02*
X0148709Y0019094D01*
X0148709Y0020093D02*
X0151987Y0020093D01*
X0150817Y0021091D02*
X0148367Y0021091D01*
X0147954Y0022090D02*
X0150403Y0022090D01*
X0150393Y0023088D02*
X0147020Y0023088D01*
X0145449Y0024087D02*
X0150393Y0024087D01*
X0150393Y0025085D02*
X0130226Y0025085D01*
X0130226Y0026084D02*
X0134149Y0026084D01*
X0132606Y0027082D02*
X0130226Y0027082D01*
X0130067Y0028081D02*
X0131811Y0028081D01*
X0131397Y0029079D02*
X0129467Y0029079D01*
X0131580Y0032075D02*
X0119510Y0032075D01*
X0115691Y0034614D02*
X0117212Y0036135D01*
X0123389Y0036135D01*
X0123389Y0041135D02*
X0131267Y0041135D01*
X0133801Y0043669D01*
X0137934Y0045318D02*
X0137934Y0040716D01*
X0133407Y0036189D01*
X0135734Y0032718D02*
X0135734Y0030319D01*
X0135769Y0030283D01*
X0135734Y0032718D02*
X0139134Y0036118D01*
X0144631Y0036118D01*
X0144649Y0036135D01*
X0141326Y0040020D02*
X0141334Y0040039D01*
X0141334Y0042251D01*
X0149163Y0042251D01*
X0150229Y0042693D01*
X0151044Y0043508D01*
X0151486Y0044574D01*
X0151486Y0045605D01*
X0152118Y0044972D01*
X0153772Y0044287D01*
X0155562Y0044287D01*
X0157216Y0044972D01*
X0157293Y0045050D01*
X0156947Y0044215D01*
X0156947Y0035974D01*
X0157389Y0034908D01*
X0158125Y0034172D01*
X0157809Y0033409D01*
X0157809Y0032689D01*
X0155580Y0032689D01*
X0155510Y0032718D01*
X0155042Y0032718D01*
X0153742Y0034018D01*
X0152493Y0034535D01*
X0151470Y0034535D01*
X0151486Y0034574D01*
X0151486Y0037697D01*
X0151044Y0038762D01*
X0150229Y0039578D01*
X0149163Y0040020D01*
X0141326Y0040020D01*
X0141334Y0040063D02*
X0156947Y0040063D01*
X0156947Y0039065D02*
X0150742Y0039065D01*
X0151333Y0038066D02*
X0156947Y0038066D01*
X0156947Y0037067D02*
X0151486Y0037067D01*
X0151486Y0036069D02*
X0156947Y0036069D01*
X0157322Y0035070D02*
X0151486Y0035070D01*
X0153612Y0034072D02*
X0158084Y0034072D01*
X0157809Y0033073D02*
X0154687Y0033073D01*
X0151817Y0031135D02*
X0153634Y0029318D01*
X0154834Y0029318D01*
X0155534Y0028618D01*
X0155534Y0028149D01*
X0156443Y0026240D01*
X0150393Y0026084D02*
X0137390Y0026084D01*
X0138932Y0027082D02*
X0150393Y0027082D01*
X0151817Y0031135D02*
X0144649Y0031135D01*
X0141444Y0024087D02*
X0130024Y0024087D01*
X0129364Y0023088D02*
X0139872Y0023088D01*
X0138939Y0022090D02*
X0128379Y0022090D01*
X0129027Y0021091D02*
X0138526Y0021091D01*
X0138184Y0020093D02*
X0134598Y0020093D01*
X0135756Y0019094D02*
X0138184Y0019094D01*
X0138217Y0018096D02*
X0136754Y0018096D01*
X0137753Y0017097D02*
X0138630Y0017097D01*
X0130159Y0033073D02*
X0129349Y0033073D01*
X0141334Y0041062D02*
X0156947Y0041062D01*
X0156947Y0042060D02*
X0141334Y0042060D01*
X0137934Y0045318D02*
X0138751Y0046135D01*
X0144649Y0046135D01*
X0144649Y0051135D02*
X0150322Y0051135D01*
X0152698Y0053512D01*
X0149860Y0057038D02*
X0135064Y0057038D01*
X0134066Y0058036D02*
X0159194Y0058036D01*
X0157616Y0057038D02*
X0155536Y0057038D01*
X0160207Y0061032D02*
X0192999Y0061032D01*
X0192999Y0062030D02*
X0161294Y0062030D01*
X0161701Y0063029D02*
X0192999Y0063029D01*
X0192999Y0064027D02*
X0161701Y0064027D01*
X0161701Y0065026D02*
X0192999Y0065026D01*
X0192999Y0066024D02*
X0161701Y0066024D01*
X0161701Y0067023D02*
X0192999Y0067023D01*
X0192999Y0068021D02*
X0161701Y0068021D01*
X0161565Y0069020D02*
X0192999Y0069020D01*
X0192999Y0070018D02*
X0160999Y0070018D01*
X0160171Y0071017D02*
X0192999Y0071017D01*
X0192999Y0072015D02*
X0161288Y0072015D01*
X0161701Y0073014D02*
X0192999Y0073014D01*
X0192999Y0074012D02*
X0161701Y0074012D01*
X0161701Y0075011D02*
X0192999Y0075011D01*
X0192999Y0076009D02*
X0164134Y0076009D01*
X0165132Y0077008D02*
X0192999Y0077008D01*
X0192999Y0078006D02*
X0166131Y0078006D01*
X0168878Y0079005D02*
X0192999Y0079005D01*
X0192999Y0080003D02*
X0169939Y0080003D01*
X0170566Y0081002D02*
X0192999Y0081002D01*
X0192999Y0082001D02*
X0170979Y0082001D01*
X0171015Y0082999D02*
X0192999Y0082999D01*
X0192999Y0083998D02*
X0170995Y0083998D01*
X0170581Y0084996D02*
X0192999Y0084996D01*
X0192999Y0085995D02*
X0169977Y0085995D01*
X0168970Y0086993D02*
X0192999Y0086993D01*
X0192999Y0087992D02*
X0161661Y0087992D01*
X0161661Y0086993D02*
X0163698Y0086993D01*
X0162690Y0085995D02*
X0161661Y0085995D01*
X0161661Y0084996D02*
X0162086Y0084996D01*
X0161673Y0083998D02*
X0161661Y0083998D01*
X0166334Y0083018D02*
X0161934Y0078618D01*
X0159434Y0078618D01*
X0156668Y0075852D01*
X0151517Y0075852D01*
X0151517Y0065852D02*
X0129324Y0065852D01*
X0127770Y0064298D01*
X0134219Y0062030D02*
X0141740Y0062030D01*
X0142828Y0061032D02*
X0134219Y0061032D01*
X0133996Y0060033D02*
X0192999Y0060033D01*
X0192999Y0059035D02*
X0133306Y0059035D01*
X0134981Y0048051D02*
X0135859Y0048051D01*
X0150594Y0043059D02*
X0156947Y0043059D01*
X0156947Y0044057D02*
X0151272Y0044057D01*
X0151486Y0045056D02*
X0152035Y0045056D01*
X0168221Y0046054D02*
X0192999Y0046054D01*
X0192999Y0045056D02*
X0168698Y0045056D01*
X0169046Y0044057D02*
X0192999Y0044057D01*
X0192999Y0043059D02*
X0169046Y0043059D01*
X0169046Y0042060D02*
X0192999Y0042060D01*
X0192999Y0041062D02*
X0169046Y0041062D01*
X0169046Y0040063D02*
X0192999Y0040063D01*
X0192999Y0039065D02*
X0169046Y0039065D01*
X0169046Y0038066D02*
X0192999Y0038066D01*
X0192999Y0037067D02*
X0169046Y0037067D01*
X0169046Y0036069D02*
X0192999Y0036069D01*
X0192999Y0035070D02*
X0168672Y0035070D01*
X0167739Y0034072D02*
X0192999Y0034072D01*
X0192999Y0033073D02*
X0167201Y0033073D01*
X0172605Y0032075D02*
X0175322Y0032075D01*
X0173975Y0031076D02*
X0173395Y0031076D01*
X0177277Y0028014D02*
X0175503Y0026240D01*
X0167639Y0026240D01*
X0168533Y0026346D01*
X0168533Y0027614D01*
X0163184Y0020093D02*
X0160898Y0020093D01*
X0176336Y0014102D02*
X0182348Y0014102D01*
X0183347Y0015100D02*
X0178264Y0015100D01*
X0179263Y0016099D02*
X0184542Y0016099D01*
X0186953Y0017097D02*
X0179759Y0017097D01*
X0180172Y0018096D02*
X0192999Y0018096D01*
X0192999Y0019094D02*
X0180205Y0019094D01*
X0180205Y0020093D02*
X0192999Y0020093D01*
X0192999Y0021091D02*
X0179863Y0021091D01*
X0179450Y0022090D02*
X0192999Y0022090D01*
X0192999Y0023088D02*
X0178517Y0023088D01*
X0179555Y0024087D02*
X0192999Y0024087D01*
X0192999Y0025085D02*
X0180712Y0025085D01*
X0181348Y0026084D02*
X0192999Y0026084D01*
X0192999Y0027082D02*
X0181762Y0027082D01*
X0181777Y0028081D02*
X0192999Y0028081D01*
X0192999Y0029079D02*
X0181707Y0029079D01*
X0181293Y0030078D02*
X0192999Y0030078D01*
X0192999Y0031076D02*
X0180579Y0031076D01*
X0179233Y0032075D02*
X0192999Y0032075D01*
X0192999Y0047053D02*
X0168859Y0047053D01*
X0169046Y0048051D02*
X0192999Y0048051D01*
X0192999Y0049050D02*
X0169046Y0049050D01*
X0169046Y0050048D02*
X0192999Y0050048D01*
X0192999Y0051047D02*
X0169046Y0051047D01*
X0169046Y0052045D02*
X0192999Y0052045D01*
X0192999Y0053044D02*
X0169046Y0053044D01*
X0169046Y0054042D02*
X0192999Y0054042D01*
X0192999Y0055041D02*
X0169046Y0055041D01*
X0168924Y0056039D02*
X0192999Y0056039D01*
X0192999Y0057038D02*
X0168378Y0057038D01*
X0166799Y0058036D02*
X0192999Y0058036D01*
X0192999Y0088990D02*
X0161538Y0088990D01*
X0160990Y0089989D02*
X0192999Y0089989D01*
X0192999Y0090987D02*
X0160021Y0090987D01*
X0161197Y0091986D02*
X0192999Y0091986D01*
X0192999Y0092984D02*
X0161611Y0092984D01*
X0161622Y0093983D02*
X0192999Y0093983D01*
X0192999Y0094981D02*
X0161622Y0094981D01*
X0161622Y0095980D02*
X0192999Y0095980D01*
X0192999Y0096978D02*
X0162000Y0096978D01*
X0162234Y0097977D02*
X0192999Y0097977D01*
X0192999Y0098975D02*
X0162234Y0098975D01*
X0162234Y0099974D02*
X0192999Y0099974D01*
X0192999Y0100972D02*
X0162234Y0100972D01*
X0162970Y0101971D02*
X0192999Y0101971D01*
X0192999Y0102969D02*
X0163383Y0102969D01*
X0163515Y0103968D02*
X0192999Y0103968D01*
X0192999Y0104966D02*
X0163515Y0104966D01*
X0163177Y0105965D02*
X0192999Y0105965D01*
X0192999Y0106963D02*
X0162709Y0106963D01*
X0161710Y0107962D02*
X0192999Y0107962D01*
X0192999Y0108960D02*
X0162247Y0108960D01*
X0163821Y0109959D02*
X0192999Y0109959D01*
X0192999Y0110957D02*
X0164365Y0110957D01*
X0164486Y0111956D02*
X0192999Y0111956D01*
X0192999Y0112954D02*
X0164486Y0112954D01*
X0164486Y0113953D02*
X0192999Y0113953D01*
X0192999Y0114951D02*
X0164486Y0114951D01*
X0164486Y0115950D02*
X0192999Y0115950D01*
X0192999Y0116948D02*
X0164486Y0116948D01*
X0164486Y0117947D02*
X0192999Y0117947D01*
X0192999Y0118945D02*
X0164486Y0118945D01*
X0164486Y0119944D02*
X0192999Y0119944D01*
X0192999Y0120942D02*
X0164210Y0120942D01*
X0163445Y0121941D02*
X0192999Y0121941D01*
X0192999Y0122939D02*
X0151566Y0122939D01*
X0151817Y0121941D02*
X0151852Y0121941D01*
X0152277Y0123938D02*
X0192999Y0123938D01*
X0192999Y0124936D02*
X0152988Y0124936D01*
X0153699Y0125935D02*
X0192999Y0125935D01*
X0192999Y0126934D02*
X0154410Y0126934D01*
X0155121Y0127932D02*
X0192999Y0127932D01*
X0192999Y0128931D02*
X0155832Y0128931D01*
X0156543Y0129929D02*
X0192999Y0129929D01*
X0192999Y0130928D02*
X0163325Y0130928D01*
X0163992Y0131926D02*
X0192999Y0131926D01*
X0192999Y0132925D02*
X0164198Y0132925D01*
X0164198Y0133923D02*
X0192999Y0133923D01*
X0192999Y0134922D02*
X0164198Y0134922D01*
X0164198Y0135920D02*
X0192999Y0135920D01*
X0192999Y0136919D02*
X0164198Y0136919D01*
X0164198Y0137917D02*
X0192999Y0137917D01*
X0192999Y0138916D02*
X0164198Y0138916D01*
X0164198Y0139914D02*
X0192999Y0139914D01*
X0192999Y0140913D02*
X0164198Y0140913D01*
X0164009Y0141911D02*
X0192999Y0141911D01*
X0192999Y0142910D02*
X0163366Y0142910D01*
X0162484Y0148901D02*
X0192999Y0148901D01*
X0192999Y0149899D02*
X0163506Y0149899D01*
X0163898Y0150898D02*
X0192999Y0150898D01*
X0192999Y0151896D02*
X0163898Y0151896D01*
X0163898Y0152895D02*
X0192999Y0152895D01*
X0192999Y0153893D02*
X0163898Y0153893D01*
X0163898Y0154892D02*
X0192999Y0154892D01*
X0192999Y0155890D02*
X0163898Y0155890D01*
X0163898Y0156889D02*
X0192999Y0156889D01*
X0192999Y0157887D02*
X0163898Y0157887D01*
X0163898Y0158886D02*
X0192999Y0158886D01*
X0192999Y0159884D02*
X0163895Y0159884D01*
X0163481Y0160883D02*
X0192999Y0160883D01*
X0192999Y0161881D02*
X0190636Y0161881D01*
X0192928Y0162880D02*
X0192999Y0162880D01*
X0186415Y0161881D02*
X0162341Y0161881D01*
X0154434Y0162880D02*
X0184123Y0162880D01*
X0183124Y0163878D02*
X0154434Y0163878D01*
X0154434Y0164877D02*
X0182126Y0164877D01*
X0181674Y0165875D02*
X0154434Y0165875D01*
X0154434Y0166874D02*
X0181261Y0166874D01*
X0180901Y0167872D02*
X0154434Y0167872D01*
X0154434Y0168871D02*
X0180901Y0168871D01*
X0180901Y0169870D02*
X0154434Y0169870D01*
X0154434Y0170868D02*
X0180939Y0170868D01*
X0181352Y0171867D02*
X0154434Y0171867D01*
X0154434Y0172865D02*
X0181766Y0172865D01*
X0182346Y0173864D02*
X0154447Y0173864D01*
X0154434Y0174862D02*
X0183345Y0174862D01*
X0184537Y0175861D02*
X0154075Y0175861D01*
X0153301Y0176859D02*
X0186948Y0176859D01*
X0157061Y0155361D02*
X0151034Y0157289D01*
X0151034Y0174318D01*
X0149034Y0176218D01*
X0049534Y0176218D01*
X0047834Y0174518D01*
X0047834Y0159318D01*
X0051026Y0155890D02*
X0089518Y0155890D01*
X0089047Y0156889D02*
X0051894Y0156889D01*
X0052308Y0157887D02*
X0088633Y0157887D01*
X0088519Y0158886D02*
X0052515Y0158886D01*
X0052515Y0159884D02*
X0088519Y0159884D01*
X0088671Y0160883D02*
X0052252Y0160883D01*
X0051839Y0161881D02*
X0089085Y0161881D01*
X0089611Y0162880D02*
X0051234Y0162880D01*
X0051234Y0163878D02*
X0088991Y0163878D01*
X0087992Y0164877D02*
X0051234Y0164877D01*
X0051234Y0165875D02*
X0087566Y0165875D01*
X0087152Y0166874D02*
X0051234Y0166874D01*
X0051234Y0167872D02*
X0086809Y0167872D01*
X0086809Y0168871D02*
X0051234Y0168871D01*
X0051234Y0169870D02*
X0086809Y0169870D01*
X0086865Y0170868D02*
X0051234Y0170868D01*
X0051234Y0171867D02*
X0087278Y0171867D01*
X0099250Y0162880D02*
X0113762Y0162880D01*
X0113834Y0162952D02*
X0111938Y0161056D01*
X0110913Y0158580D01*
X0110913Y0155899D01*
X0111600Y0154239D01*
X0110913Y0152580D01*
X0110913Y0149899D01*
X0111938Y0147422D01*
X0113834Y0145527D01*
X0116311Y0144501D01*
X0118992Y0144501D01*
X0121468Y0145527D01*
X0123364Y0147422D01*
X0124390Y0149899D01*
X0124390Y0152580D01*
X0123702Y0154239D01*
X0124390Y0155899D01*
X0124390Y0158580D01*
X0123364Y0161056D01*
X0121468Y0162952D01*
X0118992Y0163978D01*
X0116311Y0163978D01*
X0113834Y0162952D01*
X0112763Y0161881D02*
X0099776Y0161881D01*
X0100190Y0160883D02*
X0111867Y0160883D01*
X0111453Y0159884D02*
X0100343Y0159884D01*
X0100343Y0158886D02*
X0111039Y0158886D01*
X0110913Y0157887D02*
X0100228Y0157887D01*
X0099815Y0156889D02*
X0110913Y0156889D01*
X0110916Y0155890D02*
X0099343Y0155890D01*
X0098345Y0154892D02*
X0111330Y0154892D01*
X0111457Y0153893D02*
X0096733Y0153893D01*
X0092128Y0153893D02*
X0038394Y0153893D01*
X0038502Y0154892D02*
X0046288Y0154892D01*
X0044642Y0155890D02*
X0039501Y0155890D01*
X0039972Y0156889D02*
X0043773Y0156889D01*
X0043360Y0157887D02*
X0040386Y0157887D01*
X0040500Y0158886D02*
X0043153Y0158886D01*
X0043153Y0159884D02*
X0040500Y0159884D01*
X0040347Y0160883D02*
X0043415Y0160883D01*
X0043829Y0161881D02*
X0039934Y0161881D01*
X0039407Y0162880D02*
X0044434Y0162880D01*
X0044434Y0163878D02*
X0039677Y0163878D01*
X0040675Y0164877D02*
X0044434Y0164877D01*
X0044434Y0165875D02*
X0041160Y0165875D01*
X0041574Y0166874D02*
X0044434Y0166874D01*
X0044434Y0167872D02*
X0041958Y0167872D01*
X0041958Y0168871D02*
X0044434Y0168871D01*
X0044434Y0169870D02*
X0041958Y0169870D01*
X0041944Y0170868D02*
X0044434Y0170868D01*
X0044434Y0171867D02*
X0041531Y0171867D01*
X0041117Y0172865D02*
X0044434Y0172865D01*
X0044434Y0173864D02*
X0040571Y0173864D01*
X0039572Y0174862D02*
X0044434Y0174862D01*
X0044710Y0175861D02*
X0038462Y0175861D01*
X0036052Y0176859D02*
X0045367Y0176859D01*
X0032616Y0176859D02*
X0022634Y0176859D01*
X0022634Y0175861D02*
X0030205Y0175861D01*
X0029095Y0174862D02*
X0022634Y0174862D01*
X0022634Y0173864D02*
X0028097Y0173864D01*
X0027550Y0172865D02*
X0022634Y0172865D01*
X0022634Y0171867D02*
X0027137Y0171867D01*
X0026723Y0170868D02*
X0022634Y0170868D01*
X0022634Y0169870D02*
X0026709Y0169870D01*
X0026709Y0168871D02*
X0022634Y0168871D01*
X0022634Y0167872D02*
X0026709Y0167872D01*
X0027094Y0166874D02*
X0022634Y0166874D01*
X0022634Y0165875D02*
X0027507Y0165875D01*
X0027992Y0164877D02*
X0022634Y0164877D01*
X0022634Y0163878D02*
X0028991Y0163878D01*
X0029769Y0162880D02*
X0022634Y0162880D01*
X0022634Y0161881D02*
X0029243Y0161881D01*
X0028829Y0160883D02*
X0022634Y0160883D01*
X0022634Y0159884D02*
X0028676Y0159884D01*
X0028676Y0158886D02*
X0022634Y0158886D01*
X0022634Y0157887D02*
X0028790Y0157887D01*
X0029204Y0156889D02*
X0022634Y0156889D01*
X0022634Y0155890D02*
X0029676Y0155890D01*
X0030674Y0154892D02*
X0022634Y0154892D01*
X0022634Y0153893D02*
X0030782Y0153893D01*
X0029784Y0152895D02*
X0022634Y0152895D01*
X0022634Y0151896D02*
X0029249Y0151896D01*
X0028835Y0150898D02*
X0022634Y0150898D01*
X0022634Y0149899D02*
X0028676Y0149899D01*
X0028676Y0148901D02*
X0022634Y0148901D01*
X0022634Y0147902D02*
X0028784Y0147902D01*
X0029198Y0146904D02*
X0022634Y0146904D01*
X0022634Y0145905D02*
X0029661Y0145905D01*
X0030659Y0144907D02*
X0022634Y0144907D01*
X0022634Y0143908D02*
X0030797Y0143908D01*
X0029799Y0142910D02*
X0022634Y0142910D01*
X0022634Y0141911D02*
X0029255Y0141911D01*
X0028841Y0140913D02*
X0022634Y0140913D01*
X0022634Y0139914D02*
X0028676Y0139914D01*
X0028676Y0138916D02*
X0022634Y0138916D01*
X0022634Y0137917D02*
X0028778Y0137917D01*
X0029192Y0136919D02*
X0022634Y0136919D01*
X0022634Y0135920D02*
X0029646Y0135920D01*
X0030645Y0134922D02*
X0022634Y0134922D01*
X0022634Y0133923D02*
X0032214Y0133923D01*
X0036962Y0133923D02*
X0090655Y0133923D01*
X0090487Y0134922D02*
X0038532Y0134922D01*
X0039530Y0135920D02*
X0089489Y0135920D01*
X0089034Y0136919D02*
X0039985Y0136919D01*
X0040398Y0137917D02*
X0088621Y0137917D01*
X0088519Y0138916D02*
X0040500Y0138916D01*
X0040500Y0139914D02*
X0088519Y0139914D01*
X0088684Y0140913D02*
X0040335Y0140913D01*
X0039921Y0141911D02*
X0089097Y0141911D01*
X0089641Y0142910D02*
X0039378Y0142910D01*
X0038379Y0143908D02*
X0090640Y0143908D01*
X0092425Y0144907D02*
X0038517Y0144907D01*
X0039515Y0145905D02*
X0113456Y0145905D01*
X0112457Y0146904D02*
X0039979Y0146904D01*
X0040392Y0147902D02*
X0111740Y0147902D01*
X0111326Y0148901D02*
X0040500Y0148901D01*
X0040500Y0149899D02*
X0110913Y0149899D01*
X0110913Y0150898D02*
X0040341Y0150898D01*
X0039928Y0151896D02*
X0110913Y0151896D01*
X0111043Y0152895D02*
X0039393Y0152895D01*
X0049380Y0154892D02*
X0090517Y0154892D01*
X0096436Y0144907D02*
X0115331Y0144907D01*
X0119972Y0144907D02*
X0126577Y0144907D01*
X0126577Y0145905D02*
X0121847Y0145905D01*
X0122845Y0146904D02*
X0126579Y0146904D01*
X0126577Y0146902D02*
X0126577Y0137977D01*
X0132888Y0131665D01*
X0141814Y0131665D01*
X0148125Y0137977D01*
X0148125Y0146902D01*
X0141814Y0153213D01*
X0132888Y0153213D01*
X0126577Y0146902D01*
X0127577Y0147902D02*
X0123563Y0147902D01*
X0123976Y0148901D02*
X0128576Y0148901D01*
X0129574Y0149899D02*
X0124390Y0149899D01*
X0124390Y0150898D02*
X0130573Y0150898D01*
X0131571Y0151896D02*
X0124390Y0151896D01*
X0124259Y0152895D02*
X0132570Y0152895D01*
X0133011Y0159301D02*
X0130534Y0160327D01*
X0128638Y0162222D01*
X0127613Y0164699D01*
X0127613Y0167380D01*
X0128638Y0169856D01*
X0130534Y0171752D01*
X0133011Y0172778D01*
X0135692Y0172778D01*
X0137351Y0172091D01*
X0139011Y0172778D01*
X0141692Y0172778D01*
X0144168Y0171752D01*
X0146064Y0169856D01*
X0147090Y0167380D01*
X0147090Y0164699D01*
X0146064Y0162222D01*
X0144168Y0160327D01*
X0141692Y0159301D01*
X0139011Y0159301D01*
X0137351Y0159988D01*
X0135692Y0159301D01*
X0133011Y0159301D01*
X0131602Y0159884D02*
X0123849Y0159884D01*
X0124263Y0158886D02*
X0147634Y0158886D01*
X0147634Y0159884D02*
X0143100Y0159884D01*
X0144724Y0160883D02*
X0147634Y0160883D01*
X0147634Y0161881D02*
X0145723Y0161881D01*
X0146336Y0162880D02*
X0147634Y0162880D01*
X0147634Y0163878D02*
X0146750Y0163878D01*
X0147090Y0164877D02*
X0147634Y0164877D01*
X0147634Y0165875D02*
X0147090Y0165875D01*
X0147090Y0166874D02*
X0147634Y0166874D01*
X0147634Y0167872D02*
X0146886Y0167872D01*
X0146472Y0168871D02*
X0147634Y0168871D01*
X0147634Y0169870D02*
X0146051Y0169870D01*
X0145052Y0170868D02*
X0147634Y0170868D01*
X0147634Y0171867D02*
X0143892Y0171867D01*
X0130810Y0171867D02*
X0101589Y0171867D01*
X0102003Y0170868D02*
X0129650Y0170868D01*
X0128652Y0169870D02*
X0102058Y0169870D01*
X0102058Y0168871D02*
X0128230Y0168871D01*
X0127817Y0167872D02*
X0102058Y0167872D01*
X0101715Y0166874D02*
X0127613Y0166874D01*
X0127613Y0165875D02*
X0101302Y0165875D01*
X0100875Y0164877D02*
X0127613Y0164877D01*
X0127952Y0163878D02*
X0119232Y0163878D01*
X0121540Y0162880D02*
X0128366Y0162880D01*
X0128979Y0161881D02*
X0122539Y0161881D01*
X0123436Y0160883D02*
X0129978Y0160883D01*
X0124390Y0157887D02*
X0147634Y0157887D01*
X0147634Y0156889D02*
X0124390Y0156889D01*
X0124386Y0155890D02*
X0147930Y0155890D01*
X0148603Y0154892D02*
X0123973Y0154892D01*
X0123846Y0153893D02*
X0150224Y0153893D01*
X0150224Y0152895D02*
X0142132Y0152895D01*
X0143131Y0151896D02*
X0150224Y0151896D01*
X0150224Y0150898D02*
X0144130Y0150898D01*
X0145128Y0149899D02*
X0150617Y0149899D01*
X0151639Y0148901D02*
X0146127Y0148901D01*
X0147125Y0147902D02*
X0192999Y0147902D01*
X0192999Y0146904D02*
X0148124Y0146904D01*
X0148125Y0145905D02*
X0192999Y0145905D01*
X0192999Y0144907D02*
X0148125Y0144907D01*
X0148125Y0143908D02*
X0192999Y0143908D01*
X0157361Y0136939D02*
X0147469Y0123047D01*
X0135420Y0123047D01*
X0139947Y0128931D02*
X0147485Y0128931D01*
X0148196Y0129929D02*
X0131070Y0129929D01*
X0130485Y0130928D02*
X0148907Y0130928D01*
X0149618Y0131926D02*
X0142075Y0131926D01*
X0143073Y0132925D02*
X0150329Y0132925D01*
X0150524Y0133923D02*
X0144072Y0133923D01*
X0145070Y0134922D02*
X0150524Y0134922D01*
X0150524Y0135920D02*
X0146069Y0135920D01*
X0147067Y0136919D02*
X0150524Y0136919D01*
X0150524Y0137917D02*
X0148066Y0137917D01*
X0148125Y0138916D02*
X0150524Y0138916D01*
X0150524Y0139914D02*
X0148125Y0139914D01*
X0148125Y0140913D02*
X0150524Y0140913D01*
X0150714Y0141911D02*
X0148125Y0141911D01*
X0148125Y0142910D02*
X0151357Y0142910D01*
X0146774Y0127932D02*
X0141335Y0127932D01*
X0141803Y0126934D02*
X0146063Y0126934D01*
X0147054Y0116155D02*
X0147447Y0115762D01*
X0157649Y0115762D01*
X0155957Y0107962D02*
X0153504Y0107962D01*
X0153504Y0106963D02*
X0154959Y0106963D01*
X0154491Y0105965D02*
X0153504Y0105965D01*
X0153504Y0104966D02*
X0154153Y0104966D01*
X0154153Y0103968D02*
X0153504Y0103968D01*
X0153504Y0102969D02*
X0154284Y0102969D01*
X0154698Y0101971D02*
X0153504Y0101971D01*
X0152505Y0096918D02*
X0151439Y0095852D01*
X0152505Y0096918D02*
X0157534Y0096918D01*
X0158834Y0098218D01*
X0158834Y0104218D01*
X0147054Y0104958D02*
X0130994Y0104958D01*
X0120977Y0095541D01*
X0121083Y0095047D01*
X0109785Y0095047D01*
X0109588Y0094850D01*
X0098919Y0094850D01*
X0094431Y0099339D01*
X0094431Y0089339D02*
X0100113Y0089339D01*
X0102234Y0087218D01*
X0124924Y0087218D01*
X0125808Y0086335D01*
X0125808Y0087892D01*
X0134034Y0096118D01*
X0138234Y0096118D01*
X0138534Y0096418D01*
X0138750Y0087047D02*
X0137005Y0086335D01*
X0138750Y0087047D02*
X0152061Y0087047D01*
X0151478Y0085852D01*
X0140134Y0076718D02*
X0138911Y0075495D01*
X0127770Y0075495D01*
X0127257Y0075495D01*
X0120234Y0082518D01*
X0097610Y0082518D01*
X0094431Y0079339D01*
X0094431Y0069339D02*
X0098560Y0069339D01*
X0104668Y0075446D01*
X0094431Y0059339D02*
X0078691Y0059339D01*
X0078683Y0059331D01*
X0077502Y0058150D01*
X0077502Y0051150D01*
X0073342Y0049431D02*
X0067480Y0049431D01*
X0067705Y0049974D01*
X0067705Y0052326D01*
X0067407Y0053044D02*
X0073415Y0053044D01*
X0073171Y0054042D02*
X0066994Y0054042D01*
X0066262Y0055041D02*
X0072467Y0055041D01*
X0072233Y0056039D02*
X0065264Y0056039D01*
X0066042Y0057038D02*
X0072233Y0057038D01*
X0072233Y0058036D02*
X0066902Y0058036D01*
X0067316Y0059035D02*
X0072233Y0059035D01*
X0072233Y0060033D02*
X0067705Y0060033D01*
X0067705Y0061032D02*
X0072233Y0061032D01*
X0072233Y0062030D02*
X0067705Y0062030D01*
X0067413Y0063029D02*
X0072233Y0063029D01*
X0072635Y0064027D02*
X0067000Y0064027D01*
X0066277Y0065026D02*
X0073384Y0065026D01*
X0072555Y0066024D02*
X0065279Y0066024D01*
X0066027Y0067023D02*
X0072233Y0067023D01*
X0072233Y0068021D02*
X0066896Y0068021D01*
X0067310Y0069020D02*
X0072233Y0069020D01*
X0072233Y0070018D02*
X0067705Y0070018D01*
X0067705Y0071017D02*
X0072233Y0071017D01*
X0072233Y0072015D02*
X0067705Y0072015D01*
X0067420Y0073014D02*
X0072233Y0073014D01*
X0072233Y0074012D02*
X0067006Y0074012D01*
X0066292Y0075011D02*
X0072547Y0075011D01*
X0073365Y0076009D02*
X0065294Y0076009D01*
X0056793Y0067789D02*
X0058432Y0066150D01*
X0056781Y0064498D01*
X0055881Y0062326D01*
X0055881Y0059974D01*
X0056781Y0057801D01*
X0058432Y0056150D01*
X0056793Y0054510D01*
X0055142Y0056161D01*
X0052969Y0057061D01*
X0050617Y0057061D01*
X0048444Y0056161D01*
X0046781Y0054498D01*
X0045881Y0052326D01*
X0045881Y0049974D01*
X0046781Y0047801D01*
X0048432Y0046150D01*
X0046781Y0044498D01*
X0045881Y0042326D01*
X0045881Y0039974D01*
X0046781Y0037801D01*
X0048444Y0036138D01*
X0050617Y0035238D01*
X0052969Y0035238D01*
X0055142Y0036138D01*
X0056793Y0037789D01*
X0058444Y0036138D01*
X0060617Y0035238D01*
X0062969Y0035238D01*
X0065142Y0036138D01*
X0066805Y0037801D01*
X0067705Y0039974D01*
X0067705Y0042326D01*
X0067578Y0042631D01*
X0081524Y0042631D01*
X0082773Y0043149D01*
X0085542Y0045918D01*
X0089491Y0045918D01*
X0091070Y0044339D01*
X0089419Y0042687D01*
X0088519Y0040515D01*
X0088519Y0038163D01*
X0089419Y0035990D01*
X0091070Y0034339D01*
X0089419Y0032687D01*
X0088519Y0030515D01*
X0088519Y0028163D01*
X0088776Y0027543D01*
X0087708Y0027100D01*
X0086751Y0026144D01*
X0082926Y0022318D01*
X0076892Y0022318D01*
X0077684Y0023110D01*
X0078126Y0024176D01*
X0078126Y0024902D01*
X0079252Y0024902D01*
X0079324Y0024876D01*
X0079925Y0024902D01*
X0080527Y0024902D01*
X0080598Y0024932D01*
X0080675Y0024935D01*
X0081221Y0025190D01*
X0081777Y0025420D01*
X0081831Y0025474D01*
X0081901Y0025507D01*
X0082308Y0025951D01*
X0082734Y0026376D01*
X0082763Y0026447D01*
X0083627Y0027390D01*
X0084034Y0027390D01*
X0085688Y0028075D01*
X0086953Y0029341D01*
X0087639Y0030995D01*
X0087639Y0032785D01*
X0086953Y0034439D01*
X0085688Y0035705D01*
X0084034Y0036390D01*
X0082243Y0036390D01*
X0080590Y0035705D01*
X0079324Y0034439D01*
X0078639Y0032785D01*
X0078639Y0032012D01*
X0078355Y0031702D01*
X0078126Y0031702D01*
X0078126Y0032428D01*
X0077684Y0033494D01*
X0076869Y0034310D01*
X0075803Y0034752D01*
X0068350Y0034752D01*
X0067284Y0034310D01*
X0066478Y0033504D01*
X0065672Y0034310D01*
X0064606Y0034752D01*
X0057153Y0034752D01*
X0056087Y0034310D01*
X0055271Y0033494D01*
X0054958Y0032739D01*
X0039549Y0032739D01*
X0037949Y0034339D01*
X0039600Y0035990D01*
X0040500Y0038163D01*
X0040500Y0040515D01*
X0039600Y0042687D01*
X0037949Y0044339D01*
X0039600Y0045990D01*
X0040500Y0048163D01*
X0040500Y0050515D01*
X0039600Y0052687D01*
X0037949Y0054339D01*
X0039600Y0055990D01*
X0040500Y0058163D01*
X0040500Y0060515D01*
X0039600Y0062687D01*
X0037949Y0064339D01*
X0039600Y0065990D01*
X0040500Y0068163D01*
X0040500Y0070515D01*
X0039600Y0072687D01*
X0037949Y0074339D01*
X0039600Y0075990D01*
X0040304Y0077690D01*
X0040331Y0077451D01*
X0040323Y0076991D01*
X0040404Y0076785D01*
X0040428Y0076564D01*
X0040650Y0076161D01*
X0040819Y0075733D01*
X0040973Y0075573D01*
X0041080Y0075379D01*
X0041439Y0075091D01*
X0041759Y0074760D01*
X0041962Y0074671D01*
X0045881Y0071530D01*
X0045881Y0069974D01*
X0046781Y0067801D01*
X0048444Y0066138D01*
X0050617Y0065238D01*
X0052969Y0065238D01*
X0055142Y0066138D01*
X0056793Y0067789D01*
X0056027Y0067023D02*
X0057559Y0067023D01*
X0058307Y0066024D02*
X0054868Y0066024D01*
X0056586Y0064027D02*
X0038260Y0064027D01*
X0038636Y0065026D02*
X0057309Y0065026D01*
X0056172Y0063029D02*
X0039259Y0063029D01*
X0039872Y0062030D02*
X0055881Y0062030D01*
X0055881Y0061032D02*
X0040286Y0061032D01*
X0040500Y0060033D02*
X0055881Y0060033D01*
X0056270Y0059035D02*
X0040500Y0059035D01*
X0040448Y0058036D02*
X0056684Y0058036D01*
X0057544Y0057038D02*
X0053026Y0057038D01*
X0055264Y0056039D02*
X0058322Y0056039D01*
X0057323Y0055041D02*
X0056262Y0055041D01*
X0051793Y0051150D02*
X0056911Y0046031D01*
X0080847Y0046031D01*
X0084134Y0049318D01*
X0094410Y0049318D01*
X0094431Y0049339D01*
X0094580Y0049488D01*
X0107029Y0049488D01*
X0100580Y0046054D02*
X0099469Y0046054D01*
X0098508Y0045056D02*
X0100872Y0045056D01*
X0101660Y0044057D02*
X0098073Y0044057D01*
X0090789Y0044057D02*
X0083681Y0044057D01*
X0084680Y0045056D02*
X0090353Y0045056D01*
X0089790Y0043059D02*
X0082555Y0043059D01*
X0088745Y0041062D02*
X0067705Y0041062D01*
X0067705Y0042060D02*
X0089159Y0042060D01*
X0088519Y0040063D02*
X0067705Y0040063D01*
X0067328Y0039065D02*
X0088519Y0039065D01*
X0088559Y0038066D02*
X0066915Y0038066D01*
X0066071Y0037067D02*
X0088973Y0037067D01*
X0089386Y0036069D02*
X0084808Y0036069D01*
X0086322Y0035070D02*
X0090338Y0035070D01*
X0090804Y0034072D02*
X0087105Y0034072D01*
X0087519Y0033073D02*
X0089805Y0033073D01*
X0089165Y0032075D02*
X0087639Y0032075D01*
X0087639Y0031076D02*
X0088752Y0031076D01*
X0088519Y0030078D02*
X0087259Y0030078D01*
X0086692Y0029079D02*
X0088519Y0029079D01*
X0088553Y0028081D02*
X0085694Y0028081D01*
X0087690Y0027082D02*
X0083345Y0027082D01*
X0082441Y0026084D02*
X0086691Y0026084D01*
X0085693Y0025085D02*
X0080997Y0025085D01*
X0079134Y0024018D02*
X0076734Y0021618D01*
X0056334Y0021618D01*
X0054434Y0023518D01*
X0054134Y0023518D01*
X0054867Y0024087D02*
X0048767Y0024087D01*
X0048839Y0024015D02*
X0049063Y0023473D01*
X0051852Y0022318D01*
X0056064Y0022318D01*
X0055271Y0023110D01*
X0054830Y0024176D01*
X0054830Y0025939D01*
X0045985Y0025939D01*
X0047573Y0025281D01*
X0048839Y0024015D01*
X0049992Y0023088D02*
X0055294Y0023088D01*
X0054830Y0025085D02*
X0047768Y0025085D01*
X0044062Y0025939D02*
X0042475Y0025281D01*
X0041209Y0024015D01*
X0040524Y0022361D01*
X0040524Y0020571D01*
X0041209Y0018917D01*
X0042475Y0017651D01*
X0044129Y0016966D01*
X0045919Y0016966D01*
X0046461Y0017191D01*
X0050029Y0015713D01*
X0050499Y0015518D01*
X0050499Y0015518D01*
X0050499Y0015518D01*
X0051179Y0015518D01*
X0085010Y0015518D01*
X0086260Y0016036D01*
X0087216Y0016992D01*
X0088519Y0018295D01*
X0088519Y0018163D01*
X0089419Y0015990D01*
X0089832Y0015577D01*
X0088070Y0013815D01*
X0086909Y0011013D01*
X0086909Y0007979D01*
X0087515Y0006518D01*
X0041353Y0006518D01*
X0041958Y0007979D01*
X0041958Y0011013D01*
X0040798Y0013815D01*
X0039111Y0015501D01*
X0039600Y0015990D01*
X0040500Y0018163D01*
X0040500Y0020515D01*
X0039600Y0022687D01*
X0037949Y0024339D01*
X0039549Y0025939D01*
X0044062Y0025939D01*
X0042279Y0025085D02*
X0038696Y0025085D01*
X0038200Y0024087D02*
X0041280Y0024087D01*
X0040825Y0023088D02*
X0039199Y0023088D01*
X0039847Y0022090D02*
X0040524Y0022090D01*
X0040524Y0021091D02*
X0040261Y0021091D01*
X0040500Y0020093D02*
X0040722Y0020093D01*
X0040500Y0019094D02*
X0041135Y0019094D01*
X0040472Y0018096D02*
X0042030Y0018096D01*
X0043812Y0017097D02*
X0040059Y0017097D01*
X0039645Y0016099D02*
X0049097Y0016099D01*
X0046687Y0017097D02*
X0046235Y0017097D01*
X0045024Y0021466D02*
X0051176Y0018918D01*
X0084334Y0018918D01*
X0089634Y0024218D01*
X0101283Y0024218D01*
X0104273Y0021228D01*
X0104273Y0010992D01*
X0106665Y0007112D02*
X0181260Y0007112D01*
X0192508Y0016099D02*
X0192999Y0016099D01*
X0192999Y0017097D02*
X0190098Y0017097D01*
X0122383Y0108827D02*
X0109785Y0108827D01*
X0109588Y0108630D01*
X0106242Y0108630D01*
X0102505Y0109693D01*
X0102580Y0117488D02*
X0094431Y0109339D01*
X0102580Y0117488D02*
X0109785Y0117488D01*
X0121202Y0117488D01*
X0129782Y0117488D01*
X0135420Y0111850D01*
X0122383Y0108827D02*
X0120977Y0109320D01*
X0115732Y0121941D02*
X0115255Y0121941D01*
X0114284Y0122939D02*
X0116704Y0122939D01*
X0116528Y0125935D02*
X0114459Y0125935D01*
X0115305Y0126934D02*
X0115683Y0126934D01*
X0121202Y0131268D02*
X0109785Y0131268D01*
X0103932Y0130928D02*
X0100171Y0130928D01*
X0100343Y0129929D02*
X0103932Y0129929D01*
X0103932Y0128931D02*
X0100343Y0128931D01*
X0100247Y0127932D02*
X0103932Y0127932D01*
X0104266Y0126934D02*
X0099833Y0126934D01*
X0099388Y0125935D02*
X0105111Y0125935D01*
X0105286Y0122939D02*
X0099190Y0122939D01*
X0099752Y0121941D02*
X0104315Y0121941D01*
X0103932Y0120942D02*
X0100165Y0120942D01*
X0098192Y0123938D02*
X0123395Y0123938D01*
X0123395Y0124936D02*
X0098389Y0124936D01*
X0099758Y0131926D02*
X0103932Y0131926D01*
X0103932Y0132925D02*
X0099205Y0132925D01*
X0098207Y0133923D02*
X0103932Y0133923D01*
X0103984Y0134922D02*
X0098374Y0134922D01*
X0099373Y0135920D02*
X0104431Y0135920D01*
X0105768Y0136919D02*
X0099827Y0136919D01*
X0100241Y0137917D02*
X0126637Y0137917D01*
X0126577Y0138916D02*
X0100343Y0138916D01*
X0100343Y0139914D02*
X0126577Y0139914D01*
X0126577Y0140913D02*
X0100178Y0140913D01*
X0099764Y0141911D02*
X0126577Y0141911D01*
X0126577Y0142910D02*
X0099220Y0142910D01*
X0098222Y0143908D02*
X0126577Y0143908D01*
X0127635Y0136919D02*
X0125219Y0136919D01*
X0126557Y0135920D02*
X0128634Y0135920D01*
X0129632Y0134922D02*
X0127004Y0134922D01*
X0127489Y0133923D02*
X0130631Y0133923D01*
X0131629Y0132925D02*
X0128488Y0132925D01*
X0129486Y0131926D02*
X0132628Y0131926D01*
X0127895Y0128709D02*
X0127895Y0124772D01*
X0127895Y0128709D02*
X0125336Y0131268D01*
X0121202Y0131268D01*
X0117185Y0136919D02*
X0113802Y0136919D01*
X0115139Y0135920D02*
X0115848Y0135920D01*
X0137100Y0159884D02*
X0137602Y0159884D01*
X0116071Y0163878D02*
X0099877Y0163878D01*
X0089656Y0132925D02*
X0022634Y0132925D01*
X0022634Y0131926D02*
X0089104Y0131926D01*
X0088690Y0130928D02*
X0022634Y0130928D01*
X0022634Y0129929D02*
X0088519Y0129929D01*
X0088519Y0128931D02*
X0022634Y0128931D01*
X0022634Y0127932D02*
X0088614Y0127932D01*
X0089028Y0126934D02*
X0022634Y0126934D01*
X0022634Y0125935D02*
X0089474Y0125935D01*
X0060482Y0099974D02*
X0040500Y0099974D01*
X0040500Y0098975D02*
X0059233Y0098975D01*
X0058559Y0097977D02*
X0040423Y0097977D01*
X0040009Y0096978D02*
X0058146Y0096978D01*
X0058104Y0095980D02*
X0039590Y0095980D01*
X0038591Y0094981D02*
X0058148Y0094981D01*
X0058440Y0093983D02*
X0038305Y0093983D01*
X0039303Y0092984D02*
X0057829Y0092984D01*
X0056831Y0091986D02*
X0039891Y0091986D01*
X0040304Y0090987D02*
X0055832Y0090987D01*
X0054834Y0089989D02*
X0040500Y0089989D01*
X0040500Y0088990D02*
X0053835Y0088990D01*
X0052837Y0087992D02*
X0040429Y0087992D01*
X0040016Y0086993D02*
X0041045Y0086993D01*
X0040046Y0085995D02*
X0039602Y0085995D01*
X0039617Y0084996D02*
X0038606Y0084996D01*
X0038290Y0083998D02*
X0039334Y0083998D01*
X0039334Y0082999D02*
X0039288Y0082999D01*
X0043834Y0083418D02*
X0043734Y0077609D01*
X0051793Y0071150D01*
X0047559Y0067023D02*
X0040028Y0067023D01*
X0040441Y0068021D02*
X0046690Y0068021D01*
X0046276Y0069020D02*
X0040500Y0069020D01*
X0040500Y0070018D02*
X0045881Y0070018D01*
X0045881Y0071017D02*
X0040292Y0071017D01*
X0039878Y0072015D02*
X0045276Y0072015D01*
X0044030Y0073014D02*
X0039273Y0073014D01*
X0038275Y0074012D02*
X0042784Y0074012D01*
X0041516Y0075011D02*
X0038621Y0075011D01*
X0039608Y0076009D02*
X0040710Y0076009D01*
X0040323Y0077008D02*
X0040022Y0077008D01*
X0039614Y0066024D02*
X0048718Y0066024D01*
X0050560Y0057038D02*
X0040034Y0057038D01*
X0039620Y0056039D02*
X0048322Y0056039D01*
X0047323Y0055041D02*
X0038651Y0055041D01*
X0038245Y0054042D02*
X0046592Y0054042D01*
X0046179Y0053044D02*
X0039244Y0053044D01*
X0039866Y0052045D02*
X0045881Y0052045D01*
X0045881Y0051047D02*
X0040280Y0051047D01*
X0040500Y0050048D02*
X0045881Y0050048D01*
X0046264Y0049050D02*
X0040500Y0049050D01*
X0040454Y0048051D02*
X0046677Y0048051D01*
X0047529Y0047053D02*
X0040040Y0047053D01*
X0039627Y0046054D02*
X0048337Y0046054D01*
X0047338Y0045056D02*
X0038666Y0045056D01*
X0038230Y0044057D02*
X0046598Y0044057D01*
X0046185Y0043059D02*
X0039229Y0043059D01*
X0039860Y0042060D02*
X0045881Y0042060D01*
X0045881Y0041062D02*
X0040273Y0041062D01*
X0040500Y0040063D02*
X0045881Y0040063D01*
X0046258Y0039065D02*
X0040500Y0039065D01*
X0040460Y0038066D02*
X0046671Y0038066D01*
X0047514Y0037067D02*
X0040046Y0037067D01*
X0039633Y0036069D02*
X0048610Y0036069D01*
X0054976Y0036069D02*
X0058610Y0036069D01*
X0057514Y0037067D02*
X0056071Y0037067D01*
X0055849Y0034072D02*
X0038215Y0034072D01*
X0038681Y0035070D02*
X0079955Y0035070D01*
X0079172Y0034072D02*
X0077107Y0034072D01*
X0077859Y0033073D02*
X0078758Y0033073D01*
X0078639Y0032075D02*
X0078126Y0032075D01*
X0079851Y0028302D02*
X0083139Y0031890D01*
X0079851Y0028302D02*
X0072076Y0028302D01*
X0078089Y0024087D02*
X0084694Y0024087D01*
X0083696Y0023088D02*
X0077662Y0023088D01*
X0086323Y0016099D02*
X0089374Y0016099D01*
X0089355Y0015100D02*
X0039512Y0015100D01*
X0040511Y0014102D02*
X0088357Y0014102D01*
X0087775Y0013103D02*
X0041092Y0013103D01*
X0041506Y0012105D02*
X0087362Y0012105D01*
X0086948Y0011106D02*
X0041920Y0011106D01*
X0041958Y0010108D02*
X0086909Y0010108D01*
X0086909Y0009109D02*
X0041958Y0009109D01*
X0041958Y0008111D02*
X0086909Y0008111D01*
X0087269Y0007112D02*
X0041599Y0007112D01*
X0034588Y0029339D02*
X0059843Y0029339D01*
X0060880Y0028302D01*
X0055097Y0033073D02*
X0039214Y0033073D01*
X0064976Y0036069D02*
X0081469Y0036069D01*
X0073342Y0049431D02*
X0073002Y0050254D01*
X0073002Y0052045D01*
X0073002Y0051047D02*
X0067705Y0051047D01*
X0067705Y0050048D02*
X0073087Y0050048D01*
X0085376Y0064535D02*
X0079777Y0070134D01*
X0079383Y0070134D01*
X0079383Y0070528D01*
X0078683Y0070528D01*
X0062540Y0095918D02*
X0062604Y0095982D01*
X0050452Y0086993D02*
X0046623Y0086993D01*
X0047621Y0085995D02*
X0048277Y0085995D01*
X0065910Y0034072D02*
X0067046Y0034072D01*
X0087321Y0017097D02*
X0088960Y0017097D01*
X0088547Y0018096D02*
X0088320Y0018096D01*
D11*
X0112147Y0016504D03*
X0123171Y0016504D03*
X0162997Y0040094D03*
X0174020Y0040094D03*
X0174020Y0051624D03*
X0162997Y0051624D03*
D12*
X0144649Y0051135D03*
X0144649Y0046135D03*
X0144649Y0041135D03*
X0144649Y0036135D03*
X0144649Y0031135D03*
X0144649Y0026135D03*
X0123389Y0026135D03*
X0123389Y0031135D03*
X0123389Y0036135D03*
X0123389Y0041135D03*
X0123389Y0046135D03*
X0123389Y0051135D03*
X0123389Y0056175D03*
X0144649Y0056135D03*
D13*
X0094431Y0059339D03*
X0094431Y0069339D03*
X0094431Y0079339D03*
X0094431Y0089339D03*
X0094431Y0099339D03*
X0094431Y0109339D03*
X0094431Y0119339D03*
X0094431Y0129339D03*
X0094431Y0139339D03*
X0094431Y0149339D03*
X0094431Y0159339D03*
X0034588Y0159339D03*
X0034588Y0149339D03*
X0034588Y0139339D03*
X0034588Y0129339D03*
X0034588Y0119339D03*
X0034588Y0109339D03*
X0034588Y0099339D03*
X0034588Y0089339D03*
X0034588Y0079339D03*
X0034588Y0069339D03*
X0034588Y0059339D03*
X0034588Y0049339D03*
X0034588Y0039339D03*
X0034588Y0029339D03*
X0034588Y0019339D03*
X0051793Y0041150D03*
X0061793Y0041150D03*
X0061793Y0051150D03*
X0051793Y0051150D03*
X0051793Y0061150D03*
X0051793Y0071150D03*
X0061793Y0071150D03*
X0061793Y0061150D03*
X0061793Y0081150D03*
X0051793Y0081150D03*
X0094431Y0049339D03*
X0094431Y0039339D03*
X0094431Y0029339D03*
X0094431Y0019339D03*
D14*
X0109785Y0095047D03*
X0120977Y0095541D03*
X0120977Y0109320D03*
X0121202Y0117488D03*
X0109785Y0117488D03*
X0109785Y0108827D03*
X0109785Y0131268D03*
X0121202Y0131268D03*
D15*
X0137351Y0142439D03*
X0117651Y0154239D03*
D16*
X0137351Y0166039D03*
D17*
X0134351Y0166039D03*
X0140351Y0166039D03*
X0117651Y0157239D03*
X0117651Y0151239D03*
X0134351Y0142439D03*
X0140351Y0142439D03*
D18*
X0135420Y0123047D03*
X0135420Y0111850D03*
X0147054Y0116155D03*
X0147054Y0104958D03*
X0127770Y0075495D03*
X0127770Y0064298D03*
X0107029Y0060685D03*
X0107029Y0049488D03*
X0078683Y0059331D03*
X0078683Y0070528D03*
D19*
X0104668Y0075446D03*
X0115865Y0075446D03*
X0125808Y0086335D03*
X0137005Y0086335D03*
X0156443Y0026240D03*
X0167639Y0026240D03*
X0072076Y0028302D03*
X0060880Y0028302D03*
D20*
X0157649Y0115762D03*
X0157361Y0136939D03*
X0157061Y0155361D03*
X0188557Y0155361D03*
X0188857Y0136939D03*
X0189145Y0115762D03*
D21*
X0184194Y0095852D03*
X0184234Y0085852D03*
X0184194Y0075852D03*
X0184234Y0065852D03*
X0151517Y0065852D03*
X0151517Y0075852D03*
X0151478Y0085852D03*
X0151439Y0095852D03*
D22*
X0141084Y0019220D02*
X0141086Y0019317D01*
X0141092Y0019414D01*
X0141102Y0019510D01*
X0141116Y0019606D01*
X0141134Y0019702D01*
X0141155Y0019796D01*
X0141181Y0019890D01*
X0141210Y0019982D01*
X0141244Y0020073D01*
X0141280Y0020163D01*
X0141321Y0020251D01*
X0141365Y0020337D01*
X0141413Y0020422D01*
X0141464Y0020504D01*
X0141518Y0020585D01*
X0141576Y0020663D01*
X0141637Y0020738D01*
X0141700Y0020811D01*
X0141767Y0020882D01*
X0141837Y0020949D01*
X0141909Y0021014D01*
X0141984Y0021075D01*
X0142062Y0021134D01*
X0142141Y0021189D01*
X0142223Y0021241D01*
X0142307Y0021289D01*
X0142393Y0021334D01*
X0142481Y0021376D01*
X0142570Y0021414D01*
X0142661Y0021448D01*
X0142753Y0021478D01*
X0142846Y0021505D01*
X0142941Y0021527D01*
X0143036Y0021546D01*
X0143132Y0021561D01*
X0143228Y0021572D01*
X0143325Y0021579D01*
X0143422Y0021582D01*
X0143519Y0021581D01*
X0143616Y0021576D01*
X0143712Y0021567D01*
X0143808Y0021554D01*
X0143904Y0021537D01*
X0143999Y0021516D01*
X0144092Y0021492D01*
X0144185Y0021463D01*
X0144277Y0021431D01*
X0144367Y0021395D01*
X0144455Y0021356D01*
X0144542Y0021312D01*
X0144627Y0021266D01*
X0144710Y0021215D01*
X0144791Y0021162D01*
X0144869Y0021105D01*
X0144946Y0021045D01*
X0145019Y0020982D01*
X0145090Y0020916D01*
X0145158Y0020847D01*
X0145224Y0020775D01*
X0145286Y0020701D01*
X0145345Y0020624D01*
X0145401Y0020545D01*
X0145454Y0020463D01*
X0145504Y0020380D01*
X0145549Y0020294D01*
X0145592Y0020207D01*
X0145631Y0020118D01*
X0145666Y0020028D01*
X0145697Y0019936D01*
X0145724Y0019843D01*
X0145748Y0019749D01*
X0145768Y0019654D01*
X0145784Y0019558D01*
X0145796Y0019462D01*
X0145804Y0019365D01*
X0145808Y0019268D01*
X0145808Y0019172D01*
X0145804Y0019075D01*
X0145796Y0018978D01*
X0145784Y0018882D01*
X0145768Y0018786D01*
X0145748Y0018691D01*
X0145724Y0018597D01*
X0145697Y0018504D01*
X0145666Y0018412D01*
X0145631Y0018322D01*
X0145592Y0018233D01*
X0145549Y0018146D01*
X0145504Y0018060D01*
X0145454Y0017977D01*
X0145401Y0017895D01*
X0145345Y0017816D01*
X0145286Y0017739D01*
X0145224Y0017665D01*
X0145158Y0017593D01*
X0145090Y0017524D01*
X0145019Y0017458D01*
X0144946Y0017395D01*
X0144869Y0017335D01*
X0144791Y0017278D01*
X0144710Y0017225D01*
X0144627Y0017174D01*
X0144542Y0017128D01*
X0144455Y0017084D01*
X0144367Y0017045D01*
X0144277Y0017009D01*
X0144185Y0016977D01*
X0144092Y0016948D01*
X0143999Y0016924D01*
X0143904Y0016903D01*
X0143808Y0016886D01*
X0143712Y0016873D01*
X0143616Y0016864D01*
X0143519Y0016859D01*
X0143422Y0016858D01*
X0143325Y0016861D01*
X0143228Y0016868D01*
X0143132Y0016879D01*
X0143036Y0016894D01*
X0142941Y0016913D01*
X0142846Y0016935D01*
X0142753Y0016962D01*
X0142661Y0016992D01*
X0142570Y0017026D01*
X0142481Y0017064D01*
X0142393Y0017106D01*
X0142307Y0017151D01*
X0142223Y0017199D01*
X0142141Y0017251D01*
X0142062Y0017306D01*
X0141984Y0017365D01*
X0141909Y0017426D01*
X0141837Y0017491D01*
X0141767Y0017558D01*
X0141700Y0017629D01*
X0141637Y0017702D01*
X0141576Y0017777D01*
X0141518Y0017855D01*
X0141464Y0017936D01*
X0141413Y0018018D01*
X0141365Y0018103D01*
X0141321Y0018189D01*
X0141280Y0018277D01*
X0141244Y0018367D01*
X0141210Y0018458D01*
X0141181Y0018550D01*
X0141155Y0018644D01*
X0141134Y0018738D01*
X0141116Y0018834D01*
X0141102Y0018930D01*
X0141092Y0019026D01*
X0141086Y0019123D01*
X0141084Y0019220D01*
X0172581Y0019220D02*
X0172583Y0019317D01*
X0172589Y0019414D01*
X0172599Y0019510D01*
X0172613Y0019606D01*
X0172631Y0019702D01*
X0172652Y0019796D01*
X0172678Y0019890D01*
X0172707Y0019982D01*
X0172741Y0020073D01*
X0172777Y0020163D01*
X0172818Y0020251D01*
X0172862Y0020337D01*
X0172910Y0020422D01*
X0172961Y0020504D01*
X0173015Y0020585D01*
X0173073Y0020663D01*
X0173134Y0020738D01*
X0173197Y0020811D01*
X0173264Y0020882D01*
X0173334Y0020949D01*
X0173406Y0021014D01*
X0173481Y0021075D01*
X0173559Y0021134D01*
X0173638Y0021189D01*
X0173720Y0021241D01*
X0173804Y0021289D01*
X0173890Y0021334D01*
X0173978Y0021376D01*
X0174067Y0021414D01*
X0174158Y0021448D01*
X0174250Y0021478D01*
X0174343Y0021505D01*
X0174438Y0021527D01*
X0174533Y0021546D01*
X0174629Y0021561D01*
X0174725Y0021572D01*
X0174822Y0021579D01*
X0174919Y0021582D01*
X0175016Y0021581D01*
X0175113Y0021576D01*
X0175209Y0021567D01*
X0175305Y0021554D01*
X0175401Y0021537D01*
X0175496Y0021516D01*
X0175589Y0021492D01*
X0175682Y0021463D01*
X0175774Y0021431D01*
X0175864Y0021395D01*
X0175952Y0021356D01*
X0176039Y0021312D01*
X0176124Y0021266D01*
X0176207Y0021215D01*
X0176288Y0021162D01*
X0176366Y0021105D01*
X0176443Y0021045D01*
X0176516Y0020982D01*
X0176587Y0020916D01*
X0176655Y0020847D01*
X0176721Y0020775D01*
X0176783Y0020701D01*
X0176842Y0020624D01*
X0176898Y0020545D01*
X0176951Y0020463D01*
X0177001Y0020380D01*
X0177046Y0020294D01*
X0177089Y0020207D01*
X0177128Y0020118D01*
X0177163Y0020028D01*
X0177194Y0019936D01*
X0177221Y0019843D01*
X0177245Y0019749D01*
X0177265Y0019654D01*
X0177281Y0019558D01*
X0177293Y0019462D01*
X0177301Y0019365D01*
X0177305Y0019268D01*
X0177305Y0019172D01*
X0177301Y0019075D01*
X0177293Y0018978D01*
X0177281Y0018882D01*
X0177265Y0018786D01*
X0177245Y0018691D01*
X0177221Y0018597D01*
X0177194Y0018504D01*
X0177163Y0018412D01*
X0177128Y0018322D01*
X0177089Y0018233D01*
X0177046Y0018146D01*
X0177001Y0018060D01*
X0176951Y0017977D01*
X0176898Y0017895D01*
X0176842Y0017816D01*
X0176783Y0017739D01*
X0176721Y0017665D01*
X0176655Y0017593D01*
X0176587Y0017524D01*
X0176516Y0017458D01*
X0176443Y0017395D01*
X0176366Y0017335D01*
X0176288Y0017278D01*
X0176207Y0017225D01*
X0176124Y0017174D01*
X0176039Y0017128D01*
X0175952Y0017084D01*
X0175864Y0017045D01*
X0175774Y0017009D01*
X0175682Y0016977D01*
X0175589Y0016948D01*
X0175496Y0016924D01*
X0175401Y0016903D01*
X0175305Y0016886D01*
X0175209Y0016873D01*
X0175113Y0016864D01*
X0175016Y0016859D01*
X0174919Y0016858D01*
X0174822Y0016861D01*
X0174725Y0016868D01*
X0174629Y0016879D01*
X0174533Y0016894D01*
X0174438Y0016913D01*
X0174343Y0016935D01*
X0174250Y0016962D01*
X0174158Y0016992D01*
X0174067Y0017026D01*
X0173978Y0017064D01*
X0173890Y0017106D01*
X0173804Y0017151D01*
X0173720Y0017199D01*
X0173638Y0017251D01*
X0173559Y0017306D01*
X0173481Y0017365D01*
X0173406Y0017426D01*
X0173334Y0017491D01*
X0173264Y0017558D01*
X0173197Y0017629D01*
X0173134Y0017702D01*
X0173073Y0017777D01*
X0173015Y0017855D01*
X0172961Y0017936D01*
X0172910Y0018018D01*
X0172862Y0018103D01*
X0172818Y0018189D01*
X0172777Y0018277D01*
X0172741Y0018367D01*
X0172707Y0018458D01*
X0172678Y0018550D01*
X0172652Y0018644D01*
X0172631Y0018738D01*
X0172613Y0018834D01*
X0172599Y0018930D01*
X0172589Y0019026D01*
X0172583Y0019123D01*
X0172581Y0019220D01*
D23*
X0140134Y0076718D03*
X0138534Y0096418D03*
X0158834Y0104218D03*
X0166334Y0083018D03*
X0047834Y0159318D03*
D24*
X0047221Y0145903D03*
X0070021Y0172603D03*
X0102221Y0140403D03*
X0127895Y0124772D03*
X0102505Y0109693D03*
X0072383Y0100362D03*
X0062604Y0095982D03*
X0057983Y0106862D03*
X0047694Y0094961D03*
X0043834Y0083418D03*
X0043294Y0053961D03*
X0077502Y0051150D03*
X0086094Y0040661D03*
X0083139Y0031890D03*
X0085394Y0013161D03*
X0104273Y0010992D03*
X0115691Y0034614D03*
X0114903Y0049575D03*
X0131439Y0054299D03*
X0136861Y0059383D03*
X0152698Y0053512D03*
X0154667Y0048787D03*
X0155061Y0036583D03*
X0162309Y0032514D03*
X0177277Y0028014D03*
X0182561Y0042483D03*
X0156635Y0017685D03*
X0148368Y0012961D03*
X0136894Y0008061D03*
X0131335Y0022185D03*
X0135769Y0030283D03*
X0133407Y0036189D03*
X0133801Y0043669D03*
X0116478Y0068866D03*
X0064394Y0013061D03*
X0043894Y0013161D03*
X0045024Y0021466D03*
X0169694Y0008861D03*
X0187806Y0103711D03*
X0156021Y0146103D03*
X0155629Y0172216D03*
X0110321Y0171803D03*
D25*
X0062540Y0095918D02*
X0062540Y0091897D01*
X0051793Y0081150D01*
X0107029Y0065313D02*
X0107029Y0060685D01*
X0107029Y0065313D02*
X0110534Y0068818D01*
X0116430Y0068818D01*
X0116478Y0068866D01*
X0115865Y0069480D01*
X0115865Y0075446D01*
X0116565Y0068953D02*
X0116478Y0068866D01*
X0137334Y0058718D02*
X0139917Y0056135D01*
X0144649Y0056135D01*
X0154667Y0048787D02*
X0158604Y0052724D01*
X0162997Y0051624D01*
X0162997Y0040094D01*
X0163097Y0033302D01*
X0162309Y0032514D01*
X0155061Y0036583D02*
X0150508Y0041135D01*
X0144649Y0041135D01*
X0132634Y0049418D02*
X0129351Y0046135D01*
X0123389Y0046135D01*
X0123389Y0031135D02*
X0128517Y0031135D01*
X0131834Y0027818D01*
X0144649Y0026135D02*
X0149017Y0026135D01*
X0150734Y0024418D01*
X0150734Y0019218D01*
X0148368Y0012961D02*
X0148125Y0012718D01*
X0136334Y0012718D01*
X0132548Y0016504D01*
X0123171Y0016504D01*
D26*
X0171934Y0067218D02*
X0171968Y0067252D01*
X0184234Y0065852D01*
X0184194Y0075852D02*
X0174168Y0077252D01*
X0174034Y0077118D01*
X0173300Y0087252D02*
X0173134Y0087418D01*
X0173300Y0087252D02*
X0184234Y0085852D01*
X0184194Y0095852D02*
X0172400Y0097252D01*
X0172334Y0097318D01*
D27*
X0117634Y0155118D02*
X0117634Y0165618D01*
X0117734Y0165618D01*
X0125934Y0166118D02*
X0137834Y0166118D01*
D28*
X0123389Y0026135D02*
X0123171Y0025917D01*
X0123171Y0016504D01*
X0123372Y0026118D02*
X0123389Y0026135D01*
D29*
X0094534Y0009496D03*
X0034334Y0009496D03*
X0188525Y0009496D03*
X0188525Y0169260D03*
X0094434Y0169218D03*
X0034334Y0169318D03*
M02*
