%
M48
M72
T01C0.02000
T02C0.02362
T03C0.04016
T04C0.04724
T05C0.05118
T06C0.06299
%
T01
X43894Y13161
X45024Y21466
X64394Y13061
X85394Y13161
X104273Y10992
X83139Y31890
X86094Y40661
X77502Y51150
X43294Y53961
X43834Y83418
X47694Y94961
X57983Y106862
X62604Y95982
X72383Y100362
X102505Y109693
X127895Y124772
X102221Y140403
X110321Y171803
X70021Y172603
X47221Y145903
X116478Y68866
X131439Y54299
X136861Y59383
X152698Y53512
X154667Y48787
X155061Y36583
X162309Y32514
X177277Y28014
X169694Y8861
X156635Y17685
X148368Y12961
X131335Y22185
X135769Y30283
X133407Y36189
X133801Y43669
X114903Y49575
X115691Y34614
X136894Y8061
X182561Y42483
X187806Y103711
X156021Y146103
X155629Y172216
T02
X138534Y96418
X140134Y76718
X166334Y83018
X158834Y104218
X47834Y159318
T03
X34588Y19339
X34588Y29339
X34588Y39339
X34588Y49339
X34588Y59339
X34588Y69339
X34588Y79339
X34588Y89339
X34588Y99339
X34588Y109339
X34588Y119339
X34588Y129339
X34588Y139339
X34588Y149339
X34588Y159339
X94431Y159339
X94431Y149339
X94431Y139339
X94431Y129339
X94431Y119339
X94431Y109339
X94431Y99339
X94431Y89339
X94431Y79339
X94431Y69339
X94431Y59339
X94431Y49339
X94431Y39339
X94431Y29339
X94431Y19339
X61793Y41150
X51793Y41150
X51793Y51150
X61793Y51150
X61793Y61150
X61793Y71150
X51793Y71150
X51793Y61150
X51793Y81150
X61793Y81150
T04
X143446Y19220
X174943Y19220
T05
X140351Y142439
X137351Y142439
X134351Y142439
X117651Y151239
X117651Y154239
X117651Y157239
X134351Y166039
X137351Y166039
X140351Y166039
T06
X34334Y9496
X94534Y9496
X188525Y9496
X188525Y169260
X94434Y169218
X34334Y169318
M30
