G75*
%MOIN*%
%OFA0B0*%
%FSLAX25Y25*%
%IPPOS*%
%LPD*%
%AMOC8*
5,1,8,0,0,1.08239X$1,22.5*
%
%ADD10C,0.01000*%
%ADD11R,0.06299X0.07087*%
%ADD12R,0.07874X0.01969*%
%ADD13R,0.05906X0.05906*%
%ADD14R,0.07098X0.06299*%
%ADD15R,0.06299X0.07098*%
%ADD16R,0.07874X0.07874*%
%ADD17R,0.14567X0.04528*%
%ADD18C,0.00000*%
D10*
X0019234Y0003118D02*
X0019234Y0180283D01*
X0196399Y0180283D01*
X0196399Y0003118D01*
X0019234Y0003118D01*
D11*
X0112147Y0016504D03*
X0123171Y0016504D03*
X0162997Y0040094D03*
X0174020Y0040094D03*
X0174020Y0051624D03*
X0162997Y0051624D03*
D12*
X0144649Y0051135D03*
X0144649Y0046135D03*
X0144649Y0041135D03*
X0144649Y0036135D03*
X0144649Y0031135D03*
X0144649Y0026135D03*
X0123389Y0026135D03*
X0123389Y0031135D03*
X0123389Y0036135D03*
X0123389Y0041135D03*
X0123389Y0046135D03*
X0123389Y0051135D03*
X0123389Y0056175D03*
X0144649Y0056135D03*
D13*
X0120977Y0095541D03*
X0109785Y0095047D03*
X0109785Y0108827D03*
X0109785Y0117488D03*
X0121202Y0117488D03*
X0120977Y0109320D03*
X0121202Y0131268D03*
X0109785Y0131268D03*
D14*
X0135420Y0123047D03*
X0135420Y0111850D03*
X0147054Y0116155D03*
X0147054Y0104958D03*
X0127770Y0075495D03*
X0127770Y0064298D03*
X0107029Y0060685D03*
X0107029Y0049488D03*
X0078683Y0059331D03*
X0078683Y0070528D03*
D15*
X0104668Y0075446D03*
X0115865Y0075446D03*
X0125808Y0086335D03*
X0137005Y0086335D03*
X0156443Y0026240D03*
X0167639Y0026240D03*
X0072076Y0028302D03*
X0060880Y0028302D03*
D16*
X0157649Y0115762D03*
X0157361Y0136939D03*
X0157061Y0155361D03*
X0188557Y0155361D03*
X0188857Y0136939D03*
X0189145Y0115762D03*
D17*
X0184194Y0095852D03*
X0184234Y0085852D03*
X0184194Y0075852D03*
X0184234Y0065852D03*
X0151517Y0065852D03*
X0151517Y0075852D03*
X0151478Y0085852D03*
X0151439Y0095852D03*
D18*
X0141084Y0019220D02*
X0141086Y0019317D01*
X0141092Y0019414D01*
X0141102Y0019510D01*
X0141116Y0019606D01*
X0141134Y0019702D01*
X0141155Y0019796D01*
X0141181Y0019890D01*
X0141210Y0019982D01*
X0141244Y0020073D01*
X0141280Y0020163D01*
X0141321Y0020251D01*
X0141365Y0020337D01*
X0141413Y0020422D01*
X0141464Y0020504D01*
X0141518Y0020585D01*
X0141576Y0020663D01*
X0141637Y0020738D01*
X0141700Y0020811D01*
X0141767Y0020882D01*
X0141837Y0020949D01*
X0141909Y0021014D01*
X0141984Y0021075D01*
X0142062Y0021134D01*
X0142141Y0021189D01*
X0142223Y0021241D01*
X0142307Y0021289D01*
X0142393Y0021334D01*
X0142481Y0021376D01*
X0142570Y0021414D01*
X0142661Y0021448D01*
X0142753Y0021478D01*
X0142846Y0021505D01*
X0142941Y0021527D01*
X0143036Y0021546D01*
X0143132Y0021561D01*
X0143228Y0021572D01*
X0143325Y0021579D01*
X0143422Y0021582D01*
X0143519Y0021581D01*
X0143616Y0021576D01*
X0143712Y0021567D01*
X0143808Y0021554D01*
X0143904Y0021537D01*
X0143999Y0021516D01*
X0144092Y0021492D01*
X0144185Y0021463D01*
X0144277Y0021431D01*
X0144367Y0021395D01*
X0144455Y0021356D01*
X0144542Y0021312D01*
X0144627Y0021266D01*
X0144710Y0021215D01*
X0144791Y0021162D01*
X0144869Y0021105D01*
X0144946Y0021045D01*
X0145019Y0020982D01*
X0145090Y0020916D01*
X0145158Y0020847D01*
X0145224Y0020775D01*
X0145286Y0020701D01*
X0145345Y0020624D01*
X0145401Y0020545D01*
X0145454Y0020463D01*
X0145504Y0020380D01*
X0145549Y0020294D01*
X0145592Y0020207D01*
X0145631Y0020118D01*
X0145666Y0020028D01*
X0145697Y0019936D01*
X0145724Y0019843D01*
X0145748Y0019749D01*
X0145768Y0019654D01*
X0145784Y0019558D01*
X0145796Y0019462D01*
X0145804Y0019365D01*
X0145808Y0019268D01*
X0145808Y0019172D01*
X0145804Y0019075D01*
X0145796Y0018978D01*
X0145784Y0018882D01*
X0145768Y0018786D01*
X0145748Y0018691D01*
X0145724Y0018597D01*
X0145697Y0018504D01*
X0145666Y0018412D01*
X0145631Y0018322D01*
X0145592Y0018233D01*
X0145549Y0018146D01*
X0145504Y0018060D01*
X0145454Y0017977D01*
X0145401Y0017895D01*
X0145345Y0017816D01*
X0145286Y0017739D01*
X0145224Y0017665D01*
X0145158Y0017593D01*
X0145090Y0017524D01*
X0145019Y0017458D01*
X0144946Y0017395D01*
X0144869Y0017335D01*
X0144791Y0017278D01*
X0144710Y0017225D01*
X0144627Y0017174D01*
X0144542Y0017128D01*
X0144455Y0017084D01*
X0144367Y0017045D01*
X0144277Y0017009D01*
X0144185Y0016977D01*
X0144092Y0016948D01*
X0143999Y0016924D01*
X0143904Y0016903D01*
X0143808Y0016886D01*
X0143712Y0016873D01*
X0143616Y0016864D01*
X0143519Y0016859D01*
X0143422Y0016858D01*
X0143325Y0016861D01*
X0143228Y0016868D01*
X0143132Y0016879D01*
X0143036Y0016894D01*
X0142941Y0016913D01*
X0142846Y0016935D01*
X0142753Y0016962D01*
X0142661Y0016992D01*
X0142570Y0017026D01*
X0142481Y0017064D01*
X0142393Y0017106D01*
X0142307Y0017151D01*
X0142223Y0017199D01*
X0142141Y0017251D01*
X0142062Y0017306D01*
X0141984Y0017365D01*
X0141909Y0017426D01*
X0141837Y0017491D01*
X0141767Y0017558D01*
X0141700Y0017629D01*
X0141637Y0017702D01*
X0141576Y0017777D01*
X0141518Y0017855D01*
X0141464Y0017936D01*
X0141413Y0018018D01*
X0141365Y0018103D01*
X0141321Y0018189D01*
X0141280Y0018277D01*
X0141244Y0018367D01*
X0141210Y0018458D01*
X0141181Y0018550D01*
X0141155Y0018644D01*
X0141134Y0018738D01*
X0141116Y0018834D01*
X0141102Y0018930D01*
X0141092Y0019026D01*
X0141086Y0019123D01*
X0141084Y0019220D01*
X0172581Y0019220D02*
X0172583Y0019317D01*
X0172589Y0019414D01*
X0172599Y0019510D01*
X0172613Y0019606D01*
X0172631Y0019702D01*
X0172652Y0019796D01*
X0172678Y0019890D01*
X0172707Y0019982D01*
X0172741Y0020073D01*
X0172777Y0020163D01*
X0172818Y0020251D01*
X0172862Y0020337D01*
X0172910Y0020422D01*
X0172961Y0020504D01*
X0173015Y0020585D01*
X0173073Y0020663D01*
X0173134Y0020738D01*
X0173197Y0020811D01*
X0173264Y0020882D01*
X0173334Y0020949D01*
X0173406Y0021014D01*
X0173481Y0021075D01*
X0173559Y0021134D01*
X0173638Y0021189D01*
X0173720Y0021241D01*
X0173804Y0021289D01*
X0173890Y0021334D01*
X0173978Y0021376D01*
X0174067Y0021414D01*
X0174158Y0021448D01*
X0174250Y0021478D01*
X0174343Y0021505D01*
X0174438Y0021527D01*
X0174533Y0021546D01*
X0174629Y0021561D01*
X0174725Y0021572D01*
X0174822Y0021579D01*
X0174919Y0021582D01*
X0175016Y0021581D01*
X0175113Y0021576D01*
X0175209Y0021567D01*
X0175305Y0021554D01*
X0175401Y0021537D01*
X0175496Y0021516D01*
X0175589Y0021492D01*
X0175682Y0021463D01*
X0175774Y0021431D01*
X0175864Y0021395D01*
X0175952Y0021356D01*
X0176039Y0021312D01*
X0176124Y0021266D01*
X0176207Y0021215D01*
X0176288Y0021162D01*
X0176366Y0021105D01*
X0176443Y0021045D01*
X0176516Y0020982D01*
X0176587Y0020916D01*
X0176655Y0020847D01*
X0176721Y0020775D01*
X0176783Y0020701D01*
X0176842Y0020624D01*
X0176898Y0020545D01*
X0176951Y0020463D01*
X0177001Y0020380D01*
X0177046Y0020294D01*
X0177089Y0020207D01*
X0177128Y0020118D01*
X0177163Y0020028D01*
X0177194Y0019936D01*
X0177221Y0019843D01*
X0177245Y0019749D01*
X0177265Y0019654D01*
X0177281Y0019558D01*
X0177293Y0019462D01*
X0177301Y0019365D01*
X0177305Y0019268D01*
X0177305Y0019172D01*
X0177301Y0019075D01*
X0177293Y0018978D01*
X0177281Y0018882D01*
X0177265Y0018786D01*
X0177245Y0018691D01*
X0177221Y0018597D01*
X0177194Y0018504D01*
X0177163Y0018412D01*
X0177128Y0018322D01*
X0177089Y0018233D01*
X0177046Y0018146D01*
X0177001Y0018060D01*
X0176951Y0017977D01*
X0176898Y0017895D01*
X0176842Y0017816D01*
X0176783Y0017739D01*
X0176721Y0017665D01*
X0176655Y0017593D01*
X0176587Y0017524D01*
X0176516Y0017458D01*
X0176443Y0017395D01*
X0176366Y0017335D01*
X0176288Y0017278D01*
X0176207Y0017225D01*
X0176124Y0017174D01*
X0176039Y0017128D01*
X0175952Y0017084D01*
X0175864Y0017045D01*
X0175774Y0017009D01*
X0175682Y0016977D01*
X0175589Y0016948D01*
X0175496Y0016924D01*
X0175401Y0016903D01*
X0175305Y0016886D01*
X0175209Y0016873D01*
X0175113Y0016864D01*
X0175016Y0016859D01*
X0174919Y0016858D01*
X0174822Y0016861D01*
X0174725Y0016868D01*
X0174629Y0016879D01*
X0174533Y0016894D01*
X0174438Y0016913D01*
X0174343Y0016935D01*
X0174250Y0016962D01*
X0174158Y0016992D01*
X0174067Y0017026D01*
X0173978Y0017064D01*
X0173890Y0017106D01*
X0173804Y0017151D01*
X0173720Y0017199D01*
X0173638Y0017251D01*
X0173559Y0017306D01*
X0173481Y0017365D01*
X0173406Y0017426D01*
X0173334Y0017491D01*
X0173264Y0017558D01*
X0173197Y0017629D01*
X0173134Y0017702D01*
X0173073Y0017777D01*
X0173015Y0017855D01*
X0172961Y0017936D01*
X0172910Y0018018D01*
X0172862Y0018103D01*
X0172818Y0018189D01*
X0172777Y0018277D01*
X0172741Y0018367D01*
X0172707Y0018458D01*
X0172678Y0018550D01*
X0172652Y0018644D01*
X0172631Y0018738D01*
X0172613Y0018834D01*
X0172599Y0018930D01*
X0172589Y0019026D01*
X0172583Y0019123D01*
X0172581Y0019220D01*
M02*
