G75*
%MOIN*%
%OFA0B0*%
%FSLAX25Y25*%
%IPPOS*%
%LPD*%
%AMOC8*
5,1,8,0,0,1.08239X$1,22.5*
%
%ADD10C,0.01000*%
%ADD11C,0.00591*%
%ADD12C,0.00500*%
%ADD13C,0.00300*%
%ADD14C,0.00400*%
%ADD15C,0.00200*%
%ADD16C,0.00800*%
%ADD17C,0.00000*%
D10*
X0019234Y0003118D02*
X0019234Y0180283D01*
X0196399Y0180283D01*
X0196399Y0003118D01*
X0019234Y0003118D01*
X0047134Y0036218D02*
X0047134Y0086818D01*
X0046934Y0086918D02*
X0066534Y0086918D01*
X0066534Y0086618D01*
X0066734Y0086618D01*
X0066734Y0055818D01*
X0047334Y0055818D01*
X0047334Y0056018D01*
X0066734Y0055818D02*
X0066734Y0036218D01*
X0047134Y0036218D01*
D11*
X0058034Y0077418D02*
X0058034Y0084718D01*
X0058034Y0084818D02*
X0065734Y0084818D01*
X0065734Y0077418D01*
X0058034Y0077418D01*
D12*
X0066596Y0068315D02*
X0076596Y0068315D01*
X0076596Y0088315D01*
X0066596Y0088315D01*
X0066596Y0068315D01*
X0052974Y0102173D02*
X0042974Y0102173D01*
X0042974Y0122173D01*
X0052974Y0122173D01*
X0052974Y0102173D01*
X0067502Y0104417D02*
X0067502Y0114417D01*
X0087502Y0114417D01*
X0087502Y0104417D01*
X0067502Y0104417D01*
X0067502Y0115835D02*
X0067502Y0125835D01*
X0087502Y0125835D01*
X0087502Y0115835D01*
X0067502Y0115835D01*
X0071947Y0137188D02*
X0051947Y0137188D01*
X0051947Y0147188D01*
X0071947Y0147188D01*
X0071947Y0137188D01*
X0072208Y0149049D02*
X0082208Y0149049D01*
X0082208Y0169049D01*
X0072208Y0169049D01*
X0072208Y0149049D01*
X0066985Y0149620D02*
X0056985Y0149620D01*
X0056985Y0169620D01*
X0066985Y0169620D01*
X0066985Y0149620D01*
X0104391Y0138315D02*
X0104391Y0118315D01*
X0114391Y0118315D01*
X0114391Y0138315D01*
X0104391Y0138315D01*
X0115809Y0137921D02*
X0115809Y0117921D01*
X0125809Y0117921D01*
X0125809Y0137921D01*
X0115809Y0137921D01*
X0133619Y0129991D02*
X0133619Y0109991D01*
X0143619Y0109991D01*
X0143619Y0129991D01*
X0133619Y0129991D01*
X0145143Y0130091D02*
X0145143Y0110091D01*
X0155143Y0110091D01*
X0155143Y0130091D01*
X0145143Y0130091D01*
X0154669Y0109382D02*
X0134669Y0109382D01*
X0134669Y0099382D01*
X0154669Y0099382D01*
X0154669Y0109382D01*
X0165927Y0107961D02*
X0165927Y0117961D01*
X0185927Y0117961D01*
X0185927Y0107961D01*
X0165927Y0107961D01*
X0161586Y0088121D02*
X0161586Y0078121D01*
X0141586Y0078121D01*
X0141586Y0088121D01*
X0161586Y0088121D01*
X0183604Y0062528D02*
X0183604Y0003472D01*
X0127305Y0003472D01*
X0127305Y0062528D01*
X0183604Y0062528D01*
X0125809Y0093512D02*
X0115809Y0093512D01*
X0115809Y0113512D01*
X0125809Y0113512D01*
X0125809Y0093512D01*
X0113604Y0093512D02*
X0103604Y0093512D01*
X0103604Y0113512D01*
X0113604Y0113512D01*
X0113604Y0093512D01*
X0113604Y0038315D02*
X0103604Y0038315D01*
X0103604Y0018315D01*
X0113604Y0018315D01*
X0113604Y0038315D01*
X0159228Y0156998D02*
X0169228Y0156998D01*
X0169228Y0176998D01*
X0159228Y0176998D01*
X0159228Y0156998D01*
X0171794Y0157098D02*
X0181794Y0157098D01*
X0181794Y0177098D01*
X0171794Y0177098D01*
X0171794Y0157098D01*
D13*
X0183444Y0156731D02*
X0183444Y0157699D01*
X0183928Y0158183D01*
X0183444Y0159194D02*
X0185379Y0161129D01*
X0185863Y0161129D01*
X0186347Y0160645D01*
X0186347Y0159678D01*
X0185863Y0159194D01*
X0185863Y0158183D02*
X0186347Y0157699D01*
X0186347Y0156731D01*
X0185863Y0156248D01*
X0183928Y0156248D01*
X0183444Y0156731D01*
X0183444Y0159194D02*
X0183444Y0161129D01*
X0157480Y0164431D02*
X0156996Y0163948D01*
X0155061Y0163948D01*
X0154578Y0164431D01*
X0154578Y0165399D01*
X0155061Y0165883D01*
X0154578Y0166894D02*
X0154578Y0168829D01*
X0154578Y0167862D02*
X0157480Y0167862D01*
X0156513Y0166894D01*
X0156996Y0165883D02*
X0157480Y0165399D01*
X0157480Y0164431D01*
X0122361Y0143869D02*
X0120910Y0142418D01*
X0120910Y0144353D01*
X0119459Y0143869D02*
X0122361Y0143869D01*
X0121877Y0141406D02*
X0120910Y0141406D01*
X0120426Y0140922D01*
X0120426Y0139471D01*
X0119459Y0139471D02*
X0122361Y0139471D01*
X0122361Y0140922D01*
X0121877Y0141406D01*
X0120426Y0140439D02*
X0119459Y0141406D01*
X0111644Y0141016D02*
X0111160Y0141500D01*
X0110193Y0141500D01*
X0109709Y0141016D01*
X0109709Y0139565D01*
X0109709Y0140532D02*
X0108741Y0141500D01*
X0108741Y0142511D02*
X0108741Y0144446D01*
X0108741Y0143479D02*
X0111644Y0143479D01*
X0110676Y0142511D01*
X0111644Y0141016D02*
X0111644Y0139565D01*
X0108741Y0139565D01*
X0086760Y0158199D02*
X0086760Y0159650D01*
X0086277Y0160134D01*
X0085309Y0160134D01*
X0084825Y0159650D01*
X0084825Y0158199D01*
X0083858Y0158199D02*
X0086760Y0158199D01*
X0084825Y0159166D02*
X0083858Y0160134D01*
X0083858Y0161145D02*
X0085793Y0163080D01*
X0086277Y0163080D01*
X0086760Y0162597D01*
X0086760Y0161629D01*
X0086277Y0161145D01*
X0083858Y0161145D02*
X0083858Y0163080D01*
X0083858Y0164092D02*
X0083858Y0166027D01*
X0083858Y0165059D02*
X0086760Y0165059D01*
X0085793Y0164092D01*
X0070738Y0163351D02*
X0070254Y0163351D01*
X0068319Y0161416D01*
X0067835Y0161416D01*
X0067835Y0160405D02*
X0068803Y0159437D01*
X0068803Y0159921D02*
X0068803Y0158470D01*
X0067835Y0158470D02*
X0070738Y0158470D01*
X0070738Y0159921D01*
X0070254Y0160405D01*
X0069286Y0160405D01*
X0068803Y0159921D01*
X0070738Y0161416D02*
X0070738Y0163351D01*
X0070737Y0135841D02*
X0069286Y0135841D01*
X0068802Y0135357D01*
X0068802Y0134389D01*
X0069286Y0133906D01*
X0070737Y0133906D01*
X0069769Y0133906D02*
X0068802Y0132938D01*
X0067790Y0132938D02*
X0065855Y0134873D01*
X0065855Y0135357D01*
X0066339Y0135841D01*
X0067307Y0135841D01*
X0067790Y0135357D01*
X0067790Y0132938D02*
X0065855Y0132938D01*
X0064844Y0132938D02*
X0062909Y0134873D01*
X0062909Y0135357D01*
X0063393Y0135841D01*
X0064360Y0135841D01*
X0064844Y0135357D01*
X0064844Y0132938D02*
X0062909Y0132938D01*
X0070737Y0132938D02*
X0070737Y0135841D01*
X0067061Y0122087D02*
X0066093Y0122087D01*
X0065610Y0121603D01*
X0064598Y0122087D02*
X0062663Y0122087D01*
X0062663Y0121603D01*
X0064598Y0119668D01*
X0064598Y0119185D01*
X0065610Y0119668D02*
X0066093Y0119185D01*
X0067061Y0119185D01*
X0067545Y0119668D01*
X0067545Y0121603D01*
X0067061Y0122087D01*
X0057526Y0118567D02*
X0056075Y0117116D01*
X0056075Y0119051D01*
X0054624Y0118567D02*
X0057526Y0118567D01*
X0057043Y0116105D02*
X0057526Y0115621D01*
X0057526Y0114653D01*
X0057043Y0114170D01*
X0057043Y0113158D02*
X0056075Y0113158D01*
X0055591Y0112674D01*
X0055591Y0111223D01*
X0054624Y0111223D02*
X0057526Y0111223D01*
X0057526Y0112674D01*
X0057043Y0113158D01*
X0055591Y0112191D02*
X0054624Y0113158D01*
X0054624Y0114170D02*
X0056559Y0116105D01*
X0057043Y0116105D01*
X0054624Y0116105D02*
X0054624Y0114170D01*
X0042932Y0127529D02*
X0040997Y0127529D01*
X0040513Y0128012D01*
X0040513Y0128980D01*
X0040997Y0129464D01*
X0042932Y0129464D01*
X0043415Y0128980D01*
X0043415Y0128012D01*
X0042932Y0127529D01*
X0041480Y0128496D02*
X0040513Y0129464D01*
X0040513Y0130475D02*
X0042448Y0132410D01*
X0042932Y0132410D01*
X0043415Y0131926D01*
X0043415Y0130959D01*
X0042932Y0130475D01*
X0040513Y0130475D02*
X0040513Y0132410D01*
X0078124Y0102086D02*
X0078124Y0101602D01*
X0078607Y0101119D01*
X0078124Y0100635D01*
X0078124Y0100151D01*
X0078607Y0099667D01*
X0079575Y0099667D01*
X0080059Y0100151D01*
X0081070Y0099667D02*
X0083005Y0099667D01*
X0081070Y0101602D01*
X0081070Y0102086D01*
X0081554Y0102570D01*
X0082521Y0102570D01*
X0083005Y0102086D01*
X0084017Y0102086D02*
X0084017Y0101119D01*
X0084500Y0100635D01*
X0085952Y0100635D01*
X0085952Y0099667D02*
X0085952Y0102570D01*
X0084500Y0102570D01*
X0084017Y0102086D01*
X0084984Y0100635D02*
X0084017Y0099667D01*
X0080059Y0102086D02*
X0079575Y0102570D01*
X0078607Y0102570D01*
X0078124Y0102086D01*
X0078607Y0101119D02*
X0079091Y0101119D01*
X0107854Y0092243D02*
X0107854Y0090308D01*
X0109789Y0092243D01*
X0110273Y0092243D01*
X0110756Y0091760D01*
X0110756Y0090792D01*
X0110273Y0090308D01*
X0110273Y0089297D02*
X0109305Y0089297D01*
X0108821Y0088813D01*
X0108821Y0087362D01*
X0107854Y0087362D02*
X0110756Y0087362D01*
X0110756Y0088813D01*
X0110273Y0089297D01*
X0108821Y0088329D02*
X0107854Y0089297D01*
X0119859Y0089597D02*
X0120826Y0088629D01*
X0120826Y0089113D02*
X0120826Y0087662D01*
X0119859Y0087662D02*
X0122761Y0087662D01*
X0122761Y0089113D01*
X0122277Y0089597D01*
X0121310Y0089597D01*
X0120826Y0089113D01*
X0120342Y0090608D02*
X0119859Y0091092D01*
X0119859Y0092060D01*
X0120342Y0092543D01*
X0121310Y0092543D01*
X0121794Y0092060D01*
X0121794Y0091576D01*
X0121310Y0090608D01*
X0122761Y0090608D01*
X0122761Y0092543D01*
X0143690Y0095716D02*
X0144174Y0095232D01*
X0145142Y0095232D01*
X0145625Y0095716D01*
X0146637Y0095232D02*
X0148572Y0095232D01*
X0147605Y0095232D02*
X0147605Y0098134D01*
X0148572Y0097167D01*
X0149584Y0097651D02*
X0149584Y0096683D01*
X0150067Y0096199D01*
X0151519Y0096199D01*
X0151519Y0095232D02*
X0151519Y0098134D01*
X0150067Y0098134D01*
X0149584Y0097651D01*
X0150551Y0096199D02*
X0149584Y0095232D01*
X0145625Y0097651D02*
X0145142Y0098134D01*
X0144174Y0098134D01*
X0143690Y0097651D01*
X0143690Y0097167D01*
X0144174Y0096683D01*
X0143690Y0096199D01*
X0143690Y0095716D01*
X0144174Y0096683D02*
X0144658Y0096683D01*
X0153575Y0092074D02*
X0153575Y0089171D01*
X0152608Y0089171D02*
X0154543Y0089171D01*
X0155554Y0089171D02*
X0157489Y0089171D01*
X0156522Y0089171D02*
X0156522Y0092074D01*
X0157489Y0091106D01*
X0158501Y0090622D02*
X0158985Y0090139D01*
X0160436Y0090139D01*
X0159468Y0090139D02*
X0158501Y0089171D01*
X0158501Y0090622D02*
X0158501Y0091590D01*
X0158985Y0092074D01*
X0160436Y0092074D01*
X0160436Y0089171D01*
X0154543Y0091106D02*
X0153575Y0092074D01*
X0174788Y0104094D02*
X0175272Y0103611D01*
X0176240Y0103611D01*
X0176723Y0104094D01*
X0177735Y0104094D02*
X0178219Y0103611D01*
X0179186Y0103611D01*
X0179670Y0104094D01*
X0179670Y0106029D01*
X0179186Y0106513D01*
X0178219Y0106513D01*
X0177735Y0106029D01*
X0176723Y0106029D02*
X0176240Y0106513D01*
X0175272Y0106513D01*
X0174788Y0106029D01*
X0174788Y0105546D01*
X0175272Y0105062D01*
X0174788Y0104578D01*
X0174788Y0104094D01*
X0175272Y0105062D02*
X0175756Y0105062D01*
X0159195Y0116441D02*
X0159195Y0117893D01*
X0158711Y0118376D01*
X0157744Y0118376D01*
X0157260Y0117893D01*
X0157260Y0116441D01*
X0156293Y0116441D02*
X0159195Y0116441D01*
X0157260Y0117409D02*
X0156293Y0118376D01*
X0156776Y0119388D02*
X0156293Y0119872D01*
X0156293Y0120839D01*
X0156776Y0121323D01*
X0158711Y0121323D01*
X0159195Y0120839D01*
X0159195Y0119872D01*
X0158711Y0119388D01*
X0158227Y0119388D01*
X0157744Y0119872D01*
X0157744Y0121323D01*
X0132971Y0118439D02*
X0132488Y0118923D01*
X0132004Y0118923D01*
X0131520Y0118439D01*
X0131520Y0117472D01*
X0132004Y0116988D01*
X0132488Y0116988D01*
X0132971Y0117472D01*
X0132971Y0118439D01*
X0131520Y0118439D02*
X0131036Y0118923D01*
X0130553Y0118923D01*
X0130069Y0118439D01*
X0130069Y0117472D01*
X0130553Y0116988D01*
X0131036Y0116988D01*
X0131520Y0117472D01*
X0131520Y0115976D02*
X0131036Y0115493D01*
X0131036Y0114041D01*
X0130069Y0114041D02*
X0132971Y0114041D01*
X0132971Y0115493D01*
X0132488Y0115976D01*
X0131520Y0115976D01*
X0131036Y0115009D02*
X0130069Y0115976D01*
X0136047Y0068052D02*
X0135563Y0067569D01*
X0135563Y0067085D01*
X0136047Y0066601D01*
X0135563Y0066117D01*
X0135563Y0065634D01*
X0136047Y0065150D01*
X0137014Y0065150D01*
X0137498Y0065634D01*
X0138510Y0065634D02*
X0138510Y0068052D01*
X0137498Y0067569D02*
X0137014Y0068052D01*
X0136047Y0068052D01*
X0136047Y0066601D02*
X0136530Y0066601D01*
X0138510Y0065634D02*
X0138993Y0065150D01*
X0139961Y0065150D01*
X0140444Y0065634D01*
X0140444Y0068052D01*
X0183300Y0124072D02*
X0185235Y0124072D01*
X0183300Y0126007D01*
X0183300Y0126491D01*
X0183784Y0126975D01*
X0184751Y0126975D01*
X0185235Y0126491D01*
X0186247Y0126975D02*
X0186247Y0124556D01*
X0186730Y0124072D01*
X0187698Y0124072D01*
X0188181Y0124556D01*
X0188181Y0126975D01*
D14*
X0071167Y0032809D02*
X0069632Y0032809D01*
X0070399Y0032809D02*
X0070399Y0028206D01*
X0069632Y0028206D02*
X0071167Y0028206D01*
X0068097Y0028973D02*
X0068097Y0032042D01*
X0067330Y0032809D01*
X0065795Y0032809D01*
X0065028Y0032042D01*
X0063493Y0032042D02*
X0063493Y0031275D01*
X0062726Y0030507D01*
X0061191Y0030507D01*
X0060424Y0029740D01*
X0060424Y0028973D01*
X0061191Y0028206D01*
X0062726Y0028206D01*
X0063493Y0028973D01*
X0065028Y0028973D02*
X0065795Y0028206D01*
X0067330Y0028206D01*
X0068097Y0028973D01*
X0063493Y0032042D02*
X0062726Y0032809D01*
X0061191Y0032809D01*
X0060424Y0032042D01*
X0058889Y0032809D02*
X0058889Y0028206D01*
X0058889Y0029740D02*
X0056587Y0029740D01*
X0055820Y0030507D01*
X0055820Y0032042D01*
X0056587Y0032809D01*
X0058889Y0032809D01*
X0054285Y0030507D02*
X0051216Y0030507D01*
X0052751Y0032042D02*
X0052751Y0028973D01*
X0049682Y0032809D02*
X0046612Y0032809D01*
X0045078Y0032809D02*
X0045078Y0028206D01*
X0042776Y0028206D01*
X0042008Y0028973D01*
X0042008Y0032042D01*
X0042776Y0032809D01*
X0045078Y0032809D01*
X0048147Y0032809D02*
X0048147Y0028206D01*
D15*
X0079196Y0076985D02*
X0081398Y0076985D01*
X0081398Y0078086D01*
X0081031Y0078453D01*
X0080297Y0078453D01*
X0079930Y0078086D01*
X0079930Y0076985D01*
X0079930Y0077719D02*
X0079196Y0078453D01*
X0079196Y0079195D02*
X0079196Y0080663D01*
X0079196Y0079929D02*
X0081398Y0079929D01*
X0080664Y0079195D01*
X0080664Y0081405D02*
X0081031Y0081405D01*
X0081398Y0081772D01*
X0081398Y0082506D01*
X0081031Y0082873D01*
X0080664Y0082873D01*
X0080297Y0082506D01*
X0080297Y0081772D01*
X0080664Y0081405D01*
X0080297Y0081772D02*
X0079930Y0081405D01*
X0079563Y0081405D01*
X0079196Y0081772D01*
X0079196Y0082506D01*
X0079563Y0082873D01*
X0079930Y0082873D01*
X0080297Y0082506D01*
X0106216Y0017017D02*
X0106216Y0016650D01*
X0107684Y0015182D01*
X0107684Y0014815D01*
X0108426Y0014815D02*
X0109894Y0014815D01*
X0109160Y0014815D02*
X0109160Y0017017D01*
X0109894Y0016283D01*
X0110636Y0016650D02*
X0110636Y0015916D01*
X0111003Y0015549D01*
X0112104Y0015549D01*
X0111370Y0015549D02*
X0110636Y0014815D01*
X0112104Y0014815D02*
X0112104Y0017017D01*
X0111003Y0017017D01*
X0110636Y0016650D01*
X0107684Y0017017D02*
X0106216Y0017017D01*
X0087998Y0147357D02*
X0087264Y0147357D01*
X0086897Y0147724D01*
X0086897Y0149192D01*
X0087264Y0149559D01*
X0087998Y0149559D01*
X0088365Y0149192D01*
X0088365Y0147724D01*
X0087998Y0147357D01*
X0087631Y0148091D02*
X0086897Y0147357D01*
X0086155Y0147357D02*
X0084687Y0147357D01*
X0085421Y0147357D02*
X0085421Y0149559D01*
X0086155Y0148825D01*
D16*
X0157830Y0144016D02*
X0157830Y0130016D01*
X0183630Y0130016D01*
X0183630Y0144016D01*
X0157830Y0144016D01*
D17*
X0183604Y0062528D02*
X0129667Y0062528D01*
X0141084Y0019220D02*
X0141086Y0019317D01*
X0141092Y0019414D01*
X0141102Y0019510D01*
X0141116Y0019606D01*
X0141134Y0019702D01*
X0141155Y0019796D01*
X0141181Y0019890D01*
X0141210Y0019982D01*
X0141244Y0020073D01*
X0141280Y0020163D01*
X0141321Y0020251D01*
X0141365Y0020337D01*
X0141413Y0020422D01*
X0141464Y0020504D01*
X0141518Y0020585D01*
X0141576Y0020663D01*
X0141637Y0020738D01*
X0141700Y0020811D01*
X0141767Y0020882D01*
X0141837Y0020949D01*
X0141909Y0021014D01*
X0141984Y0021075D01*
X0142062Y0021134D01*
X0142141Y0021189D01*
X0142223Y0021241D01*
X0142307Y0021289D01*
X0142393Y0021334D01*
X0142481Y0021376D01*
X0142570Y0021414D01*
X0142661Y0021448D01*
X0142753Y0021478D01*
X0142846Y0021505D01*
X0142941Y0021527D01*
X0143036Y0021546D01*
X0143132Y0021561D01*
X0143228Y0021572D01*
X0143325Y0021579D01*
X0143422Y0021582D01*
X0143519Y0021581D01*
X0143616Y0021576D01*
X0143712Y0021567D01*
X0143808Y0021554D01*
X0143904Y0021537D01*
X0143999Y0021516D01*
X0144092Y0021492D01*
X0144185Y0021463D01*
X0144277Y0021431D01*
X0144367Y0021395D01*
X0144455Y0021356D01*
X0144542Y0021312D01*
X0144627Y0021266D01*
X0144710Y0021215D01*
X0144791Y0021162D01*
X0144869Y0021105D01*
X0144946Y0021045D01*
X0145019Y0020982D01*
X0145090Y0020916D01*
X0145158Y0020847D01*
X0145224Y0020775D01*
X0145286Y0020701D01*
X0145345Y0020624D01*
X0145401Y0020545D01*
X0145454Y0020463D01*
X0145504Y0020380D01*
X0145549Y0020294D01*
X0145592Y0020207D01*
X0145631Y0020118D01*
X0145666Y0020028D01*
X0145697Y0019936D01*
X0145724Y0019843D01*
X0145748Y0019749D01*
X0145768Y0019654D01*
X0145784Y0019558D01*
X0145796Y0019462D01*
X0145804Y0019365D01*
X0145808Y0019268D01*
X0145808Y0019172D01*
X0145804Y0019075D01*
X0145796Y0018978D01*
X0145784Y0018882D01*
X0145768Y0018786D01*
X0145748Y0018691D01*
X0145724Y0018597D01*
X0145697Y0018504D01*
X0145666Y0018412D01*
X0145631Y0018322D01*
X0145592Y0018233D01*
X0145549Y0018146D01*
X0145504Y0018060D01*
X0145454Y0017977D01*
X0145401Y0017895D01*
X0145345Y0017816D01*
X0145286Y0017739D01*
X0145224Y0017665D01*
X0145158Y0017593D01*
X0145090Y0017524D01*
X0145019Y0017458D01*
X0144946Y0017395D01*
X0144869Y0017335D01*
X0144791Y0017278D01*
X0144710Y0017225D01*
X0144627Y0017174D01*
X0144542Y0017128D01*
X0144455Y0017084D01*
X0144367Y0017045D01*
X0144277Y0017009D01*
X0144185Y0016977D01*
X0144092Y0016948D01*
X0143999Y0016924D01*
X0143904Y0016903D01*
X0143808Y0016886D01*
X0143712Y0016873D01*
X0143616Y0016864D01*
X0143519Y0016859D01*
X0143422Y0016858D01*
X0143325Y0016861D01*
X0143228Y0016868D01*
X0143132Y0016879D01*
X0143036Y0016894D01*
X0142941Y0016913D01*
X0142846Y0016935D01*
X0142753Y0016962D01*
X0142661Y0016992D01*
X0142570Y0017026D01*
X0142481Y0017064D01*
X0142393Y0017106D01*
X0142307Y0017151D01*
X0142223Y0017199D01*
X0142141Y0017251D01*
X0142062Y0017306D01*
X0141984Y0017365D01*
X0141909Y0017426D01*
X0141837Y0017491D01*
X0141767Y0017558D01*
X0141700Y0017629D01*
X0141637Y0017702D01*
X0141576Y0017777D01*
X0141518Y0017855D01*
X0141464Y0017936D01*
X0141413Y0018018D01*
X0141365Y0018103D01*
X0141321Y0018189D01*
X0141280Y0018277D01*
X0141244Y0018367D01*
X0141210Y0018458D01*
X0141181Y0018550D01*
X0141155Y0018644D01*
X0141134Y0018738D01*
X0141116Y0018834D01*
X0141102Y0018930D01*
X0141092Y0019026D01*
X0141086Y0019123D01*
X0141084Y0019220D01*
X0172581Y0019220D02*
X0172583Y0019317D01*
X0172589Y0019414D01*
X0172599Y0019510D01*
X0172613Y0019606D01*
X0172631Y0019702D01*
X0172652Y0019796D01*
X0172678Y0019890D01*
X0172707Y0019982D01*
X0172741Y0020073D01*
X0172777Y0020163D01*
X0172818Y0020251D01*
X0172862Y0020337D01*
X0172910Y0020422D01*
X0172961Y0020504D01*
X0173015Y0020585D01*
X0173073Y0020663D01*
X0173134Y0020738D01*
X0173197Y0020811D01*
X0173264Y0020882D01*
X0173334Y0020949D01*
X0173406Y0021014D01*
X0173481Y0021075D01*
X0173559Y0021134D01*
X0173638Y0021189D01*
X0173720Y0021241D01*
X0173804Y0021289D01*
X0173890Y0021334D01*
X0173978Y0021376D01*
X0174067Y0021414D01*
X0174158Y0021448D01*
X0174250Y0021478D01*
X0174343Y0021505D01*
X0174438Y0021527D01*
X0174533Y0021546D01*
X0174629Y0021561D01*
X0174725Y0021572D01*
X0174822Y0021579D01*
X0174919Y0021582D01*
X0175016Y0021581D01*
X0175113Y0021576D01*
X0175209Y0021567D01*
X0175305Y0021554D01*
X0175401Y0021537D01*
X0175496Y0021516D01*
X0175589Y0021492D01*
X0175682Y0021463D01*
X0175774Y0021431D01*
X0175864Y0021395D01*
X0175952Y0021356D01*
X0176039Y0021312D01*
X0176124Y0021266D01*
X0176207Y0021215D01*
X0176288Y0021162D01*
X0176366Y0021105D01*
X0176443Y0021045D01*
X0176516Y0020982D01*
X0176587Y0020916D01*
X0176655Y0020847D01*
X0176721Y0020775D01*
X0176783Y0020701D01*
X0176842Y0020624D01*
X0176898Y0020545D01*
X0176951Y0020463D01*
X0177001Y0020380D01*
X0177046Y0020294D01*
X0177089Y0020207D01*
X0177128Y0020118D01*
X0177163Y0020028D01*
X0177194Y0019936D01*
X0177221Y0019843D01*
X0177245Y0019749D01*
X0177265Y0019654D01*
X0177281Y0019558D01*
X0177293Y0019462D01*
X0177301Y0019365D01*
X0177305Y0019268D01*
X0177305Y0019172D01*
X0177301Y0019075D01*
X0177293Y0018978D01*
X0177281Y0018882D01*
X0177265Y0018786D01*
X0177245Y0018691D01*
X0177221Y0018597D01*
X0177194Y0018504D01*
X0177163Y0018412D01*
X0177128Y0018322D01*
X0177089Y0018233D01*
X0177046Y0018146D01*
X0177001Y0018060D01*
X0176951Y0017977D01*
X0176898Y0017895D01*
X0176842Y0017816D01*
X0176783Y0017739D01*
X0176721Y0017665D01*
X0176655Y0017593D01*
X0176587Y0017524D01*
X0176516Y0017458D01*
X0176443Y0017395D01*
X0176366Y0017335D01*
X0176288Y0017278D01*
X0176207Y0017225D01*
X0176124Y0017174D01*
X0176039Y0017128D01*
X0175952Y0017084D01*
X0175864Y0017045D01*
X0175774Y0017009D01*
X0175682Y0016977D01*
X0175589Y0016948D01*
X0175496Y0016924D01*
X0175401Y0016903D01*
X0175305Y0016886D01*
X0175209Y0016873D01*
X0175113Y0016864D01*
X0175016Y0016859D01*
X0174919Y0016858D01*
X0174822Y0016861D01*
X0174725Y0016868D01*
X0174629Y0016879D01*
X0174533Y0016894D01*
X0174438Y0016913D01*
X0174343Y0016935D01*
X0174250Y0016962D01*
X0174158Y0016992D01*
X0174067Y0017026D01*
X0173978Y0017064D01*
X0173890Y0017106D01*
X0173804Y0017151D01*
X0173720Y0017199D01*
X0173638Y0017251D01*
X0173559Y0017306D01*
X0173481Y0017365D01*
X0173406Y0017426D01*
X0173334Y0017491D01*
X0173264Y0017558D01*
X0173197Y0017629D01*
X0173134Y0017702D01*
X0173073Y0017777D01*
X0173015Y0017855D01*
X0172961Y0017936D01*
X0172910Y0018018D01*
X0172862Y0018103D01*
X0172818Y0018189D01*
X0172777Y0018277D01*
X0172741Y0018367D01*
X0172707Y0018458D01*
X0172678Y0018550D01*
X0172652Y0018644D01*
X0172631Y0018738D01*
X0172613Y0018834D01*
X0172599Y0018930D01*
X0172589Y0019026D01*
X0172583Y0019123D01*
X0172581Y0019220D01*
M02*
