G75*
%MOIN*%
%OFA0B0*%
%FSLAX25Y25*%
%IPPOS*%
%LPD*%
%AMOC8*
5,1,8,0,0,1.08239X$1,22.5*
%
%ADD10C,0.01000*%
%ADD11R,0.07087X0.06299*%
%ADD12R,0.06299X0.07087*%
%ADD13C,0.06024*%
%ADD14OC8,0.15748*%
%ADD15R,0.15748X0.15748*%
%ADD16C,0.07677*%
%ADD17R,0.03937X0.05512*%
%ADD18R,0.07098X0.06299*%
%ADD19R,0.06299X0.07098*%
%ADD20R,0.05512X0.03937*%
%ADD21R,0.04800X0.08800*%
%ADD22R,0.14173X0.08661*%
%ADD23C,0.00000*%
%ADD24R,0.07874X0.10236*%
%ADD25R,0.09843X0.07874*%
%ADD26R,0.02756X0.10236*%
%ADD27C,0.03562*%
%ADD28C,0.03200*%
%ADD29C,0.05000*%
%ADD30C,0.05600*%
%ADD31C,0.02400*%
%ADD32C,0.09449*%
D10*
X0019234Y0003118D02*
X0019234Y0180283D01*
X0196399Y0180283D01*
X0196399Y0003118D01*
X0019234Y0003118D01*
X0022634Y0006518D02*
X0022634Y0176883D01*
X0032675Y0176883D01*
X0030015Y0175782D01*
X0027870Y0173637D01*
X0026709Y0170835D01*
X0026709Y0167802D01*
X0027870Y0164999D01*
X0029879Y0162990D01*
X0029576Y0162687D01*
X0028676Y0160515D01*
X0028676Y0158163D01*
X0029576Y0155990D01*
X0031228Y0154339D01*
X0029576Y0152687D01*
X0028676Y0150515D01*
X0028676Y0148163D01*
X0029576Y0145990D01*
X0031228Y0144339D01*
X0029576Y0142687D01*
X0028676Y0140515D01*
X0028676Y0138163D01*
X0029576Y0135990D01*
X0031239Y0134327D01*
X0033412Y0133427D01*
X0035764Y0133427D01*
X0037734Y0134243D01*
X0037734Y0124434D01*
X0035764Y0125250D01*
X0033412Y0125250D01*
X0031239Y0124350D01*
X0029576Y0122687D01*
X0028676Y0120515D01*
X0028676Y0118163D01*
X0029576Y0115990D01*
X0031228Y0114339D01*
X0029576Y0112687D01*
X0028676Y0110515D01*
X0028676Y0108163D01*
X0029576Y0105990D01*
X0031228Y0104339D01*
X0029576Y0102687D01*
X0028676Y0100515D01*
X0028676Y0098163D01*
X0029576Y0095990D01*
X0031228Y0094339D01*
X0029576Y0092687D01*
X0028676Y0090515D01*
X0028676Y0088163D01*
X0029576Y0085990D01*
X0031228Y0084339D01*
X0029576Y0082687D01*
X0028676Y0080515D01*
X0028676Y0078163D01*
X0029576Y0075990D01*
X0031228Y0074339D01*
X0029576Y0072687D01*
X0028676Y0070515D01*
X0028676Y0068163D01*
X0029576Y0065990D01*
X0031228Y0064339D01*
X0029576Y0062687D01*
X0028676Y0060515D01*
X0028676Y0058163D01*
X0029576Y0055990D01*
X0031228Y0054339D01*
X0029576Y0052687D01*
X0028676Y0050515D01*
X0028676Y0048163D01*
X0029576Y0045990D01*
X0031228Y0044339D01*
X0029576Y0042687D01*
X0028676Y0040515D01*
X0028676Y0038163D01*
X0029576Y0035990D01*
X0031228Y0034339D01*
X0029576Y0032687D01*
X0028676Y0030515D01*
X0028676Y0028163D01*
X0029576Y0025990D01*
X0031228Y0024339D01*
X0029576Y0022687D01*
X0028676Y0020515D01*
X0028676Y0018163D01*
X0029576Y0015990D01*
X0029811Y0015755D01*
X0027870Y0013815D01*
X0026709Y0011013D01*
X0026709Y0007979D01*
X0027315Y0006518D01*
X0022634Y0006518D01*
X0022634Y0007112D02*
X0027069Y0007112D01*
X0026709Y0008111D02*
X0022634Y0008111D01*
X0022634Y0009109D02*
X0026709Y0009109D01*
X0026709Y0010108D02*
X0022634Y0010108D01*
X0022634Y0011106D02*
X0026748Y0011106D01*
X0027162Y0012105D02*
X0022634Y0012105D01*
X0022634Y0013103D02*
X0027575Y0013103D01*
X0028157Y0014102D02*
X0022634Y0014102D01*
X0022634Y0015100D02*
X0029155Y0015100D01*
X0029531Y0016099D02*
X0022634Y0016099D01*
X0022634Y0017097D02*
X0029118Y0017097D01*
X0028704Y0018096D02*
X0022634Y0018096D01*
X0022634Y0019094D02*
X0028676Y0019094D01*
X0028676Y0020093D02*
X0022634Y0020093D01*
X0022634Y0021091D02*
X0028915Y0021091D01*
X0029329Y0022090D02*
X0022634Y0022090D01*
X0022634Y0023088D02*
X0029977Y0023088D01*
X0030976Y0024087D02*
X0022634Y0024087D01*
X0022634Y0025085D02*
X0030481Y0025085D01*
X0029537Y0026084D02*
X0022634Y0026084D01*
X0022634Y0027082D02*
X0029124Y0027082D01*
X0028710Y0028081D02*
X0022634Y0028081D01*
X0022634Y0029079D02*
X0028676Y0029079D01*
X0028676Y0030078D02*
X0022634Y0030078D01*
X0022634Y0031076D02*
X0028909Y0031076D01*
X0029323Y0032075D02*
X0022634Y0032075D01*
X0022634Y0033073D02*
X0029962Y0033073D01*
X0030961Y0034072D02*
X0022634Y0034072D01*
X0022634Y0035070D02*
X0030496Y0035070D01*
X0029544Y0036069D02*
X0022634Y0036069D01*
X0022634Y0037067D02*
X0029130Y0037067D01*
X0028716Y0038066D02*
X0022634Y0038066D01*
X0022634Y0039065D02*
X0028676Y0039065D01*
X0028676Y0040063D02*
X0022634Y0040063D01*
X0022634Y0041062D02*
X0028903Y0041062D01*
X0029317Y0042060D02*
X0022634Y0042060D01*
X0022634Y0043059D02*
X0029948Y0043059D01*
X0030946Y0044057D02*
X0022634Y0044057D01*
X0022634Y0045056D02*
X0030511Y0045056D01*
X0029550Y0046054D02*
X0022634Y0046054D01*
X0022634Y0047053D02*
X0029136Y0047053D01*
X0028723Y0048051D02*
X0022634Y0048051D01*
X0022634Y0049050D02*
X0028676Y0049050D01*
X0028676Y0050048D02*
X0022634Y0050048D01*
X0022634Y0051047D02*
X0028897Y0051047D01*
X0029310Y0052045D02*
X0022634Y0052045D01*
X0022634Y0053044D02*
X0029933Y0053044D01*
X0030931Y0054042D02*
X0022634Y0054042D01*
X0022634Y0055041D02*
X0030525Y0055041D01*
X0029556Y0056039D02*
X0022634Y0056039D01*
X0022634Y0057038D02*
X0029142Y0057038D01*
X0028729Y0058036D02*
X0022634Y0058036D01*
X0022634Y0059035D02*
X0028676Y0059035D01*
X0028676Y0060033D02*
X0022634Y0060033D01*
X0022634Y0061032D02*
X0028891Y0061032D01*
X0029304Y0062030D02*
X0022634Y0062030D01*
X0022634Y0063029D02*
X0029918Y0063029D01*
X0030916Y0064027D02*
X0022634Y0064027D01*
X0022634Y0065026D02*
X0030540Y0065026D01*
X0029562Y0066024D02*
X0022634Y0066024D01*
X0022634Y0067023D02*
X0029148Y0067023D01*
X0028735Y0068021D02*
X0022634Y0068021D01*
X0022634Y0069020D02*
X0028676Y0069020D01*
X0028676Y0070018D02*
X0022634Y0070018D01*
X0022634Y0071017D02*
X0028884Y0071017D01*
X0029298Y0072015D02*
X0022634Y0072015D01*
X0022634Y0073014D02*
X0029903Y0073014D01*
X0030901Y0074012D02*
X0022634Y0074012D01*
X0022634Y0075011D02*
X0030555Y0075011D01*
X0029568Y0076009D02*
X0022634Y0076009D01*
X0022634Y0077008D02*
X0029155Y0077008D01*
X0028741Y0078006D02*
X0022634Y0078006D01*
X0022634Y0079005D02*
X0028676Y0079005D01*
X0028676Y0080003D02*
X0022634Y0080003D01*
X0022634Y0081002D02*
X0028878Y0081002D01*
X0029292Y0082001D02*
X0022634Y0082001D01*
X0022634Y0082999D02*
X0029888Y0082999D01*
X0030887Y0083998D02*
X0022634Y0083998D01*
X0022634Y0084996D02*
X0030570Y0084996D01*
X0029574Y0085995D02*
X0022634Y0085995D01*
X0022634Y0086993D02*
X0029161Y0086993D01*
X0028747Y0087992D02*
X0022634Y0087992D01*
X0022634Y0088990D02*
X0028676Y0088990D01*
X0028676Y0089989D02*
X0022634Y0089989D01*
X0022634Y0090987D02*
X0028872Y0090987D01*
X0029286Y0091986D02*
X0022634Y0091986D01*
X0022634Y0092984D02*
X0029873Y0092984D01*
X0030872Y0093983D02*
X0022634Y0093983D01*
X0022634Y0094981D02*
X0030585Y0094981D01*
X0029587Y0095980D02*
X0022634Y0095980D01*
X0022634Y0096978D02*
X0029167Y0096978D01*
X0028753Y0097977D02*
X0022634Y0097977D01*
X0022634Y0098975D02*
X0028676Y0098975D01*
X0028676Y0099974D02*
X0022634Y0099974D01*
X0022634Y0100972D02*
X0028866Y0100972D01*
X0029280Y0101971D02*
X0022634Y0101971D01*
X0022634Y0102969D02*
X0029858Y0102969D01*
X0030857Y0103968D02*
X0022634Y0103968D01*
X0022634Y0104966D02*
X0030600Y0104966D01*
X0029601Y0105965D02*
X0022634Y0105965D01*
X0022634Y0106963D02*
X0029173Y0106963D01*
X0028760Y0107962D02*
X0022634Y0107962D01*
X0022634Y0108960D02*
X0028676Y0108960D01*
X0028676Y0109959D02*
X0022634Y0109959D01*
X0022634Y0110957D02*
X0028860Y0110957D01*
X0029273Y0111956D02*
X0022634Y0111956D01*
X0022634Y0112954D02*
X0029843Y0112954D01*
X0030842Y0113953D02*
X0022634Y0113953D01*
X0022634Y0114951D02*
X0030615Y0114951D01*
X0029616Y0115950D02*
X0022634Y0115950D01*
X0022634Y0116948D02*
X0029179Y0116948D01*
X0028766Y0117947D02*
X0022634Y0117947D01*
X0022634Y0118945D02*
X0028676Y0118945D01*
X0028676Y0119944D02*
X0022634Y0119944D01*
X0022634Y0120942D02*
X0028854Y0120942D01*
X0029267Y0121941D02*
X0022634Y0121941D01*
X0022634Y0122939D02*
X0029829Y0122939D01*
X0030827Y0123938D02*
X0022634Y0123938D01*
X0022634Y0124936D02*
X0032654Y0124936D01*
X0036522Y0124936D02*
X0037734Y0124936D01*
X0037734Y0125935D02*
X0022634Y0125935D01*
X0022634Y0126934D02*
X0037734Y0126934D01*
X0037734Y0127932D02*
X0022634Y0127932D01*
X0022634Y0128931D02*
X0037734Y0128931D01*
X0037734Y0129929D02*
X0022634Y0129929D01*
X0022634Y0130928D02*
X0037734Y0130928D01*
X0037734Y0131926D02*
X0022634Y0131926D01*
X0022634Y0132925D02*
X0037734Y0132925D01*
X0037734Y0133923D02*
X0036962Y0133923D01*
X0032214Y0133923D02*
X0022634Y0133923D01*
X0022634Y0134922D02*
X0030645Y0134922D01*
X0029646Y0135920D02*
X0022634Y0135920D01*
X0022634Y0136919D02*
X0029192Y0136919D01*
X0028778Y0137917D02*
X0022634Y0137917D01*
X0022634Y0138916D02*
X0028676Y0138916D01*
X0028676Y0139914D02*
X0022634Y0139914D01*
X0022634Y0140913D02*
X0028841Y0140913D01*
X0029255Y0141911D02*
X0022634Y0141911D01*
X0022634Y0142910D02*
X0029799Y0142910D01*
X0030797Y0143908D02*
X0022634Y0143908D01*
X0022634Y0144907D02*
X0030659Y0144907D01*
X0029661Y0145905D02*
X0022634Y0145905D01*
X0022634Y0146904D02*
X0029198Y0146904D01*
X0028784Y0147902D02*
X0022634Y0147902D01*
X0022634Y0148901D02*
X0028676Y0148901D01*
X0028676Y0149899D02*
X0022634Y0149899D01*
X0022634Y0150898D02*
X0028835Y0150898D01*
X0029249Y0151896D02*
X0022634Y0151896D01*
X0022634Y0152895D02*
X0029784Y0152895D01*
X0030782Y0153893D02*
X0022634Y0153893D01*
X0022634Y0154892D02*
X0030674Y0154892D01*
X0029676Y0155890D02*
X0022634Y0155890D01*
X0022634Y0156889D02*
X0029204Y0156889D01*
X0028790Y0157887D02*
X0022634Y0157887D01*
X0022634Y0158886D02*
X0028676Y0158886D01*
X0028676Y0159884D02*
X0022634Y0159884D01*
X0022634Y0160883D02*
X0028829Y0160883D01*
X0029243Y0161881D02*
X0022634Y0161881D01*
X0022634Y0162880D02*
X0029769Y0162880D01*
X0028991Y0163878D02*
X0022634Y0163878D01*
X0022634Y0164877D02*
X0027992Y0164877D01*
X0027507Y0165875D02*
X0022634Y0165875D01*
X0022634Y0166874D02*
X0027094Y0166874D01*
X0026709Y0167872D02*
X0022634Y0167872D01*
X0022634Y0168871D02*
X0026709Y0168871D01*
X0026709Y0169870D02*
X0022634Y0169870D01*
X0022634Y0170868D02*
X0026723Y0170868D01*
X0027137Y0171867D02*
X0022634Y0171867D01*
X0022634Y0172865D02*
X0027550Y0172865D01*
X0028097Y0173864D02*
X0022634Y0173864D01*
X0022634Y0174862D02*
X0029095Y0174862D01*
X0030205Y0175861D02*
X0022634Y0175861D01*
X0022634Y0176859D02*
X0032616Y0176859D01*
X0035993Y0176883D02*
X0187007Y0176883D01*
X0184206Y0175723D01*
X0182062Y0173579D01*
X0180901Y0170776D01*
X0180901Y0167743D01*
X0180952Y0167620D01*
X0180915Y0167635D01*
X0172674Y0167635D01*
X0171608Y0167194D01*
X0170793Y0166378D01*
X0170490Y0165648D01*
X0170229Y0166278D01*
X0169414Y0167094D01*
X0168348Y0167535D01*
X0160107Y0167535D01*
X0159042Y0167094D01*
X0158226Y0166278D01*
X0157908Y0165511D01*
X0155824Y0165486D01*
X0155032Y0165486D01*
X0155009Y0165476D01*
X0154984Y0165476D01*
X0154257Y0165165D01*
X0153526Y0164862D01*
X0153508Y0164844D01*
X0153484Y0164834D01*
X0152931Y0164268D01*
X0146467Y0157803D01*
X0145843Y0156296D01*
X0145843Y0149185D01*
X0141814Y0153213D01*
X0132888Y0153213D01*
X0126577Y0146902D01*
X0126577Y0146539D01*
X0122481Y0146539D01*
X0123364Y0147422D01*
X0124390Y0149899D01*
X0124390Y0152580D01*
X0123702Y0154239D01*
X0124390Y0155899D01*
X0124390Y0158580D01*
X0123364Y0161056D01*
X0121468Y0162952D01*
X0118992Y0163978D01*
X0116311Y0163978D01*
X0113834Y0162952D01*
X0111938Y0161056D01*
X0110913Y0158580D01*
X0110913Y0155899D01*
X0111600Y0154239D01*
X0110913Y0152580D01*
X0110913Y0149899D01*
X0111938Y0147422D01*
X0112821Y0146539D01*
X0108911Y0146539D01*
X0107634Y0147816D01*
X0107634Y0156034D01*
X0107010Y0157541D01*
X0103010Y0161541D01*
X0101856Y0162694D01*
X0100349Y0163318D01*
X0099316Y0163318D01*
X0100898Y0164899D01*
X0102058Y0167702D01*
X0102058Y0170735D01*
X0100898Y0173537D01*
X0098753Y0175682D01*
X0095950Y0176843D01*
X0092917Y0176843D01*
X0090115Y0175682D01*
X0087970Y0173537D01*
X0086809Y0170735D01*
X0086809Y0167702D01*
X0087970Y0164899D01*
X0089800Y0163069D01*
X0089419Y0162687D01*
X0088519Y0160515D01*
X0088519Y0158770D01*
X0088261Y0159393D01*
X0083657Y0163996D01*
X0083657Y0168374D01*
X0083216Y0169440D01*
X0082400Y0170255D01*
X0081334Y0170697D01*
X0073082Y0170697D01*
X0072016Y0170255D01*
X0071200Y0169440D01*
X0070860Y0168618D01*
X0068434Y0168618D01*
X0068434Y0168945D01*
X0067993Y0170010D01*
X0067177Y0170826D01*
X0066111Y0171268D01*
X0057859Y0171268D01*
X0056793Y0170826D01*
X0055977Y0170010D01*
X0055536Y0168945D01*
X0055536Y0162718D01*
X0051054Y0162718D01*
X0050485Y0163287D01*
X0048765Y0163999D01*
X0046903Y0163999D01*
X0045182Y0163287D01*
X0043865Y0161970D01*
X0043153Y0160249D01*
X0043153Y0158387D01*
X0043865Y0156666D01*
X0044120Y0156412D01*
X0039833Y0152125D01*
X0039600Y0152687D01*
X0037949Y0154339D01*
X0039600Y0155990D01*
X0040500Y0158163D01*
X0040500Y0160515D01*
X0039600Y0162687D01*
X0039043Y0163245D01*
X0040798Y0164999D01*
X0041958Y0167802D01*
X0041958Y0170835D01*
X0040798Y0173637D01*
X0038653Y0175782D01*
X0035993Y0176883D01*
X0036052Y0176859D02*
X0186948Y0176859D01*
X0184537Y0175861D02*
X0098321Y0175861D01*
X0099572Y0174862D02*
X0183345Y0174862D01*
X0182346Y0173864D02*
X0100571Y0173864D01*
X0101176Y0172865D02*
X0181766Y0172865D01*
X0181352Y0171867D02*
X0143892Y0171867D01*
X0144168Y0171752D02*
X0141692Y0172778D01*
X0139011Y0172778D01*
X0137351Y0172091D01*
X0135692Y0172778D01*
X0133011Y0172778D01*
X0130534Y0171752D01*
X0128638Y0169856D01*
X0127613Y0167380D01*
X0127613Y0164699D01*
X0128638Y0162222D01*
X0130534Y0160327D01*
X0133011Y0159301D01*
X0135692Y0159301D01*
X0137351Y0159988D01*
X0139011Y0159301D01*
X0141692Y0159301D01*
X0144168Y0160327D01*
X0146064Y0162222D01*
X0147090Y0164699D01*
X0147090Y0167380D01*
X0146064Y0169856D01*
X0144168Y0171752D01*
X0145052Y0170868D02*
X0180939Y0170868D01*
X0180901Y0169870D02*
X0146051Y0169870D01*
X0146472Y0168871D02*
X0180901Y0168871D01*
X0180901Y0167872D02*
X0146886Y0167872D01*
X0147090Y0166874D02*
X0158822Y0166874D01*
X0158059Y0165875D02*
X0147090Y0165875D01*
X0147090Y0164877D02*
X0153563Y0164877D01*
X0152542Y0163878D02*
X0146750Y0163878D01*
X0146336Y0162880D02*
X0151544Y0162880D01*
X0150545Y0161881D02*
X0145723Y0161881D01*
X0144724Y0160883D02*
X0149547Y0160883D01*
X0148548Y0159884D02*
X0143100Y0159884D01*
X0146551Y0157887D02*
X0124390Y0157887D01*
X0124390Y0156889D02*
X0146088Y0156889D01*
X0145843Y0155890D02*
X0124386Y0155890D01*
X0123973Y0154892D02*
X0145843Y0154892D01*
X0145843Y0153893D02*
X0123846Y0153893D01*
X0124259Y0152895D02*
X0132570Y0152895D01*
X0131571Y0151896D02*
X0124390Y0151896D01*
X0124390Y0150898D02*
X0130573Y0150898D01*
X0129574Y0149899D02*
X0124390Y0149899D01*
X0123976Y0148901D02*
X0128576Y0148901D01*
X0127577Y0147902D02*
X0123563Y0147902D01*
X0122845Y0146904D02*
X0126579Y0146904D01*
X0124263Y0158886D02*
X0147550Y0158886D01*
X0145843Y0152895D02*
X0142132Y0152895D01*
X0143131Y0151896D02*
X0145843Y0151896D01*
X0145843Y0150898D02*
X0144130Y0150898D01*
X0145128Y0149899D02*
X0145843Y0149899D01*
X0154043Y0149899D02*
X0165430Y0149899D01*
X0165430Y0148901D02*
X0154043Y0148901D01*
X0154043Y0147902D02*
X0165430Y0147902D01*
X0165430Y0146904D02*
X0154043Y0146904D01*
X0154043Y0145905D02*
X0165430Y0145905D01*
X0165430Y0144907D02*
X0154043Y0144907D01*
X0154043Y0143908D02*
X0165567Y0143908D01*
X0165430Y0144239D02*
X0165871Y0143173D01*
X0166630Y0142415D01*
X0166630Y0132046D01*
X0163066Y0132046D01*
X0162001Y0131604D01*
X0161185Y0130788D01*
X0160743Y0129723D01*
X0160743Y0119907D01*
X0161185Y0118842D01*
X0162001Y0118026D01*
X0163066Y0117584D01*
X0164574Y0117584D01*
X0164365Y0117081D01*
X0164365Y0114695D01*
X0162616Y0116444D01*
X0161660Y0117400D01*
X0160410Y0117918D01*
X0156592Y0117918D01*
X0156592Y0118219D01*
X0156150Y0119285D01*
X0155344Y0120091D01*
X0156150Y0120897D01*
X0156592Y0121963D01*
X0156592Y0129416D01*
X0156150Y0130482D01*
X0155334Y0131298D01*
X0154269Y0131739D01*
X0154060Y0131739D01*
X0154043Y0132314D01*
X0154043Y0153782D01*
X0157567Y0157306D01*
X0157970Y0157311D01*
X0158226Y0156693D01*
X0159042Y0155878D01*
X0160107Y0155436D01*
X0166049Y0155436D01*
X0165871Y0155258D01*
X0165430Y0154193D01*
X0165430Y0144239D01*
X0166135Y0142910D02*
X0154043Y0142910D01*
X0154043Y0141911D02*
X0166630Y0141911D01*
X0166630Y0140913D02*
X0154043Y0140913D01*
X0154043Y0139914D02*
X0166630Y0139914D01*
X0166630Y0138916D02*
X0154043Y0138916D01*
X0154043Y0137917D02*
X0166630Y0137917D01*
X0166630Y0136919D02*
X0154043Y0136919D01*
X0154043Y0135920D02*
X0166630Y0135920D01*
X0166630Y0134922D02*
X0154043Y0134922D01*
X0154043Y0133923D02*
X0166630Y0133923D01*
X0166630Y0132925D02*
X0154043Y0132925D01*
X0154054Y0131926D02*
X0162778Y0131926D01*
X0161324Y0130928D02*
X0155705Y0130928D01*
X0156379Y0129929D02*
X0160829Y0129929D01*
X0160743Y0128931D02*
X0156592Y0128931D01*
X0156592Y0127932D02*
X0160743Y0127932D01*
X0160743Y0126934D02*
X0156592Y0126934D01*
X0156592Y0125935D02*
X0160743Y0125935D01*
X0160743Y0124936D02*
X0156592Y0124936D01*
X0156592Y0123938D02*
X0160743Y0123938D01*
X0160743Y0122939D02*
X0156592Y0122939D01*
X0156582Y0121941D02*
X0160743Y0121941D01*
X0160743Y0120942D02*
X0156169Y0120942D01*
X0155492Y0119944D02*
X0160743Y0119944D01*
X0161142Y0118945D02*
X0156291Y0118945D01*
X0156592Y0117947D02*
X0162191Y0117947D01*
X0162112Y0116948D02*
X0164365Y0116948D01*
X0164365Y0115950D02*
X0163110Y0115950D01*
X0164109Y0114951D02*
X0164365Y0114951D01*
X0163334Y0110918D02*
X0159734Y0114518D01*
X0150168Y0114518D01*
X0150143Y0114493D01*
X0150267Y0104382D02*
X0150431Y0104218D01*
X0158834Y0104218D01*
X0156848Y0099974D02*
X0156200Y0099974D01*
X0156295Y0100203D02*
X0157903Y0099537D01*
X0159765Y0099537D01*
X0159934Y0099607D01*
X0159934Y0098426D01*
X0158426Y0096918D01*
X0148158Y0096918D01*
X0146908Y0096400D01*
X0145951Y0095444D01*
X0143351Y0092844D01*
X0142834Y0091594D01*
X0142834Y0089570D01*
X0142261Y0089570D01*
X0141195Y0089129D01*
X0140379Y0088313D01*
X0139938Y0087247D01*
X0139938Y0081880D01*
X0139457Y0081399D01*
X0139203Y0081399D01*
X0137482Y0080687D01*
X0136165Y0079370D01*
X0135453Y0077649D01*
X0135453Y0075787D01*
X0136165Y0074066D01*
X0137482Y0072750D01*
X0139203Y0072037D01*
X0141065Y0072037D01*
X0142785Y0072750D01*
X0144102Y0074066D01*
X0144815Y0075787D01*
X0144815Y0076672D01*
X0149714Y0076672D01*
X0150780Y0077114D01*
X0151586Y0077920D01*
X0152392Y0077114D01*
X0153458Y0076672D01*
X0159590Y0076672D01*
X0156112Y0073195D01*
X0155504Y0071727D01*
X0153303Y0071727D01*
X0153092Y0071640D01*
X0152882Y0071727D01*
X0148972Y0071727D01*
X0148761Y0071640D01*
X0148551Y0071727D01*
X0144641Y0071727D01*
X0143575Y0071285D01*
X0142760Y0070469D01*
X0142318Y0069404D01*
X0142318Y0058014D01*
X0142448Y0057699D01*
X0134403Y0057699D01*
X0133988Y0058114D01*
X0132334Y0058799D01*
X0130543Y0058799D01*
X0130402Y0058740D01*
X0130402Y0063104D01*
X0129960Y0064170D01*
X0129144Y0064986D01*
X0128078Y0065428D01*
X0127742Y0065428D01*
X0128810Y0066496D01*
X0134610Y0072296D01*
X0135234Y0073803D01*
X0135234Y0093098D01*
X0135882Y0092450D01*
X0137603Y0091737D01*
X0139465Y0091737D01*
X0141185Y0092450D01*
X0142502Y0093766D01*
X0143215Y0095487D01*
X0143215Y0097349D01*
X0142947Y0097995D01*
X0143862Y0098374D01*
X0144668Y0099180D01*
X0145475Y0098374D01*
X0146540Y0097933D01*
X0153993Y0097933D01*
X0155059Y0098374D01*
X0155875Y0099190D01*
X0156295Y0100203D01*
X0155660Y0098975D02*
X0159934Y0098975D01*
X0159484Y0097977D02*
X0154100Y0097977D01*
X0158486Y0096978D02*
X0143215Y0096978D01*
X0143215Y0095980D02*
X0146487Y0095980D01*
X0145951Y0095444D02*
X0145951Y0095444D01*
X0145489Y0094981D02*
X0143005Y0094981D01*
X0142592Y0093983D02*
X0144490Y0093983D01*
X0143492Y0092984D02*
X0141720Y0092984D01*
X0142996Y0091986D02*
X0140065Y0091986D01*
X0142834Y0090987D02*
X0135234Y0090987D01*
X0135234Y0089989D02*
X0142834Y0089989D01*
X0141056Y0088990D02*
X0135234Y0088990D01*
X0135234Y0087992D02*
X0140246Y0087992D01*
X0139938Y0086993D02*
X0135234Y0086993D01*
X0135234Y0085995D02*
X0139938Y0085995D01*
X0139938Y0084996D02*
X0135234Y0084996D01*
X0135234Y0083998D02*
X0139938Y0083998D01*
X0139938Y0082999D02*
X0135234Y0082999D01*
X0135234Y0082001D02*
X0139938Y0082001D01*
X0138244Y0081002D02*
X0135234Y0081002D01*
X0135234Y0080003D02*
X0136799Y0080003D01*
X0136014Y0079005D02*
X0135234Y0079005D01*
X0135234Y0078006D02*
X0135601Y0078006D01*
X0135453Y0077008D02*
X0135234Y0077008D01*
X0135234Y0076009D02*
X0135453Y0076009D01*
X0135234Y0075011D02*
X0135774Y0075011D01*
X0136219Y0074012D02*
X0135234Y0074012D01*
X0134907Y0073014D02*
X0137218Y0073014D01*
X0134329Y0072015D02*
X0155624Y0072015D01*
X0156037Y0073014D02*
X0143050Y0073014D01*
X0144048Y0074012D02*
X0156930Y0074012D01*
X0157928Y0075011D02*
X0144493Y0075011D01*
X0144815Y0076009D02*
X0158927Y0076009D01*
X0152647Y0077008D02*
X0150525Y0077008D01*
X0143307Y0071017D02*
X0133331Y0071017D01*
X0132332Y0070018D02*
X0142573Y0070018D01*
X0142318Y0069020D02*
X0131334Y0069020D01*
X0130335Y0068021D02*
X0142318Y0068021D01*
X0142318Y0067023D02*
X0129337Y0067023D01*
X0128338Y0066024D02*
X0142318Y0066024D01*
X0142318Y0065026D02*
X0129048Y0065026D01*
X0130019Y0064027D02*
X0142318Y0064027D01*
X0142318Y0063029D02*
X0130402Y0063029D01*
X0130402Y0062030D02*
X0142318Y0062030D01*
X0142318Y0061032D02*
X0130402Y0061032D01*
X0130402Y0060033D02*
X0142318Y0060033D01*
X0142318Y0059035D02*
X0130402Y0059035D01*
X0134066Y0058036D02*
X0142318Y0058036D01*
X0147515Y0054299D02*
X0150934Y0057718D01*
X0150934Y0063702D01*
X0150927Y0063709D01*
X0155257Y0063709D02*
X0155257Y0056071D01*
X0152698Y0053512D01*
X0147515Y0054299D02*
X0131439Y0054299D01*
X0133801Y0043669D02*
X0155848Y0043669D01*
X0163919Y0051740D01*
X0163919Y0063709D01*
X0168197Y0064027D02*
X0168302Y0064027D01*
X0168302Y0063029D02*
X0168197Y0063029D01*
X0168197Y0062030D02*
X0168302Y0062030D01*
X0168302Y0061032D02*
X0168197Y0061032D01*
X0168197Y0060033D02*
X0168302Y0060033D01*
X0168302Y0059035D02*
X0168197Y0059035D01*
X0168197Y0058036D02*
X0168302Y0058036D01*
X0168302Y0058014D02*
X0168744Y0056948D01*
X0169180Y0056511D01*
X0169180Y0048995D01*
X0169698Y0047746D01*
X0172034Y0045410D01*
X0172034Y0029181D01*
X0172551Y0027932D01*
X0172777Y0027706D01*
X0172777Y0027119D01*
X0173462Y0025465D01*
X0174445Y0024483D01*
X0173896Y0024483D01*
X0171962Y0023682D01*
X0170481Y0022201D01*
X0169680Y0020267D01*
X0169680Y0018174D01*
X0170481Y0016240D01*
X0171962Y0014759D01*
X0173896Y0013958D01*
X0175989Y0013958D01*
X0177923Y0014759D01*
X0179404Y0016240D01*
X0180205Y0018174D01*
X0180205Y0020267D01*
X0179404Y0022201D01*
X0178091Y0023514D01*
X0178172Y0023514D01*
X0179826Y0024199D01*
X0180310Y0024683D01*
X0180310Y0015100D01*
X0178264Y0015100D01*
X0179263Y0016099D02*
X0180310Y0016099D01*
X0180310Y0017097D02*
X0179759Y0017097D01*
X0180172Y0018096D02*
X0180310Y0018096D01*
X0180310Y0019094D02*
X0180205Y0019094D01*
X0180205Y0020093D02*
X0180310Y0020093D01*
X0180310Y0021091D02*
X0179863Y0021091D01*
X0179450Y0022090D02*
X0180310Y0022090D01*
X0180310Y0023088D02*
X0178517Y0023088D01*
X0179555Y0024087D02*
X0180310Y0024087D01*
X0181777Y0028459D02*
X0181777Y0028909D01*
X0181092Y0030563D01*
X0179826Y0031829D01*
X0178834Y0032240D01*
X0178834Y0047494D01*
X0178316Y0048744D01*
X0177360Y0049700D01*
X0175980Y0051080D01*
X0175980Y0055691D01*
X0178866Y0055691D01*
X0179076Y0055778D01*
X0179287Y0055691D01*
X0180507Y0055691D01*
X0180507Y0054077D01*
X0180949Y0053011D01*
X0181764Y0052195D01*
X0182830Y0051754D01*
X0192999Y0051754D01*
X0192999Y0028100D01*
X0192727Y0028372D01*
X0191661Y0028813D01*
X0182633Y0028813D01*
X0181777Y0028459D01*
X0181707Y0029079D02*
X0192999Y0029079D01*
X0192999Y0030078D02*
X0181293Y0030078D01*
X0180579Y0031076D02*
X0192999Y0031076D01*
X0192999Y0032075D02*
X0179233Y0032075D01*
X0178834Y0033073D02*
X0192999Y0033073D01*
X0192999Y0034072D02*
X0178834Y0034072D01*
X0178834Y0035070D02*
X0192999Y0035070D01*
X0192999Y0036069D02*
X0178834Y0036069D01*
X0178834Y0037067D02*
X0192999Y0037067D01*
X0192999Y0038066D02*
X0178834Y0038066D01*
X0178834Y0039065D02*
X0192999Y0039065D01*
X0192999Y0040063D02*
X0178834Y0040063D01*
X0178834Y0041062D02*
X0192999Y0041062D01*
X0192999Y0042060D02*
X0178834Y0042060D01*
X0178834Y0043059D02*
X0192999Y0043059D01*
X0192999Y0044057D02*
X0178834Y0044057D01*
X0178834Y0045056D02*
X0192999Y0045056D01*
X0192999Y0046054D02*
X0178834Y0046054D01*
X0178834Y0047053D02*
X0192999Y0047053D01*
X0192999Y0048051D02*
X0178603Y0048051D01*
X0178011Y0049050D02*
X0192999Y0049050D01*
X0192999Y0050048D02*
X0177012Y0050048D01*
X0176014Y0051047D02*
X0192999Y0051047D01*
X0182126Y0052045D02*
X0175980Y0052045D01*
X0175980Y0053044D02*
X0180935Y0053044D01*
X0180521Y0054042D02*
X0175980Y0054042D01*
X0175980Y0055041D02*
X0180507Y0055041D01*
X0172580Y0051972D02*
X0172580Y0049672D01*
X0175434Y0046818D01*
X0175434Y0029857D01*
X0177277Y0028014D01*
X0173206Y0026084D02*
X0166334Y0026084D01*
X0166334Y0027082D02*
X0172792Y0027082D01*
X0172490Y0028081D02*
X0166334Y0028081D01*
X0166334Y0029079D02*
X0172076Y0029079D01*
X0172034Y0030078D02*
X0166334Y0030078D01*
X0166334Y0030471D02*
X0166809Y0031619D01*
X0166809Y0033409D01*
X0166124Y0035063D01*
X0164858Y0036329D01*
X0163205Y0037014D01*
X0161414Y0037014D01*
X0159760Y0036329D01*
X0158495Y0035063D01*
X0157809Y0033409D01*
X0157809Y0031619D01*
X0158134Y0030836D01*
X0158134Y0017716D01*
X0157478Y0017061D01*
X0150229Y0017061D01*
X0149263Y0017461D01*
X0148413Y0017461D01*
X0148709Y0018174D01*
X0148709Y0020267D01*
X0147908Y0022201D01*
X0146427Y0023682D01*
X0144493Y0024483D01*
X0142400Y0024483D01*
X0140466Y0023682D01*
X0139169Y0022385D01*
X0139169Y0027319D01*
X0139584Y0027734D01*
X0140269Y0029388D01*
X0140269Y0031179D01*
X0139584Y0032833D01*
X0138318Y0034098D01*
X0137545Y0034419D01*
X0137907Y0035294D01*
X0137907Y0037084D01*
X0137222Y0038738D01*
X0136177Y0039783D01*
X0136350Y0039854D01*
X0136765Y0040269D01*
X0156524Y0040269D01*
X0157774Y0040787D01*
X0166801Y0049814D01*
X0167319Y0051064D01*
X0167319Y0056511D01*
X0167755Y0056948D01*
X0168197Y0058014D01*
X0168197Y0069404D01*
X0167755Y0070469D01*
X0167207Y0071018D01*
X0168849Y0071018D01*
X0170356Y0071642D01*
X0176110Y0077396D01*
X0176734Y0078903D01*
X0176734Y0091234D01*
X0176110Y0092741D01*
X0174956Y0093894D01*
X0174515Y0094335D01*
X0174515Y0106672D01*
X0175207Y0106959D01*
X0176023Y0107775D01*
X0176465Y0108840D01*
X0176465Y0117081D01*
X0176256Y0117584D01*
X0178393Y0117584D01*
X0179459Y0118026D01*
X0180275Y0118842D01*
X0180717Y0119907D01*
X0180717Y0129723D01*
X0180275Y0130788D01*
X0179459Y0131604D01*
X0178393Y0132046D01*
X0174830Y0132046D01*
X0174830Y0142415D01*
X0175280Y0142865D01*
X0175787Y0142357D01*
X0176853Y0141916D01*
X0182807Y0141916D01*
X0183873Y0142357D01*
X0184688Y0143173D01*
X0185130Y0144239D01*
X0185130Y0154193D01*
X0184688Y0155258D01*
X0183930Y0156017D01*
X0183930Y0159870D01*
X0183974Y0159999D01*
X0183930Y0160682D01*
X0183930Y0161366D01*
X0183878Y0161491D01*
X0183869Y0161626D01*
X0183568Y0162241D01*
X0183306Y0162873D01*
X0183238Y0162941D01*
X0183238Y0163765D01*
X0184206Y0162796D01*
X0187009Y0161635D01*
X0190042Y0161635D01*
X0192844Y0162796D01*
X0192999Y0162951D01*
X0192999Y0065428D01*
X0185520Y0065428D01*
X0185520Y0069404D01*
X0185078Y0070469D01*
X0184262Y0071285D01*
X0183197Y0071727D01*
X0179287Y0071727D01*
X0179076Y0071640D01*
X0178866Y0071727D01*
X0174956Y0071727D01*
X0174746Y0071640D01*
X0174535Y0071727D01*
X0170626Y0071727D01*
X0169560Y0071285D01*
X0168744Y0070469D01*
X0168302Y0069404D01*
X0168302Y0058014D01*
X0168707Y0057038D02*
X0167793Y0057038D01*
X0167319Y0056039D02*
X0169180Y0056039D01*
X0169180Y0055041D02*
X0167319Y0055041D01*
X0167319Y0054042D02*
X0169180Y0054042D01*
X0169180Y0053044D02*
X0167319Y0053044D01*
X0167319Y0052045D02*
X0169180Y0052045D01*
X0169180Y0051047D02*
X0167312Y0051047D01*
X0166898Y0050048D02*
X0169180Y0050048D01*
X0169180Y0049050D02*
X0166037Y0049050D01*
X0165038Y0048051D02*
X0169571Y0048051D01*
X0170391Y0047053D02*
X0164040Y0047053D01*
X0163041Y0046054D02*
X0171390Y0046054D01*
X0172034Y0045056D02*
X0162043Y0045056D01*
X0161044Y0044057D02*
X0172034Y0044057D01*
X0172034Y0043059D02*
X0160046Y0043059D01*
X0159047Y0042060D02*
X0172034Y0042060D01*
X0172034Y0041062D02*
X0158049Y0041062D01*
X0159500Y0036069D02*
X0137907Y0036069D01*
X0137907Y0037067D02*
X0172034Y0037067D01*
X0172034Y0036069D02*
X0165119Y0036069D01*
X0166117Y0035070D02*
X0172034Y0035070D01*
X0172034Y0034072D02*
X0166535Y0034072D01*
X0166809Y0033073D02*
X0172034Y0033073D01*
X0172034Y0032075D02*
X0166809Y0032075D01*
X0166585Y0031076D02*
X0172034Y0031076D01*
X0166334Y0030471D02*
X0166334Y0015203D01*
X0165710Y0013696D01*
X0164556Y0012542D01*
X0161499Y0009485D01*
X0159992Y0008861D01*
X0150229Y0008861D01*
X0149263Y0008461D01*
X0147473Y0008461D01*
X0145819Y0009146D01*
X0144553Y0010412D01*
X0143868Y0012066D01*
X0143868Y0013856D01*
X0143910Y0013958D01*
X0142400Y0013958D01*
X0140466Y0014759D01*
X0139005Y0016220D01*
X0138652Y0015365D01*
X0137695Y0014409D01*
X0137695Y0014409D01*
X0132352Y0009066D01*
X0132352Y0009066D01*
X0131396Y0008110D01*
X0130146Y0007592D01*
X0107237Y0007592D01*
X0106822Y0007177D01*
X0105231Y0006518D01*
X0181506Y0006518D01*
X0180901Y0007979D01*
X0180901Y0011013D01*
X0181778Y0013131D01*
X0181568Y0013219D01*
X0180752Y0014034D01*
X0180310Y0015100D01*
X0180724Y0014102D02*
X0176336Y0014102D01*
X0173549Y0014102D02*
X0165878Y0014102D01*
X0166291Y0015100D02*
X0171621Y0015100D01*
X0170622Y0016099D02*
X0166334Y0016099D01*
X0166334Y0017097D02*
X0170126Y0017097D01*
X0169713Y0018096D02*
X0166334Y0018096D01*
X0166334Y0019094D02*
X0169680Y0019094D01*
X0169680Y0020093D02*
X0166334Y0020093D01*
X0166334Y0021091D02*
X0170022Y0021091D01*
X0170435Y0022090D02*
X0166334Y0022090D01*
X0166334Y0023088D02*
X0171369Y0023088D01*
X0172940Y0024087D02*
X0166334Y0024087D01*
X0166334Y0025085D02*
X0173842Y0025085D01*
X0172034Y0038066D02*
X0137500Y0038066D01*
X0136895Y0039065D02*
X0172034Y0039065D01*
X0172034Y0040063D02*
X0136558Y0040063D01*
X0133407Y0036189D02*
X0127108Y0036189D01*
X0123171Y0040126D01*
X0104273Y0040126D01*
X0098761Y0034614D01*
X0086163Y0034614D01*
X0083139Y0031890D01*
X0079955Y0035070D02*
X0038681Y0035070D01*
X0037949Y0034339D02*
X0039600Y0035990D01*
X0040500Y0038163D01*
X0040500Y0040515D01*
X0039600Y0042687D01*
X0037949Y0044339D01*
X0039600Y0045990D01*
X0040500Y0048163D01*
X0040500Y0050515D01*
X0039600Y0052687D01*
X0037949Y0054339D01*
X0039549Y0055939D01*
X0043405Y0055939D01*
X0044851Y0054492D01*
X0045808Y0053536D01*
X0046298Y0053333D01*
X0045881Y0052326D01*
X0045881Y0049974D01*
X0046781Y0047801D01*
X0048432Y0046150D01*
X0046781Y0044498D01*
X0045881Y0042326D01*
X0045881Y0039974D01*
X0046781Y0037801D01*
X0048444Y0036138D01*
X0050617Y0035238D01*
X0052969Y0035238D01*
X0055142Y0036138D01*
X0056793Y0037789D01*
X0058444Y0036138D01*
X0060617Y0035238D01*
X0062969Y0035238D01*
X0065142Y0036138D01*
X0066753Y0037750D01*
X0073542Y0037750D01*
X0074791Y0038267D01*
X0079360Y0042836D01*
X0080316Y0043792D01*
X0080834Y0045042D01*
X0080834Y0048118D01*
X0081316Y0048601D01*
X0082002Y0050254D01*
X0082002Y0052045D01*
X0081316Y0053699D01*
X0080051Y0054965D01*
X0078397Y0055650D01*
X0076606Y0055650D01*
X0076534Y0055620D01*
X0076534Y0056410D01*
X0086063Y0065939D01*
X0089470Y0065939D01*
X0091070Y0064339D01*
X0089419Y0062687D01*
X0088519Y0060515D01*
X0088519Y0058163D01*
X0089419Y0055990D01*
X0091070Y0054339D01*
X0089419Y0052687D01*
X0088519Y0050515D01*
X0088519Y0048163D01*
X0089419Y0045990D01*
X0091070Y0044339D01*
X0089419Y0042687D01*
X0088519Y0040515D01*
X0088519Y0038163D01*
X0088580Y0038014D01*
X0086252Y0038014D01*
X0085665Y0038045D01*
X0085578Y0038014D01*
X0085487Y0038014D01*
X0084944Y0037789D01*
X0084390Y0037593D01*
X0084322Y0037532D01*
X0084237Y0037497D01*
X0083822Y0037081D01*
X0083054Y0036390D01*
X0082243Y0036390D01*
X0080590Y0035705D01*
X0079324Y0034439D01*
X0078639Y0032785D01*
X0078639Y0030995D01*
X0079324Y0029341D01*
X0080590Y0028075D01*
X0082243Y0027390D01*
X0084034Y0027390D01*
X0085688Y0028075D01*
X0086953Y0029341D01*
X0087639Y0030995D01*
X0087639Y0031214D01*
X0088809Y0031214D01*
X0088519Y0030515D01*
X0088519Y0028163D01*
X0089419Y0025990D01*
X0091070Y0024339D01*
X0089419Y0022687D01*
X0088519Y0020515D01*
X0088519Y0018163D01*
X0089419Y0015990D01*
X0089832Y0015577D01*
X0088070Y0013815D01*
X0086909Y0011013D01*
X0086909Y0007979D01*
X0087515Y0006518D01*
X0041353Y0006518D01*
X0041958Y0007979D01*
X0041958Y0011013D01*
X0040798Y0013815D01*
X0039111Y0015501D01*
X0039600Y0015990D01*
X0040319Y0017725D01*
X0041234Y0018042D01*
X0042078Y0018048D01*
X0042475Y0017651D01*
X0044129Y0016966D01*
X0045919Y0016966D01*
X0047573Y0017651D01*
X0048839Y0018917D01*
X0049524Y0020571D01*
X0049524Y0022361D01*
X0048839Y0024015D01*
X0047573Y0025281D01*
X0045919Y0025966D01*
X0044129Y0025966D01*
X0042475Y0025281D01*
X0042041Y0024847D01*
X0040741Y0024839D01*
X0040177Y0024873D01*
X0040069Y0024835D01*
X0039953Y0024834D01*
X0039433Y0024615D01*
X0038125Y0024162D01*
X0037949Y0024339D01*
X0039600Y0025990D01*
X0040500Y0028163D01*
X0040500Y0030515D01*
X0039600Y0032687D01*
X0037949Y0034339D01*
X0038215Y0034072D02*
X0079172Y0034072D01*
X0078758Y0033073D02*
X0039214Y0033073D01*
X0039854Y0032075D02*
X0078639Y0032075D01*
X0078639Y0031076D02*
X0040267Y0031076D01*
X0040500Y0030078D02*
X0079018Y0030078D01*
X0079585Y0029079D02*
X0040500Y0029079D01*
X0040466Y0028081D02*
X0080583Y0028081D01*
X0085694Y0028081D02*
X0088553Y0028081D01*
X0088519Y0029079D02*
X0086692Y0029079D01*
X0087259Y0030078D02*
X0088519Y0030078D01*
X0088752Y0031076D02*
X0087639Y0031076D01*
X0088966Y0027082D02*
X0040053Y0027082D01*
X0039639Y0026084D02*
X0089380Y0026084D01*
X0090323Y0025085D02*
X0047768Y0025085D01*
X0048767Y0024087D02*
X0090818Y0024087D01*
X0089820Y0023088D02*
X0049222Y0023088D01*
X0049524Y0022090D02*
X0089171Y0022090D01*
X0088758Y0021091D02*
X0049524Y0021091D01*
X0049326Y0020093D02*
X0088519Y0020093D01*
X0088519Y0019094D02*
X0048912Y0019094D01*
X0048017Y0018096D02*
X0088547Y0018096D01*
X0088960Y0017097D02*
X0046235Y0017097D01*
X0043812Y0017097D02*
X0040059Y0017097D01*
X0039645Y0016099D02*
X0089374Y0016099D01*
X0089355Y0015100D02*
X0039512Y0015100D01*
X0040511Y0014102D02*
X0088357Y0014102D01*
X0087775Y0013103D02*
X0041092Y0013103D01*
X0041506Y0012105D02*
X0087362Y0012105D01*
X0086948Y0011106D02*
X0041920Y0011106D01*
X0041958Y0010108D02*
X0086909Y0010108D01*
X0086909Y0009109D02*
X0041958Y0009109D01*
X0041958Y0008111D02*
X0086909Y0008111D01*
X0087269Y0007112D02*
X0041599Y0007112D01*
X0034588Y0019339D02*
X0040651Y0021439D01*
X0045024Y0021466D01*
X0042279Y0025085D02*
X0038696Y0025085D01*
X0039633Y0036069D02*
X0048610Y0036069D01*
X0047514Y0037067D02*
X0040046Y0037067D01*
X0040460Y0038066D02*
X0046671Y0038066D01*
X0046258Y0039065D02*
X0040500Y0039065D01*
X0040500Y0040063D02*
X0045881Y0040063D01*
X0045881Y0041062D02*
X0040273Y0041062D01*
X0039860Y0042060D02*
X0045881Y0042060D01*
X0046185Y0043059D02*
X0039229Y0043059D01*
X0038230Y0044057D02*
X0046598Y0044057D01*
X0047338Y0045056D02*
X0038666Y0045056D01*
X0039627Y0046054D02*
X0048337Y0046054D01*
X0047529Y0047053D02*
X0040040Y0047053D01*
X0040454Y0048051D02*
X0046677Y0048051D01*
X0046264Y0049050D02*
X0040500Y0049050D01*
X0040500Y0050048D02*
X0045881Y0050048D01*
X0045881Y0051047D02*
X0040280Y0051047D01*
X0039866Y0052045D02*
X0045881Y0052045D01*
X0046179Y0053044D02*
X0039244Y0053044D01*
X0038245Y0054042D02*
X0045301Y0054042D01*
X0044303Y0055041D02*
X0038651Y0055041D01*
X0034588Y0059339D02*
X0044813Y0059339D01*
X0047734Y0056418D01*
X0057061Y0056418D01*
X0061793Y0061150D01*
X0055881Y0061032D02*
X0047929Y0061032D01*
X0047696Y0061265D02*
X0046739Y0062221D01*
X0045490Y0062739D01*
X0039549Y0062739D01*
X0037949Y0064339D01*
X0039549Y0065939D01*
X0041905Y0065939D01*
X0043151Y0064692D01*
X0044108Y0063736D01*
X0045358Y0063218D01*
X0056251Y0063218D01*
X0055881Y0062326D01*
X0055881Y0060046D01*
X0055653Y0059818D01*
X0049142Y0059818D01*
X0047696Y0061265D01*
X0046930Y0062030D02*
X0055881Y0062030D01*
X0056172Y0063029D02*
X0039259Y0063029D01*
X0038260Y0064027D02*
X0043816Y0064027D01*
X0042818Y0065026D02*
X0038636Y0065026D01*
X0034588Y0069339D02*
X0043313Y0069339D01*
X0046034Y0066618D01*
X0057261Y0066618D01*
X0061793Y0071150D01*
X0056961Y0076318D02*
X0061793Y0081150D01*
X0056961Y0076318D02*
X0048134Y0076318D01*
X0045113Y0079339D01*
X0034588Y0079339D01*
X0043834Y0083418D02*
X0039213Y0089339D01*
X0034588Y0089339D01*
X0041681Y0095980D02*
X0058104Y0095980D01*
X0058104Y0095087D02*
X0058789Y0093433D01*
X0060055Y0092167D01*
X0061709Y0091482D01*
X0063499Y0091482D01*
X0065153Y0092167D01*
X0066419Y0093433D01*
X0067104Y0095087D01*
X0067104Y0096877D01*
X0066634Y0098012D01*
X0066634Y0103887D01*
X0067111Y0103410D01*
X0068177Y0102968D01*
X0075630Y0102968D01*
X0076695Y0103410D01*
X0077511Y0104225D01*
X0077953Y0105291D01*
X0077953Y0113543D01*
X0077511Y0114609D01*
X0077035Y0115086D01*
X0077598Y0115649D01*
X0078039Y0116714D01*
X0078039Y0124955D01*
X0077598Y0126021D01*
X0076782Y0126836D01*
X0076090Y0127123D01*
X0076090Y0128585D01*
X0076775Y0129271D01*
X0077434Y0128612D01*
X0078500Y0128171D01*
X0083590Y0128171D01*
X0084656Y0128612D01*
X0085049Y0129005D01*
X0088191Y0125863D01*
X0089698Y0125239D01*
X0090170Y0125239D01*
X0091070Y0124339D01*
X0089419Y0122687D01*
X0088519Y0120515D01*
X0088519Y0118163D01*
X0089419Y0115990D01*
X0091070Y0114339D01*
X0089419Y0112687D01*
X0088519Y0110515D01*
X0088519Y0108163D01*
X0089419Y0105990D01*
X0091070Y0104339D01*
X0089419Y0102687D01*
X0088519Y0100515D01*
X0088519Y0098163D01*
X0089419Y0095990D01*
X0091070Y0094339D01*
X0089419Y0092687D01*
X0088519Y0090515D01*
X0088519Y0088163D01*
X0089419Y0085990D01*
X0091070Y0084339D01*
X0089419Y0082687D01*
X0088519Y0080515D01*
X0088519Y0078163D01*
X0088841Y0077384D01*
X0087061Y0077384D01*
X0085812Y0076867D01*
X0085062Y0076117D01*
X0078045Y0076117D01*
X0078045Y0076443D01*
X0077604Y0077509D01*
X0076798Y0078315D01*
X0077604Y0079121D01*
X0078045Y0080187D01*
X0078045Y0087640D01*
X0077604Y0088706D01*
X0076788Y0089521D01*
X0075722Y0089963D01*
X0069797Y0089963D01*
X0069760Y0090000D01*
X0068510Y0090518D01*
X0047242Y0090518D01*
X0045660Y0092100D01*
X0045489Y0092171D01*
X0040206Y0097454D01*
X0040500Y0098163D01*
X0040500Y0100515D01*
X0039600Y0102687D01*
X0037949Y0104339D01*
X0038877Y0105267D01*
X0039351Y0104792D01*
X0040308Y0103836D01*
X0041525Y0103332D01*
X0041525Y0102848D01*
X0041966Y0101782D01*
X0042782Y0100967D01*
X0043848Y0100525D01*
X0052100Y0100525D01*
X0053166Y0100967D01*
X0053982Y0101782D01*
X0054423Y0102848D01*
X0054423Y0110301D01*
X0053982Y0111367D01*
X0053176Y0112173D01*
X0053982Y0112979D01*
X0054423Y0114045D01*
X0054423Y0121498D01*
X0053982Y0122564D01*
X0053166Y0123380D01*
X0052663Y0123588D01*
X0053188Y0124113D01*
X0053630Y0125179D01*
X0053630Y0126596D01*
X0059968Y0126596D01*
X0061034Y0127038D01*
X0061850Y0127853D01*
X0062291Y0128919D01*
X0062291Y0134010D01*
X0061850Y0135076D01*
X0061034Y0135892D01*
X0060739Y0136014D01*
X0061141Y0136180D01*
X0061947Y0136987D01*
X0062753Y0136180D01*
X0063819Y0135739D01*
X0071272Y0135739D01*
X0071912Y0136004D01*
X0069667Y0133759D01*
X0068514Y0132606D01*
X0067890Y0131099D01*
X0067890Y0127123D01*
X0067197Y0126836D01*
X0066382Y0126021D01*
X0065940Y0124955D01*
X0065940Y0116714D01*
X0066382Y0115649D01*
X0066858Y0115172D01*
X0066295Y0114609D01*
X0065854Y0113543D01*
X0065854Y0113517D01*
X0065418Y0113517D01*
X0063911Y0112893D01*
X0060211Y0109194D01*
X0059058Y0108041D01*
X0058434Y0106534D01*
X0058434Y0097673D01*
X0058104Y0096877D01*
X0058104Y0095087D01*
X0058148Y0094981D02*
X0042679Y0094981D01*
X0043678Y0093983D02*
X0058561Y0093983D01*
X0059238Y0092984D02*
X0044676Y0092984D01*
X0045775Y0091986D02*
X0060493Y0091986D01*
X0064715Y0091986D02*
X0089128Y0091986D01*
X0088715Y0090987D02*
X0046773Y0090987D01*
X0043734Y0089218D02*
X0045834Y0087118D01*
X0067834Y0087118D01*
X0069034Y0085918D01*
X0069591Y0085918D01*
X0071596Y0083913D01*
X0069772Y0089989D02*
X0088519Y0089989D01*
X0088519Y0088990D02*
X0077319Y0088990D01*
X0077900Y0087992D02*
X0088590Y0087992D01*
X0089003Y0086993D02*
X0078045Y0086993D01*
X0078045Y0085995D02*
X0089417Y0085995D01*
X0090413Y0084996D02*
X0078045Y0084996D01*
X0078045Y0083998D02*
X0090729Y0083998D01*
X0089731Y0082999D02*
X0078045Y0082999D01*
X0078045Y0082001D02*
X0089134Y0082001D01*
X0088721Y0081002D02*
X0078045Y0081002D01*
X0077969Y0080003D02*
X0088519Y0080003D01*
X0088519Y0079005D02*
X0077488Y0079005D01*
X0077106Y0078006D02*
X0088584Y0078006D01*
X0086153Y0077008D02*
X0077811Y0077008D01*
X0071596Y0072717D02*
X0086470Y0072717D01*
X0087738Y0073984D01*
X0101124Y0073984D01*
X0103486Y0071622D01*
X0103486Y0051937D01*
X0105848Y0049575D01*
X0106242Y0049575D01*
X0113328Y0049575D01*
X0114903Y0049575D01*
X0114760Y0054075D02*
X0114008Y0054075D01*
X0112354Y0053390D01*
X0111939Y0052975D01*
X0107256Y0052975D01*
X0106886Y0053345D01*
X0106886Y0072298D01*
X0106368Y0073548D01*
X0105412Y0074504D01*
X0103050Y0076867D01*
X0101800Y0077384D01*
X0100020Y0077384D01*
X0100343Y0078163D01*
X0100343Y0080515D01*
X0099442Y0082687D01*
X0097791Y0084339D01*
X0099442Y0085990D01*
X0100343Y0088163D01*
X0100343Y0090515D01*
X0099442Y0092687D01*
X0097791Y0094339D01*
X0099442Y0095990D01*
X0100343Y0098163D01*
X0100343Y0100515D01*
X0099442Y0102687D01*
X0097791Y0104339D01*
X0099442Y0105990D01*
X0099560Y0106274D01*
X0099956Y0105878D01*
X0101610Y0105193D01*
X0102234Y0105193D01*
X0102596Y0104318D01*
X0103412Y0103502D01*
X0104478Y0103061D01*
X0112730Y0103061D01*
X0113796Y0103502D01*
X0114612Y0104318D01*
X0114706Y0104546D01*
X0114801Y0104318D01*
X0115617Y0103502D01*
X0116683Y0103061D01*
X0124935Y0103061D01*
X0126001Y0103502D01*
X0126816Y0104318D01*
X0127034Y0104843D01*
X0127034Y0076316D01*
X0123636Y0072918D01*
X0118455Y0072918D01*
X0117373Y0073366D01*
X0115583Y0073366D01*
X0113929Y0072681D01*
X0112663Y0071415D01*
X0111978Y0069761D01*
X0111978Y0067971D01*
X0112663Y0066317D01*
X0113929Y0065051D01*
X0115451Y0064421D01*
X0115201Y0064170D01*
X0114759Y0063104D01*
X0114759Y0054077D01*
X0114760Y0054075D01*
X0113929Y0054042D02*
X0106886Y0054042D01*
X0106886Y0055041D02*
X0114759Y0055041D01*
X0114759Y0056039D02*
X0106886Y0056039D01*
X0106886Y0057038D02*
X0114759Y0057038D01*
X0114759Y0058036D02*
X0106886Y0058036D01*
X0106886Y0059035D02*
X0114759Y0059035D01*
X0114759Y0060033D02*
X0106886Y0060033D01*
X0106886Y0061032D02*
X0114759Y0061032D01*
X0114759Y0062030D02*
X0106886Y0062030D01*
X0106886Y0063029D02*
X0114759Y0063029D01*
X0115141Y0064027D02*
X0106886Y0064027D01*
X0106886Y0065026D02*
X0113990Y0065026D01*
X0112956Y0066024D02*
X0106886Y0066024D01*
X0106886Y0067023D02*
X0112371Y0067023D01*
X0111978Y0068021D02*
X0106886Y0068021D01*
X0106886Y0069020D02*
X0111978Y0069020D01*
X0112084Y0070018D02*
X0106886Y0070018D01*
X0106886Y0071017D02*
X0112498Y0071017D01*
X0113263Y0072015D02*
X0106886Y0072015D01*
X0106589Y0073014D02*
X0114732Y0073014D01*
X0118223Y0073014D02*
X0123731Y0073014D01*
X0124730Y0074012D02*
X0105904Y0074012D01*
X0104905Y0075011D02*
X0125728Y0075011D01*
X0126727Y0076009D02*
X0103907Y0076009D01*
X0102708Y0077008D02*
X0127034Y0077008D01*
X0127034Y0078006D02*
X0100278Y0078006D01*
X0100343Y0079005D02*
X0127034Y0079005D01*
X0127034Y0080003D02*
X0100343Y0080003D01*
X0100141Y0081002D02*
X0127034Y0081002D01*
X0127034Y0082001D02*
X0099727Y0082001D01*
X0099131Y0082999D02*
X0127034Y0082999D01*
X0127034Y0083998D02*
X0098132Y0083998D01*
X0098449Y0084996D02*
X0127034Y0084996D01*
X0127034Y0085995D02*
X0099444Y0085995D01*
X0099858Y0086993D02*
X0127034Y0086993D01*
X0127034Y0087992D02*
X0100272Y0087992D01*
X0100343Y0088990D02*
X0127034Y0088990D01*
X0127034Y0089989D02*
X0100343Y0089989D01*
X0100147Y0090987D02*
X0127034Y0090987D01*
X0127034Y0091986D02*
X0099733Y0091986D01*
X0099146Y0092984D02*
X0127034Y0092984D01*
X0127034Y0093983D02*
X0098147Y0093983D01*
X0098434Y0094981D02*
X0127034Y0094981D01*
X0127034Y0095980D02*
X0099432Y0095980D01*
X0099852Y0096978D02*
X0127034Y0096978D01*
X0127034Y0097977D02*
X0100265Y0097977D01*
X0100343Y0098975D02*
X0127034Y0098975D01*
X0127034Y0099974D02*
X0100343Y0099974D01*
X0100153Y0100972D02*
X0127034Y0100972D01*
X0127034Y0101971D02*
X0099739Y0101971D01*
X0099161Y0102969D02*
X0127034Y0102969D01*
X0127034Y0103968D02*
X0126466Y0103968D01*
X0120809Y0109110D02*
X0120809Y0122323D01*
X0123257Y0124772D01*
X0127895Y0124772D01*
X0138619Y0114393D02*
X0138619Y0103431D01*
X0139070Y0104382D01*
X0138534Y0103846D01*
X0138534Y0096418D01*
X0135348Y0092984D02*
X0135234Y0092984D01*
X0135234Y0091986D02*
X0137003Y0091986D01*
X0142955Y0097977D02*
X0146434Y0097977D01*
X0144874Y0098975D02*
X0144463Y0098975D01*
X0148834Y0093518D02*
X0159834Y0093518D01*
X0163334Y0097018D01*
X0163334Y0110918D01*
X0174515Y0105965D02*
X0192999Y0105965D01*
X0192999Y0106963D02*
X0175212Y0106963D01*
X0176101Y0107962D02*
X0192999Y0107962D01*
X0192999Y0108960D02*
X0176465Y0108960D01*
X0176465Y0109959D02*
X0192999Y0109959D01*
X0192999Y0110957D02*
X0176465Y0110957D01*
X0176465Y0111956D02*
X0192999Y0111956D01*
X0192999Y0112954D02*
X0176465Y0112954D01*
X0176465Y0113953D02*
X0192999Y0113953D01*
X0192999Y0114951D02*
X0176465Y0114951D01*
X0176465Y0115950D02*
X0192999Y0115950D01*
X0192999Y0116948D02*
X0176465Y0116948D01*
X0179269Y0117947D02*
X0192999Y0117947D01*
X0192999Y0118945D02*
X0180318Y0118945D01*
X0180717Y0119944D02*
X0192999Y0119944D01*
X0192999Y0120942D02*
X0180717Y0120942D01*
X0180717Y0121941D02*
X0192999Y0121941D01*
X0192999Y0122939D02*
X0180717Y0122939D01*
X0180717Y0123938D02*
X0192999Y0123938D01*
X0192999Y0124936D02*
X0180717Y0124936D01*
X0180717Y0125935D02*
X0192999Y0125935D01*
X0192999Y0126934D02*
X0180717Y0126934D01*
X0180717Y0127932D02*
X0192999Y0127932D01*
X0192999Y0128931D02*
X0180717Y0128931D01*
X0180631Y0129929D02*
X0192999Y0129929D01*
X0192999Y0130928D02*
X0180136Y0130928D01*
X0178682Y0131926D02*
X0192999Y0131926D01*
X0192999Y0132925D02*
X0174830Y0132925D01*
X0174830Y0133923D02*
X0192999Y0133923D01*
X0192999Y0134922D02*
X0174830Y0134922D01*
X0174830Y0135920D02*
X0192999Y0135920D01*
X0192999Y0136919D02*
X0174830Y0136919D01*
X0174830Y0137917D02*
X0192999Y0137917D01*
X0192999Y0138916D02*
X0174830Y0138916D01*
X0174830Y0139914D02*
X0192999Y0139914D01*
X0192999Y0140913D02*
X0174830Y0140913D01*
X0174830Y0141911D02*
X0192999Y0141911D01*
X0192999Y0142910D02*
X0184425Y0142910D01*
X0184993Y0143908D02*
X0192999Y0143908D01*
X0192999Y0144907D02*
X0185130Y0144907D01*
X0185130Y0145905D02*
X0192999Y0145905D01*
X0192999Y0146904D02*
X0185130Y0146904D01*
X0185130Y0147902D02*
X0192999Y0147902D01*
X0192999Y0148901D02*
X0185130Y0148901D01*
X0185130Y0149899D02*
X0192999Y0149899D01*
X0192999Y0150898D02*
X0185130Y0150898D01*
X0185130Y0151896D02*
X0192999Y0151896D01*
X0192999Y0152895D02*
X0185130Y0152895D01*
X0185130Y0153893D02*
X0192999Y0153893D01*
X0192999Y0154892D02*
X0184840Y0154892D01*
X0184057Y0155890D02*
X0192999Y0155890D01*
X0192999Y0156889D02*
X0183930Y0156889D01*
X0183930Y0157887D02*
X0192999Y0157887D01*
X0192999Y0158886D02*
X0183930Y0158886D01*
X0183935Y0159884D02*
X0192999Y0159884D01*
X0192999Y0160883D02*
X0183930Y0160883D01*
X0183744Y0161881D02*
X0186415Y0161881D01*
X0184123Y0162880D02*
X0183299Y0162880D01*
X0190636Y0161881D02*
X0192999Y0161881D01*
X0192999Y0162880D02*
X0192928Y0162880D01*
X0179830Y0149216D02*
X0179470Y0148856D01*
X0165430Y0150898D02*
X0154043Y0150898D01*
X0154043Y0151896D02*
X0165430Y0151896D01*
X0165430Y0152895D02*
X0154043Y0152895D01*
X0154154Y0153893D02*
X0165430Y0153893D01*
X0165720Y0154892D02*
X0155152Y0154892D01*
X0156151Y0155890D02*
X0159029Y0155890D01*
X0158145Y0156889D02*
X0157149Y0156889D01*
X0169634Y0166874D02*
X0171288Y0166874D01*
X0170584Y0165875D02*
X0170396Y0165875D01*
X0137602Y0159884D02*
X0137100Y0159884D01*
X0131602Y0159884D02*
X0123849Y0159884D01*
X0123436Y0160883D02*
X0129978Y0160883D01*
X0128979Y0161881D02*
X0122539Y0161881D01*
X0121540Y0162880D02*
X0128366Y0162880D01*
X0127952Y0163878D02*
X0119232Y0163878D01*
X0116071Y0163878D02*
X0099877Y0163878D01*
X0100875Y0164877D02*
X0127613Y0164877D01*
X0127613Y0165875D02*
X0101302Y0165875D01*
X0101715Y0166874D02*
X0127613Y0166874D01*
X0127817Y0167872D02*
X0102058Y0167872D01*
X0102058Y0168871D02*
X0128230Y0168871D01*
X0128652Y0169870D02*
X0102058Y0169870D01*
X0102003Y0170868D02*
X0129650Y0170868D01*
X0130810Y0171867D02*
X0101589Y0171867D01*
X0090547Y0175861D02*
X0038462Y0175861D01*
X0039572Y0174862D02*
X0089295Y0174862D01*
X0088297Y0173864D02*
X0040571Y0173864D01*
X0041117Y0172865D02*
X0087692Y0172865D01*
X0087278Y0171867D02*
X0041531Y0171867D01*
X0041944Y0170868D02*
X0056894Y0170868D01*
X0055919Y0169870D02*
X0041958Y0169870D01*
X0041958Y0168871D02*
X0055536Y0168871D01*
X0055536Y0167872D02*
X0041958Y0167872D01*
X0041574Y0166874D02*
X0055536Y0166874D01*
X0055536Y0165875D02*
X0041160Y0165875D01*
X0040675Y0164877D02*
X0055536Y0164877D01*
X0055536Y0163878D02*
X0049057Y0163878D01*
X0050892Y0162880D02*
X0055536Y0162880D01*
X0056234Y0159318D02*
X0059534Y0156018D01*
X0059988Y0156018D01*
X0061985Y0154021D01*
X0059031Y0154021D01*
X0061985Y0154021D02*
X0046537Y0154021D01*
X0041134Y0148618D01*
X0041134Y0121718D01*
X0038734Y0119318D01*
X0034609Y0119318D01*
X0034588Y0119339D01*
X0034588Y0109339D02*
X0039613Y0109339D01*
X0042234Y0106718D01*
X0044934Y0106718D01*
X0046382Y0108167D01*
X0047974Y0106575D01*
X0046382Y0108167D02*
X0045210Y0109339D01*
X0041525Y0102969D02*
X0039318Y0102969D01*
X0039897Y0101971D02*
X0041888Y0101971D01*
X0042777Y0100972D02*
X0040310Y0100972D01*
X0040500Y0099974D02*
X0058434Y0099974D01*
X0058434Y0100972D02*
X0053171Y0100972D01*
X0054060Y0101971D02*
X0058434Y0101971D01*
X0058434Y0102969D02*
X0054423Y0102969D01*
X0054423Y0103968D02*
X0058434Y0103968D01*
X0058434Y0104966D02*
X0054423Y0104966D01*
X0054423Y0105965D02*
X0058434Y0105965D01*
X0058612Y0106963D02*
X0054423Y0106963D01*
X0054423Y0107962D02*
X0059025Y0107962D01*
X0059978Y0108960D02*
X0054423Y0108960D01*
X0054423Y0109959D02*
X0060976Y0109959D01*
X0061975Y0110957D02*
X0054151Y0110957D01*
X0053393Y0111956D02*
X0062973Y0111956D01*
X0064058Y0112954D02*
X0053957Y0112954D01*
X0054385Y0113953D02*
X0066023Y0113953D01*
X0066637Y0114951D02*
X0054423Y0114951D01*
X0054423Y0115950D02*
X0066257Y0115950D01*
X0065940Y0116948D02*
X0054423Y0116948D01*
X0054423Y0117947D02*
X0065940Y0117947D01*
X0065940Y0118945D02*
X0054423Y0118945D01*
X0054423Y0119944D02*
X0065940Y0119944D01*
X0065940Y0120942D02*
X0054423Y0120942D01*
X0054240Y0121941D02*
X0065940Y0121941D01*
X0065940Y0122939D02*
X0053606Y0122939D01*
X0053013Y0123938D02*
X0065940Y0123938D01*
X0065940Y0124936D02*
X0053529Y0124936D01*
X0053630Y0125935D02*
X0066346Y0125935D01*
X0067432Y0126934D02*
X0060783Y0126934D01*
X0061882Y0127932D02*
X0067890Y0127932D01*
X0067890Y0128931D02*
X0062291Y0128931D01*
X0062291Y0129929D02*
X0067890Y0129929D01*
X0067890Y0130928D02*
X0062291Y0130928D01*
X0062291Y0131926D02*
X0068232Y0131926D01*
X0068833Y0132925D02*
X0062291Y0132925D01*
X0062291Y0133923D02*
X0069831Y0133923D01*
X0070830Y0134922D02*
X0061914Y0134922D01*
X0060965Y0135920D02*
X0063382Y0135920D01*
X0062015Y0136919D02*
X0061879Y0136919D01*
X0056635Y0131465D02*
X0056635Y0142402D01*
X0056349Y0142188D01*
X0050299Y0141911D02*
X0044534Y0141911D01*
X0044534Y0140913D02*
X0050299Y0140913D01*
X0050299Y0139914D02*
X0044534Y0139914D01*
X0044534Y0138916D02*
X0050299Y0138916D01*
X0050299Y0138062D02*
X0050741Y0136996D01*
X0051556Y0136180D01*
X0052245Y0135895D01*
X0052237Y0135892D01*
X0051421Y0135076D01*
X0050980Y0134010D01*
X0050980Y0132593D01*
X0044641Y0132593D01*
X0044534Y0132548D01*
X0044534Y0147210D01*
X0047945Y0150621D01*
X0055536Y0150621D01*
X0055536Y0150295D01*
X0055977Y0149229D01*
X0056569Y0148637D01*
X0052622Y0148637D01*
X0051556Y0148196D01*
X0050741Y0147380D01*
X0050299Y0146314D01*
X0050299Y0138062D01*
X0050359Y0137917D02*
X0044534Y0137917D01*
X0044534Y0136919D02*
X0050818Y0136919D01*
X0052185Y0135920D02*
X0044534Y0135920D01*
X0044534Y0134922D02*
X0051357Y0134922D01*
X0050980Y0133923D02*
X0044534Y0133923D01*
X0044534Y0132925D02*
X0050980Y0132925D01*
X0047974Y0127724D02*
X0047974Y0117772D01*
X0039177Y0104966D02*
X0038576Y0104966D01*
X0038320Y0103968D02*
X0040176Y0103968D01*
X0040500Y0098975D02*
X0058434Y0098975D01*
X0058434Y0097977D02*
X0040423Y0097977D01*
X0040682Y0096978D02*
X0058146Y0096978D01*
X0062534Y0096052D02*
X0062604Y0095982D01*
X0065970Y0092984D02*
X0089716Y0092984D01*
X0090714Y0093983D02*
X0066647Y0093983D01*
X0067060Y0094981D02*
X0090428Y0094981D01*
X0089429Y0095980D02*
X0067104Y0095980D01*
X0067062Y0096978D02*
X0089010Y0096978D01*
X0088596Y0097977D02*
X0066648Y0097977D01*
X0066634Y0098975D02*
X0088519Y0098975D01*
X0088519Y0099974D02*
X0066634Y0099974D01*
X0066634Y0100972D02*
X0088708Y0100972D01*
X0089122Y0101971D02*
X0066634Y0101971D01*
X0066634Y0102969D02*
X0068174Y0102969D01*
X0071903Y0109417D02*
X0071990Y0109504D01*
X0077953Y0109959D02*
X0088519Y0109959D01*
X0088519Y0108960D02*
X0077953Y0108960D01*
X0077953Y0107962D02*
X0088602Y0107962D01*
X0089016Y0106963D02*
X0077953Y0106963D01*
X0077953Y0105965D02*
X0089444Y0105965D01*
X0090442Y0104966D02*
X0077818Y0104966D01*
X0077254Y0103968D02*
X0090699Y0103968D01*
X0089701Y0102969D02*
X0075632Y0102969D01*
X0083100Y0097852D02*
X0086634Y0094318D01*
X0105009Y0094318D01*
X0108604Y0097913D01*
X0114261Y0103968D02*
X0115151Y0103968D01*
X0109391Y0109898D02*
X0108297Y0109898D01*
X0108604Y0109110D02*
X0106512Y0107018D01*
X0105934Y0107018D01*
X0105109Y0108693D01*
X0102505Y0109693D01*
X0099869Y0105965D02*
X0099417Y0105965D01*
X0098419Y0104966D02*
X0102328Y0104966D01*
X0102946Y0103968D02*
X0098162Y0103968D01*
X0088702Y0110957D02*
X0077953Y0110957D01*
X0077953Y0111956D02*
X0089116Y0111956D01*
X0089686Y0112954D02*
X0077953Y0112954D01*
X0077783Y0113953D02*
X0090684Y0113953D01*
X0090457Y0114951D02*
X0077169Y0114951D01*
X0077723Y0115950D02*
X0089459Y0115950D01*
X0089022Y0116948D02*
X0078039Y0116948D01*
X0078039Y0117947D02*
X0088608Y0117947D01*
X0088519Y0118945D02*
X0078039Y0118945D01*
X0078039Y0119944D02*
X0088519Y0119944D01*
X0088696Y0120942D02*
X0078039Y0120942D01*
X0078039Y0121941D02*
X0089110Y0121941D01*
X0089671Y0122939D02*
X0078039Y0122939D01*
X0078039Y0123938D02*
X0090670Y0123938D01*
X0090472Y0124936D02*
X0078039Y0124936D01*
X0077633Y0125935D02*
X0088119Y0125935D01*
X0087120Y0126934D02*
X0076548Y0126934D01*
X0076090Y0127932D02*
X0086122Y0127932D01*
X0085123Y0128931D02*
X0084974Y0128931D01*
X0077115Y0128931D02*
X0076435Y0128931D01*
X0071828Y0135920D02*
X0071709Y0135920D01*
X0067546Y0142188D02*
X0077305Y0142488D01*
X0077305Y0151654D01*
X0077208Y0153450D01*
X0085772Y0161881D02*
X0089085Y0161881D01*
X0088671Y0160883D02*
X0086770Y0160883D01*
X0087769Y0159884D02*
X0088519Y0159884D01*
X0088519Y0158886D02*
X0088471Y0158886D01*
X0088885Y0157279D02*
X0089419Y0155990D01*
X0091082Y0154327D01*
X0093255Y0153427D01*
X0095607Y0153427D01*
X0097779Y0154327D01*
X0098203Y0154751D01*
X0099434Y0153520D01*
X0099434Y0145303D01*
X0100058Y0143796D01*
X0104293Y0139560D01*
X0104199Y0139521D01*
X0103384Y0138706D01*
X0103097Y0138013D01*
X0100281Y0138013D01*
X0100343Y0138163D01*
X0100343Y0140515D01*
X0099442Y0142687D01*
X0097779Y0144350D01*
X0095607Y0145250D01*
X0093255Y0145250D01*
X0091082Y0144350D01*
X0089654Y0142922D01*
X0089654Y0145821D01*
X0089212Y0146887D01*
X0088885Y0147214D01*
X0088885Y0157279D01*
X0088885Y0156889D02*
X0089047Y0156889D01*
X0088885Y0155890D02*
X0089518Y0155890D01*
X0088885Y0154892D02*
X0090517Y0154892D01*
X0092128Y0153893D02*
X0088885Y0153893D01*
X0088885Y0152895D02*
X0099434Y0152895D01*
X0099434Y0151896D02*
X0088885Y0151896D01*
X0088885Y0150898D02*
X0099434Y0150898D01*
X0099434Y0149899D02*
X0088885Y0149899D01*
X0088885Y0148901D02*
X0099434Y0148901D01*
X0099434Y0147902D02*
X0088885Y0147902D01*
X0089195Y0146904D02*
X0099434Y0146904D01*
X0099434Y0145905D02*
X0089619Y0145905D01*
X0089654Y0144907D02*
X0092425Y0144907D01*
X0090640Y0143908D02*
X0089654Y0143908D01*
X0096436Y0144907D02*
X0099598Y0144907D01*
X0100011Y0143908D02*
X0098222Y0143908D01*
X0099220Y0142910D02*
X0100944Y0142910D01*
X0101943Y0141911D02*
X0099764Y0141911D01*
X0100178Y0140913D02*
X0102941Y0140913D01*
X0103940Y0139914D02*
X0100343Y0139914D01*
X0100343Y0138916D02*
X0103594Y0138916D01*
X0108546Y0146904D02*
X0112457Y0146904D01*
X0111740Y0147902D02*
X0107634Y0147902D01*
X0107634Y0148901D02*
X0111326Y0148901D01*
X0110913Y0149899D02*
X0107634Y0149899D01*
X0107634Y0150898D02*
X0110913Y0150898D01*
X0110913Y0151896D02*
X0107634Y0151896D01*
X0107634Y0152895D02*
X0111043Y0152895D01*
X0111457Y0153893D02*
X0107634Y0153893D01*
X0107634Y0154892D02*
X0111330Y0154892D01*
X0110916Y0155890D02*
X0107634Y0155890D01*
X0107280Y0156889D02*
X0110913Y0156889D01*
X0110913Y0157887D02*
X0106663Y0157887D01*
X0105664Y0158886D02*
X0111039Y0158886D01*
X0111453Y0159884D02*
X0104666Y0159884D01*
X0103667Y0160883D02*
X0111867Y0160883D01*
X0112763Y0161881D02*
X0102669Y0161881D01*
X0101407Y0162880D02*
X0113762Y0162880D01*
X0099060Y0153893D02*
X0096733Y0153893D01*
X0089611Y0162880D02*
X0084773Y0162880D01*
X0083775Y0163878D02*
X0088991Y0163878D01*
X0087992Y0164877D02*
X0083657Y0164877D01*
X0083657Y0165875D02*
X0087566Y0165875D01*
X0087152Y0166874D02*
X0083657Y0166874D01*
X0083657Y0167872D02*
X0086809Y0167872D01*
X0086809Y0168871D02*
X0083451Y0168871D01*
X0082786Y0169870D02*
X0086809Y0169870D01*
X0086865Y0170868D02*
X0067076Y0170868D01*
X0068051Y0169870D02*
X0071630Y0169870D01*
X0070965Y0168871D02*
X0068434Y0168871D01*
X0061985Y0165218D02*
X0076637Y0165218D01*
X0077208Y0164647D01*
X0056234Y0159318D02*
X0047834Y0159318D01*
X0043415Y0160883D02*
X0040347Y0160883D01*
X0040500Y0159884D02*
X0043153Y0159884D01*
X0043153Y0158886D02*
X0040500Y0158886D01*
X0040386Y0157887D02*
X0043360Y0157887D01*
X0043773Y0156889D02*
X0039972Y0156889D01*
X0039501Y0155890D02*
X0043598Y0155890D01*
X0042599Y0154892D02*
X0038502Y0154892D01*
X0038394Y0153893D02*
X0041601Y0153893D01*
X0040602Y0152895D02*
X0039393Y0152895D01*
X0045226Y0147902D02*
X0051263Y0147902D01*
X0050543Y0146904D02*
X0044534Y0146904D01*
X0044534Y0145905D02*
X0050299Y0145905D01*
X0050299Y0144907D02*
X0044534Y0144907D01*
X0044534Y0143908D02*
X0050299Y0143908D01*
X0050299Y0142910D02*
X0044534Y0142910D01*
X0046225Y0148901D02*
X0056305Y0148901D01*
X0055700Y0149899D02*
X0047223Y0149899D01*
X0043829Y0161881D02*
X0039934Y0161881D01*
X0039407Y0162880D02*
X0044776Y0162880D01*
X0046611Y0163878D02*
X0039677Y0163878D01*
X0083100Y0109417D02*
X0083100Y0097852D01*
X0085734Y0084518D02*
X0104134Y0084518D01*
X0094431Y0069339D02*
X0084654Y0069339D01*
X0084034Y0068718D01*
X0073134Y0057818D01*
X0073134Y0049918D01*
X0069434Y0046218D01*
X0054034Y0046218D01*
X0053634Y0045818D01*
X0051793Y0043977D01*
X0051793Y0041150D01*
X0056071Y0037067D02*
X0057514Y0037067D01*
X0058610Y0036069D02*
X0054976Y0036069D01*
X0061793Y0041150D02*
X0072865Y0041150D01*
X0077434Y0045718D01*
X0077434Y0051082D01*
X0077502Y0051150D01*
X0080973Y0054042D02*
X0090774Y0054042D01*
X0090368Y0055041D02*
X0079867Y0055041D01*
X0081588Y0053044D02*
X0089775Y0053044D01*
X0089153Y0052045D02*
X0082001Y0052045D01*
X0082002Y0051047D02*
X0088739Y0051047D01*
X0088519Y0050048D02*
X0081916Y0050048D01*
X0081502Y0049050D02*
X0088519Y0049050D01*
X0088565Y0048051D02*
X0080834Y0048051D01*
X0080834Y0047053D02*
X0088979Y0047053D01*
X0089392Y0046054D02*
X0080834Y0046054D01*
X0080834Y0045056D02*
X0090353Y0045056D01*
X0090789Y0044057D02*
X0080426Y0044057D01*
X0079583Y0043059D02*
X0089790Y0043059D01*
X0089159Y0042060D02*
X0078584Y0042060D01*
X0077586Y0041062D02*
X0088745Y0041062D01*
X0088519Y0040063D02*
X0076587Y0040063D01*
X0075589Y0039065D02*
X0088519Y0039065D01*
X0088559Y0038066D02*
X0074305Y0038066D01*
X0081469Y0036069D02*
X0064976Y0036069D01*
X0066071Y0037067D02*
X0083807Y0037067D01*
X0089398Y0056039D02*
X0076534Y0056039D01*
X0077162Y0057038D02*
X0088985Y0057038D01*
X0088571Y0058036D02*
X0078160Y0058036D01*
X0079159Y0059035D02*
X0088519Y0059035D01*
X0088519Y0060033D02*
X0080157Y0060033D01*
X0081156Y0061032D02*
X0088733Y0061032D01*
X0089147Y0062030D02*
X0082154Y0062030D01*
X0083153Y0063029D02*
X0089760Y0063029D01*
X0090759Y0064027D02*
X0084151Y0064027D01*
X0085150Y0065026D02*
X0090383Y0065026D01*
X0084034Y0068718D02*
X0081439Y0066123D01*
X0107187Y0053044D02*
X0112008Y0053044D01*
X0119687Y0036726D02*
X0121763Y0036726D01*
X0125182Y0033307D01*
X0126432Y0032789D01*
X0130443Y0032789D01*
X0130858Y0032374D01*
X0131632Y0032054D01*
X0131269Y0031179D01*
X0131269Y0029388D01*
X0131954Y0027734D01*
X0132369Y0027319D01*
X0132369Y0018700D01*
X0130205Y0016535D01*
X0130205Y0026490D01*
X0129763Y0027556D01*
X0128947Y0028372D01*
X0127882Y0028813D01*
X0118854Y0028813D01*
X0117788Y0028372D01*
X0116972Y0027556D01*
X0116531Y0026490D01*
X0116531Y0015100D01*
X0106114Y0015100D01*
X0106822Y0014807D02*
X0105168Y0015492D01*
X0103378Y0015492D01*
X0101724Y0014807D01*
X0100865Y0013948D01*
X0099133Y0015680D01*
X0099391Y0015939D01*
X0101879Y0015939D01*
X0103128Y0016456D01*
X0103673Y0017000D01*
X0104478Y0016667D01*
X0112730Y0016667D01*
X0113796Y0017108D01*
X0114612Y0017924D01*
X0115053Y0018990D01*
X0115053Y0026443D01*
X0114612Y0027509D01*
X0113806Y0028315D01*
X0114612Y0029121D01*
X0115023Y0030114D01*
X0116586Y0030114D01*
X0118240Y0030799D01*
X0119505Y0032065D01*
X0120191Y0033719D01*
X0120191Y0035509D01*
X0119687Y0036726D01*
X0119959Y0036069D02*
X0122420Y0036069D01*
X0123418Y0035070D02*
X0120191Y0035070D01*
X0120191Y0034072D02*
X0124417Y0034072D01*
X0125745Y0033073D02*
X0119923Y0033073D01*
X0119510Y0032075D02*
X0131580Y0032075D01*
X0131269Y0031076D02*
X0118517Y0031076D01*
X0117497Y0028081D02*
X0114040Y0028081D01*
X0114570Y0029079D02*
X0131397Y0029079D01*
X0131269Y0030078D02*
X0115008Y0030078D01*
X0114788Y0027082D02*
X0116776Y0027082D01*
X0116531Y0026084D02*
X0115053Y0026084D01*
X0115053Y0025085D02*
X0116531Y0025085D01*
X0116531Y0024087D02*
X0115053Y0024087D01*
X0115053Y0023088D02*
X0116531Y0023088D01*
X0116531Y0022090D02*
X0115053Y0022090D01*
X0115053Y0021091D02*
X0116531Y0021091D01*
X0116531Y0020093D02*
X0115053Y0020093D01*
X0115053Y0019094D02*
X0116531Y0019094D01*
X0116531Y0018096D02*
X0114683Y0018096D01*
X0113769Y0017097D02*
X0116531Y0017097D01*
X0116531Y0016099D02*
X0102265Y0016099D01*
X0102432Y0015100D02*
X0099712Y0015100D01*
X0100711Y0014102D02*
X0101019Y0014102D01*
X0101202Y0019339D02*
X0104667Y0022803D01*
X0108517Y0022803D01*
X0108604Y0022717D01*
X0106822Y0014807D02*
X0107237Y0014392D01*
X0116824Y0014392D01*
X0116531Y0015100D01*
X0106665Y0007112D02*
X0181260Y0007112D01*
X0180901Y0008111D02*
X0131397Y0008111D01*
X0132395Y0009109D02*
X0145907Y0009109D01*
X0144857Y0010108D02*
X0133394Y0010108D01*
X0134392Y0011106D02*
X0144265Y0011106D01*
X0143868Y0012105D02*
X0135391Y0012105D01*
X0136389Y0013103D02*
X0143868Y0013103D01*
X0142053Y0014102D02*
X0137388Y0014102D01*
X0138387Y0015100D02*
X0140125Y0015100D01*
X0139126Y0016099D02*
X0138955Y0016099D01*
X0135769Y0017291D02*
X0135769Y0030283D01*
X0139898Y0032075D02*
X0157809Y0032075D01*
X0157809Y0033073D02*
X0139343Y0033073D01*
X0138345Y0034072D02*
X0158084Y0034072D01*
X0158502Y0035070D02*
X0137815Y0035070D01*
X0140269Y0031076D02*
X0158034Y0031076D01*
X0158134Y0030078D02*
X0140269Y0030078D01*
X0140141Y0029079D02*
X0158134Y0029079D01*
X0158134Y0028081D02*
X0139728Y0028081D01*
X0139169Y0027082D02*
X0158134Y0027082D01*
X0158134Y0026084D02*
X0139169Y0026084D01*
X0139169Y0025085D02*
X0158134Y0025085D01*
X0158134Y0024087D02*
X0145449Y0024087D01*
X0147020Y0023088D02*
X0158134Y0023088D01*
X0158134Y0022090D02*
X0147954Y0022090D01*
X0148367Y0021091D02*
X0158134Y0021091D01*
X0158134Y0020093D02*
X0148709Y0020093D01*
X0148709Y0019094D02*
X0158134Y0019094D01*
X0158134Y0018096D02*
X0148676Y0018096D01*
X0150140Y0017097D02*
X0157515Y0017097D01*
X0163120Y0011106D02*
X0180940Y0011106D01*
X0180901Y0010108D02*
X0162122Y0010108D01*
X0160592Y0009109D02*
X0180901Y0009109D01*
X0181353Y0012105D02*
X0164119Y0012105D01*
X0165117Y0013103D02*
X0181767Y0013103D01*
X0172580Y0051972D02*
X0172580Y0063709D01*
X0168302Y0065026D02*
X0168197Y0065026D01*
X0168197Y0066024D02*
X0168302Y0066024D01*
X0168302Y0067023D02*
X0168197Y0067023D01*
X0168197Y0068021D02*
X0168302Y0068021D01*
X0168302Y0069020D02*
X0168197Y0069020D01*
X0167942Y0070018D02*
X0168557Y0070018D01*
X0169291Y0071017D02*
X0167208Y0071017D01*
X0170729Y0072015D02*
X0192999Y0072015D01*
X0192999Y0071017D02*
X0184531Y0071017D01*
X0185265Y0070018D02*
X0192999Y0070018D01*
X0192999Y0069020D02*
X0185520Y0069020D01*
X0185520Y0068021D02*
X0192999Y0068021D01*
X0192999Y0067023D02*
X0185520Y0067023D01*
X0185520Y0066024D02*
X0192999Y0066024D01*
X0192999Y0073014D02*
X0171728Y0073014D01*
X0172726Y0074012D02*
X0192999Y0074012D01*
X0192999Y0075011D02*
X0173725Y0075011D01*
X0174723Y0076009D02*
X0192999Y0076009D01*
X0192999Y0077008D02*
X0175722Y0077008D01*
X0176363Y0078006D02*
X0192999Y0078006D01*
X0192999Y0079005D02*
X0176734Y0079005D01*
X0176734Y0080003D02*
X0192999Y0080003D01*
X0192999Y0081002D02*
X0176734Y0081002D01*
X0176734Y0082001D02*
X0192999Y0082001D01*
X0192999Y0082999D02*
X0176734Y0082999D01*
X0176734Y0083998D02*
X0192999Y0083998D01*
X0192999Y0084996D02*
X0176734Y0084996D01*
X0176734Y0085995D02*
X0192999Y0085995D01*
X0192999Y0086993D02*
X0176734Y0086993D01*
X0176734Y0087992D02*
X0192999Y0087992D01*
X0192999Y0088990D02*
X0176734Y0088990D01*
X0176734Y0089989D02*
X0192999Y0089989D01*
X0192999Y0090987D02*
X0176734Y0090987D01*
X0176422Y0091986D02*
X0192999Y0091986D01*
X0192999Y0092984D02*
X0175866Y0092984D01*
X0174868Y0093983D02*
X0192999Y0093983D01*
X0192999Y0094981D02*
X0174515Y0094981D01*
X0174515Y0095980D02*
X0192999Y0095980D01*
X0192999Y0096978D02*
X0174515Y0096978D01*
X0174515Y0097977D02*
X0192999Y0097977D01*
X0192999Y0098975D02*
X0174515Y0098975D01*
X0174515Y0099974D02*
X0192999Y0099974D01*
X0192999Y0100972D02*
X0174515Y0100972D01*
X0174515Y0101971D02*
X0192999Y0101971D01*
X0192999Y0102969D02*
X0174515Y0102969D01*
X0174515Y0103968D02*
X0192999Y0103968D01*
X0192999Y0104966D02*
X0174515Y0104966D01*
X0170415Y0122803D02*
X0170415Y0124500D01*
X0170730Y0124815D01*
X0170730Y0123118D01*
X0170415Y0122803D01*
X0148834Y0093518D02*
X0146234Y0090918D01*
X0146234Y0083368D01*
X0145987Y0083121D01*
X0140134Y0077268D01*
X0140134Y0076718D01*
X0157184Y0083121D02*
X0157287Y0083018D01*
X0166334Y0083018D01*
X0115691Y0034614D02*
X0109305Y0034614D01*
X0108604Y0033913D01*
X0101202Y0019339D02*
X0094431Y0019339D01*
X0104273Y0010992D02*
X0129470Y0010992D01*
X0135769Y0017291D01*
X0132369Y0019094D02*
X0130205Y0019094D01*
X0130205Y0018096D02*
X0131765Y0018096D01*
X0130767Y0017097D02*
X0130205Y0017097D01*
X0130205Y0020093D02*
X0132369Y0020093D01*
X0132369Y0021091D02*
X0130205Y0021091D01*
X0130205Y0022090D02*
X0132369Y0022090D01*
X0132369Y0023088D02*
X0130205Y0023088D01*
X0130205Y0024087D02*
X0132369Y0024087D01*
X0132369Y0025085D02*
X0130205Y0025085D01*
X0130205Y0026084D02*
X0132369Y0026084D01*
X0132369Y0027082D02*
X0129959Y0027082D01*
X0129238Y0028081D02*
X0131811Y0028081D01*
X0139169Y0024087D02*
X0141444Y0024087D01*
X0139872Y0023088D02*
X0139169Y0023088D01*
X0055868Y0060033D02*
X0048927Y0060033D01*
X0043734Y0089218D02*
X0043634Y0089218D01*
X0034588Y0098264D01*
X0034588Y0099339D01*
X0108604Y0109110D02*
X0109391Y0109898D01*
X0109391Y0122717D01*
D11*
X0164228Y0161486D03*
X0164228Y0172509D03*
X0176794Y0172609D03*
X0176794Y0161586D03*
D12*
X0181439Y0112961D03*
X0170415Y0112961D03*
X0083013Y0120835D03*
X0071990Y0120835D03*
D13*
X0094431Y0119339D03*
X0094431Y0129339D03*
X0094431Y0139339D03*
X0094431Y0149339D03*
X0094431Y0159339D03*
X0094431Y0109339D03*
X0094431Y0099339D03*
X0094431Y0089339D03*
X0094431Y0079339D03*
X0094431Y0069339D03*
X0094431Y0059339D03*
X0094431Y0049339D03*
X0094431Y0039339D03*
X0094431Y0029339D03*
X0094431Y0019339D03*
X0061793Y0041150D03*
X0051793Y0041150D03*
X0051793Y0051150D03*
X0061793Y0051150D03*
X0061793Y0061150D03*
X0061793Y0071150D03*
X0051793Y0071150D03*
X0051793Y0061150D03*
X0034588Y0059339D03*
X0034588Y0069339D03*
X0034588Y0079339D03*
X0034588Y0089339D03*
X0034588Y0099339D03*
X0034588Y0109339D03*
X0034588Y0119339D03*
X0034588Y0129339D03*
X0034588Y0139339D03*
X0034588Y0149339D03*
X0034588Y0159339D03*
X0051793Y0081150D03*
X0061793Y0081150D03*
X0034588Y0049339D03*
X0034588Y0039339D03*
X0034588Y0029339D03*
X0034588Y0019339D03*
D14*
X0137351Y0142439D03*
X0117651Y0154239D03*
D15*
X0137351Y0166039D03*
D16*
X0134351Y0166039D03*
X0140351Y0166039D03*
X0117651Y0157239D03*
X0117651Y0151239D03*
X0134351Y0142439D03*
X0140351Y0142439D03*
D17*
X0084785Y0142488D03*
X0077305Y0142488D03*
X0081045Y0133827D03*
D18*
X0077208Y0153450D03*
X0077208Y0164647D03*
X0061985Y0165218D03*
X0061985Y0154021D03*
X0047974Y0117772D03*
X0047974Y0106575D03*
X0071596Y0083913D03*
X0071596Y0072717D03*
X0108604Y0097913D03*
X0108604Y0109110D03*
X0120809Y0109110D03*
X0120809Y0097913D03*
X0138619Y0114393D03*
X0138619Y0125590D03*
X0150143Y0125690D03*
X0150143Y0114493D03*
X0120809Y0122323D03*
X0120809Y0133520D03*
X0109391Y0133913D03*
X0109391Y0122717D03*
X0108604Y0033913D03*
X0108604Y0022717D03*
D19*
X0145987Y0083121D03*
X0157184Y0083121D03*
X0150267Y0104382D03*
X0139070Y0104382D03*
X0083100Y0109417D03*
X0071903Y0109417D03*
X0067546Y0142188D03*
X0056349Y0142188D03*
D20*
X0047974Y0135205D03*
X0047974Y0127724D03*
X0056635Y0131465D03*
D21*
X0161630Y0149216D03*
X0170730Y0149216D03*
X0179830Y0149216D03*
D22*
X0170730Y0124815D03*
D23*
X0172581Y0019220D02*
X0172583Y0019317D01*
X0172589Y0019414D01*
X0172599Y0019510D01*
X0172613Y0019606D01*
X0172631Y0019702D01*
X0172652Y0019796D01*
X0172678Y0019890D01*
X0172707Y0019982D01*
X0172741Y0020073D01*
X0172777Y0020163D01*
X0172818Y0020251D01*
X0172862Y0020337D01*
X0172910Y0020422D01*
X0172961Y0020504D01*
X0173015Y0020585D01*
X0173073Y0020663D01*
X0173134Y0020738D01*
X0173197Y0020811D01*
X0173264Y0020882D01*
X0173334Y0020949D01*
X0173406Y0021014D01*
X0173481Y0021075D01*
X0173559Y0021134D01*
X0173638Y0021189D01*
X0173720Y0021241D01*
X0173804Y0021289D01*
X0173890Y0021334D01*
X0173978Y0021376D01*
X0174067Y0021414D01*
X0174158Y0021448D01*
X0174250Y0021478D01*
X0174343Y0021505D01*
X0174438Y0021527D01*
X0174533Y0021546D01*
X0174629Y0021561D01*
X0174725Y0021572D01*
X0174822Y0021579D01*
X0174919Y0021582D01*
X0175016Y0021581D01*
X0175113Y0021576D01*
X0175209Y0021567D01*
X0175305Y0021554D01*
X0175401Y0021537D01*
X0175496Y0021516D01*
X0175589Y0021492D01*
X0175682Y0021463D01*
X0175774Y0021431D01*
X0175864Y0021395D01*
X0175952Y0021356D01*
X0176039Y0021312D01*
X0176124Y0021266D01*
X0176207Y0021215D01*
X0176288Y0021162D01*
X0176366Y0021105D01*
X0176443Y0021045D01*
X0176516Y0020982D01*
X0176587Y0020916D01*
X0176655Y0020847D01*
X0176721Y0020775D01*
X0176783Y0020701D01*
X0176842Y0020624D01*
X0176898Y0020545D01*
X0176951Y0020463D01*
X0177001Y0020380D01*
X0177046Y0020294D01*
X0177089Y0020207D01*
X0177128Y0020118D01*
X0177163Y0020028D01*
X0177194Y0019936D01*
X0177221Y0019843D01*
X0177245Y0019749D01*
X0177265Y0019654D01*
X0177281Y0019558D01*
X0177293Y0019462D01*
X0177301Y0019365D01*
X0177305Y0019268D01*
X0177305Y0019172D01*
X0177301Y0019075D01*
X0177293Y0018978D01*
X0177281Y0018882D01*
X0177265Y0018786D01*
X0177245Y0018691D01*
X0177221Y0018597D01*
X0177194Y0018504D01*
X0177163Y0018412D01*
X0177128Y0018322D01*
X0177089Y0018233D01*
X0177046Y0018146D01*
X0177001Y0018060D01*
X0176951Y0017977D01*
X0176898Y0017895D01*
X0176842Y0017816D01*
X0176783Y0017739D01*
X0176721Y0017665D01*
X0176655Y0017593D01*
X0176587Y0017524D01*
X0176516Y0017458D01*
X0176443Y0017395D01*
X0176366Y0017335D01*
X0176288Y0017278D01*
X0176207Y0017225D01*
X0176124Y0017174D01*
X0176039Y0017128D01*
X0175952Y0017084D01*
X0175864Y0017045D01*
X0175774Y0017009D01*
X0175682Y0016977D01*
X0175589Y0016948D01*
X0175496Y0016924D01*
X0175401Y0016903D01*
X0175305Y0016886D01*
X0175209Y0016873D01*
X0175113Y0016864D01*
X0175016Y0016859D01*
X0174919Y0016858D01*
X0174822Y0016861D01*
X0174725Y0016868D01*
X0174629Y0016879D01*
X0174533Y0016894D01*
X0174438Y0016913D01*
X0174343Y0016935D01*
X0174250Y0016962D01*
X0174158Y0016992D01*
X0174067Y0017026D01*
X0173978Y0017064D01*
X0173890Y0017106D01*
X0173804Y0017151D01*
X0173720Y0017199D01*
X0173638Y0017251D01*
X0173559Y0017306D01*
X0173481Y0017365D01*
X0173406Y0017426D01*
X0173334Y0017491D01*
X0173264Y0017558D01*
X0173197Y0017629D01*
X0173134Y0017702D01*
X0173073Y0017777D01*
X0173015Y0017855D01*
X0172961Y0017936D01*
X0172910Y0018018D01*
X0172862Y0018103D01*
X0172818Y0018189D01*
X0172777Y0018277D01*
X0172741Y0018367D01*
X0172707Y0018458D01*
X0172678Y0018550D01*
X0172652Y0018644D01*
X0172631Y0018738D01*
X0172613Y0018834D01*
X0172599Y0018930D01*
X0172589Y0019026D01*
X0172583Y0019123D01*
X0172581Y0019220D01*
X0141084Y0019220D02*
X0141086Y0019317D01*
X0141092Y0019414D01*
X0141102Y0019510D01*
X0141116Y0019606D01*
X0141134Y0019702D01*
X0141155Y0019796D01*
X0141181Y0019890D01*
X0141210Y0019982D01*
X0141244Y0020073D01*
X0141280Y0020163D01*
X0141321Y0020251D01*
X0141365Y0020337D01*
X0141413Y0020422D01*
X0141464Y0020504D01*
X0141518Y0020585D01*
X0141576Y0020663D01*
X0141637Y0020738D01*
X0141700Y0020811D01*
X0141767Y0020882D01*
X0141837Y0020949D01*
X0141909Y0021014D01*
X0141984Y0021075D01*
X0142062Y0021134D01*
X0142141Y0021189D01*
X0142223Y0021241D01*
X0142307Y0021289D01*
X0142393Y0021334D01*
X0142481Y0021376D01*
X0142570Y0021414D01*
X0142661Y0021448D01*
X0142753Y0021478D01*
X0142846Y0021505D01*
X0142941Y0021527D01*
X0143036Y0021546D01*
X0143132Y0021561D01*
X0143228Y0021572D01*
X0143325Y0021579D01*
X0143422Y0021582D01*
X0143519Y0021581D01*
X0143616Y0021576D01*
X0143712Y0021567D01*
X0143808Y0021554D01*
X0143904Y0021537D01*
X0143999Y0021516D01*
X0144092Y0021492D01*
X0144185Y0021463D01*
X0144277Y0021431D01*
X0144367Y0021395D01*
X0144455Y0021356D01*
X0144542Y0021312D01*
X0144627Y0021266D01*
X0144710Y0021215D01*
X0144791Y0021162D01*
X0144869Y0021105D01*
X0144946Y0021045D01*
X0145019Y0020982D01*
X0145090Y0020916D01*
X0145158Y0020847D01*
X0145224Y0020775D01*
X0145286Y0020701D01*
X0145345Y0020624D01*
X0145401Y0020545D01*
X0145454Y0020463D01*
X0145504Y0020380D01*
X0145549Y0020294D01*
X0145592Y0020207D01*
X0145631Y0020118D01*
X0145666Y0020028D01*
X0145697Y0019936D01*
X0145724Y0019843D01*
X0145748Y0019749D01*
X0145768Y0019654D01*
X0145784Y0019558D01*
X0145796Y0019462D01*
X0145804Y0019365D01*
X0145808Y0019268D01*
X0145808Y0019172D01*
X0145804Y0019075D01*
X0145796Y0018978D01*
X0145784Y0018882D01*
X0145768Y0018786D01*
X0145748Y0018691D01*
X0145724Y0018597D01*
X0145697Y0018504D01*
X0145666Y0018412D01*
X0145631Y0018322D01*
X0145592Y0018233D01*
X0145549Y0018146D01*
X0145504Y0018060D01*
X0145454Y0017977D01*
X0145401Y0017895D01*
X0145345Y0017816D01*
X0145286Y0017739D01*
X0145224Y0017665D01*
X0145158Y0017593D01*
X0145090Y0017524D01*
X0145019Y0017458D01*
X0144946Y0017395D01*
X0144869Y0017335D01*
X0144791Y0017278D01*
X0144710Y0017225D01*
X0144627Y0017174D01*
X0144542Y0017128D01*
X0144455Y0017084D01*
X0144367Y0017045D01*
X0144277Y0017009D01*
X0144185Y0016977D01*
X0144092Y0016948D01*
X0143999Y0016924D01*
X0143904Y0016903D01*
X0143808Y0016886D01*
X0143712Y0016873D01*
X0143616Y0016864D01*
X0143519Y0016859D01*
X0143422Y0016858D01*
X0143325Y0016861D01*
X0143228Y0016868D01*
X0143132Y0016879D01*
X0143036Y0016894D01*
X0142941Y0016913D01*
X0142846Y0016935D01*
X0142753Y0016962D01*
X0142661Y0016992D01*
X0142570Y0017026D01*
X0142481Y0017064D01*
X0142393Y0017106D01*
X0142307Y0017151D01*
X0142223Y0017199D01*
X0142141Y0017251D01*
X0142062Y0017306D01*
X0141984Y0017365D01*
X0141909Y0017426D01*
X0141837Y0017491D01*
X0141767Y0017558D01*
X0141700Y0017629D01*
X0141637Y0017702D01*
X0141576Y0017777D01*
X0141518Y0017855D01*
X0141464Y0017936D01*
X0141413Y0018018D01*
X0141365Y0018103D01*
X0141321Y0018189D01*
X0141280Y0018277D01*
X0141244Y0018367D01*
X0141210Y0018458D01*
X0141181Y0018550D01*
X0141155Y0018644D01*
X0141134Y0018738D01*
X0141116Y0018834D01*
X0141102Y0018930D01*
X0141092Y0019026D01*
X0141086Y0019123D01*
X0141084Y0019220D01*
D24*
X0123368Y0020795D03*
X0187147Y0020795D03*
D25*
X0188328Y0058591D03*
X0122580Y0058591D03*
D26*
X0146596Y0063709D03*
X0150927Y0063709D03*
X0155257Y0063709D03*
X0159588Y0063709D03*
X0163919Y0063709D03*
X0168250Y0063709D03*
X0172580Y0063709D03*
X0176911Y0063709D03*
X0181242Y0063709D03*
D27*
X0166334Y0083018D03*
X0158834Y0104218D03*
X0138534Y0096418D03*
X0140134Y0076718D03*
X0047834Y0159318D03*
D28*
X0047221Y0145903D03*
X0070021Y0172603D03*
X0102221Y0140403D03*
X0127895Y0124772D03*
X0102505Y0109693D03*
X0072383Y0100362D03*
X0062604Y0095982D03*
X0057983Y0106862D03*
X0047694Y0094961D03*
X0043834Y0083418D03*
X0043294Y0053961D03*
X0077502Y0051150D03*
X0086094Y0040661D03*
X0083139Y0031890D03*
X0085394Y0013161D03*
X0104273Y0010992D03*
X0115691Y0034614D03*
X0114903Y0049575D03*
X0131439Y0054299D03*
X0136861Y0059383D03*
X0152698Y0053512D03*
X0154667Y0048787D03*
X0155061Y0036583D03*
X0162309Y0032514D03*
X0177277Y0028014D03*
X0182561Y0042483D03*
X0156635Y0017685D03*
X0148368Y0012961D03*
X0136894Y0008061D03*
X0131335Y0022185D03*
X0135769Y0030283D03*
X0133407Y0036189D03*
X0133801Y0043669D03*
X0116478Y0068866D03*
X0064394Y0013061D03*
X0043894Y0013161D03*
X0045024Y0021466D03*
X0169694Y0008861D03*
X0187806Y0103711D03*
X0156021Y0146103D03*
X0155629Y0172216D03*
X0110321Y0171803D03*
D29*
X0120734Y0170018D02*
X0132134Y0170018D01*
X0135334Y0166818D01*
D30*
X0117734Y0165618D02*
X0117734Y0153518D01*
X0118534Y0153518D01*
D31*
X0107213Y0142439D02*
X0103534Y0146118D01*
X0103534Y0155218D01*
X0099534Y0159218D01*
X0094551Y0159218D01*
X0094431Y0159339D01*
X0084785Y0157070D02*
X0077208Y0164647D01*
X0084785Y0157070D02*
X0084785Y0142488D01*
X0084785Y0141767D01*
X0087534Y0139018D01*
X0087534Y0132318D01*
X0090513Y0129339D01*
X0094431Y0129339D01*
X0099006Y0133913D01*
X0109391Y0133913D01*
X0120415Y0133913D01*
X0120809Y0133520D01*
X0128289Y0133520D01*
X0138619Y0125590D01*
X0134406Y0122890D01*
X0131134Y0119618D01*
X0131134Y0074618D01*
X0125334Y0068818D01*
X0116526Y0068818D01*
X0116478Y0068866D01*
X0116626Y0068718D01*
X0154667Y0048787D02*
X0159588Y0053709D01*
X0159588Y0063709D01*
X0159588Y0070872D01*
X0163834Y0075118D01*
X0168034Y0075118D01*
X0172634Y0079718D01*
X0172634Y0090418D01*
X0170415Y0092637D01*
X0170415Y0112961D01*
X0170730Y0113276D01*
X0170730Y0124815D01*
X0170730Y0149216D01*
X0179830Y0149216D02*
X0179830Y0160550D01*
X0176794Y0161586D01*
X0178694Y0161486D01*
X0164228Y0161486D01*
X0155848Y0161386D01*
X0149943Y0155480D01*
X0149943Y0132252D01*
X0150143Y0125690D01*
X0138619Y0125590D01*
X0137351Y0142439D02*
X0107213Y0142439D01*
X0081045Y0133827D02*
X0075533Y0133827D01*
X0071990Y0130283D01*
X0071990Y0120835D01*
X0071990Y0109504D01*
X0071903Y0109417D02*
X0066233Y0109417D01*
X0062534Y0105718D01*
X0062534Y0096052D01*
X0148368Y0012961D02*
X0159176Y0012961D01*
X0162234Y0016018D01*
X0162234Y0032439D01*
X0162309Y0032514D01*
D32*
X0188525Y0009496D03*
X0094534Y0009496D03*
X0034334Y0009496D03*
X0034334Y0169318D03*
X0094434Y0169218D03*
X0188525Y0169260D03*
M02*
